G75*
%MOIN*%
%OFA0B0*%
%FSLAX25Y25*%
%IPPOS*%
%LPD*%
%AMOC8*
5,1,8,0,0,1.08239X$1,22.5*
%
%ADD10C,0.00000*%
D10*
X0012000Y0001750D02*
X0392000Y0001750D01*
X0390563Y0009250D02*
X0390565Y0009375D01*
X0390571Y0009500D01*
X0390581Y0009624D01*
X0390595Y0009748D01*
X0390612Y0009872D01*
X0390634Y0009995D01*
X0390660Y0010117D01*
X0390689Y0010239D01*
X0390722Y0010359D01*
X0390760Y0010478D01*
X0390800Y0010597D01*
X0390845Y0010713D01*
X0390893Y0010828D01*
X0390945Y0010942D01*
X0391001Y0011054D01*
X0391060Y0011164D01*
X0391122Y0011272D01*
X0391188Y0011379D01*
X0391257Y0011483D01*
X0391330Y0011584D01*
X0391405Y0011684D01*
X0391484Y0011781D01*
X0391566Y0011875D01*
X0391651Y0011967D01*
X0391738Y0012056D01*
X0391829Y0012142D01*
X0391922Y0012225D01*
X0392018Y0012306D01*
X0392116Y0012383D01*
X0392216Y0012457D01*
X0392319Y0012528D01*
X0392424Y0012595D01*
X0392532Y0012660D01*
X0392641Y0012720D01*
X0392752Y0012778D01*
X0392865Y0012831D01*
X0392979Y0012881D01*
X0393095Y0012928D01*
X0393212Y0012970D01*
X0393331Y0013009D01*
X0393451Y0013045D01*
X0393572Y0013076D01*
X0393694Y0013104D01*
X0393816Y0013127D01*
X0393940Y0013147D01*
X0394064Y0013163D01*
X0394188Y0013175D01*
X0394313Y0013183D01*
X0394438Y0013187D01*
X0394562Y0013187D01*
X0394687Y0013183D01*
X0394812Y0013175D01*
X0394936Y0013163D01*
X0395060Y0013147D01*
X0395184Y0013127D01*
X0395306Y0013104D01*
X0395428Y0013076D01*
X0395549Y0013045D01*
X0395669Y0013009D01*
X0395788Y0012970D01*
X0395905Y0012928D01*
X0396021Y0012881D01*
X0396135Y0012831D01*
X0396248Y0012778D01*
X0396359Y0012720D01*
X0396469Y0012660D01*
X0396576Y0012595D01*
X0396681Y0012528D01*
X0396784Y0012457D01*
X0396884Y0012383D01*
X0396982Y0012306D01*
X0397078Y0012225D01*
X0397171Y0012142D01*
X0397262Y0012056D01*
X0397349Y0011967D01*
X0397434Y0011875D01*
X0397516Y0011781D01*
X0397595Y0011684D01*
X0397670Y0011584D01*
X0397743Y0011483D01*
X0397812Y0011379D01*
X0397878Y0011272D01*
X0397940Y0011164D01*
X0397999Y0011054D01*
X0398055Y0010942D01*
X0398107Y0010828D01*
X0398155Y0010713D01*
X0398200Y0010597D01*
X0398240Y0010478D01*
X0398278Y0010359D01*
X0398311Y0010239D01*
X0398340Y0010117D01*
X0398366Y0009995D01*
X0398388Y0009872D01*
X0398405Y0009748D01*
X0398419Y0009624D01*
X0398429Y0009500D01*
X0398435Y0009375D01*
X0398437Y0009250D01*
X0398435Y0009125D01*
X0398429Y0009000D01*
X0398419Y0008876D01*
X0398405Y0008752D01*
X0398388Y0008628D01*
X0398366Y0008505D01*
X0398340Y0008383D01*
X0398311Y0008261D01*
X0398278Y0008141D01*
X0398240Y0008022D01*
X0398200Y0007903D01*
X0398155Y0007787D01*
X0398107Y0007672D01*
X0398055Y0007558D01*
X0397999Y0007446D01*
X0397940Y0007336D01*
X0397878Y0007228D01*
X0397812Y0007121D01*
X0397743Y0007017D01*
X0397670Y0006916D01*
X0397595Y0006816D01*
X0397516Y0006719D01*
X0397434Y0006625D01*
X0397349Y0006533D01*
X0397262Y0006444D01*
X0397171Y0006358D01*
X0397078Y0006275D01*
X0396982Y0006194D01*
X0396884Y0006117D01*
X0396784Y0006043D01*
X0396681Y0005972D01*
X0396576Y0005905D01*
X0396468Y0005840D01*
X0396359Y0005780D01*
X0396248Y0005722D01*
X0396135Y0005669D01*
X0396021Y0005619D01*
X0395905Y0005572D01*
X0395788Y0005530D01*
X0395669Y0005491D01*
X0395549Y0005455D01*
X0395428Y0005424D01*
X0395306Y0005396D01*
X0395184Y0005373D01*
X0395060Y0005353D01*
X0394936Y0005337D01*
X0394812Y0005325D01*
X0394687Y0005317D01*
X0394562Y0005313D01*
X0394438Y0005313D01*
X0394313Y0005317D01*
X0394188Y0005325D01*
X0394064Y0005337D01*
X0393940Y0005353D01*
X0393816Y0005373D01*
X0393694Y0005396D01*
X0393572Y0005424D01*
X0393451Y0005455D01*
X0393331Y0005491D01*
X0393212Y0005530D01*
X0393095Y0005572D01*
X0392979Y0005619D01*
X0392865Y0005669D01*
X0392752Y0005722D01*
X0392641Y0005780D01*
X0392531Y0005840D01*
X0392424Y0005905D01*
X0392319Y0005972D01*
X0392216Y0006043D01*
X0392116Y0006117D01*
X0392018Y0006194D01*
X0391922Y0006275D01*
X0391829Y0006358D01*
X0391738Y0006444D01*
X0391651Y0006533D01*
X0391566Y0006625D01*
X0391484Y0006719D01*
X0391405Y0006816D01*
X0391330Y0006916D01*
X0391257Y0007017D01*
X0391188Y0007121D01*
X0391122Y0007228D01*
X0391060Y0007336D01*
X0391001Y0007446D01*
X0390945Y0007558D01*
X0390893Y0007672D01*
X0390845Y0007787D01*
X0390800Y0007903D01*
X0390760Y0008022D01*
X0390722Y0008141D01*
X0390689Y0008261D01*
X0390660Y0008383D01*
X0390634Y0008505D01*
X0390612Y0008628D01*
X0390595Y0008752D01*
X0390581Y0008876D01*
X0390571Y0009000D01*
X0390565Y0009125D01*
X0390563Y0009250D01*
X0392000Y0001750D02*
X0392242Y0001753D01*
X0392483Y0001762D01*
X0392724Y0001776D01*
X0392965Y0001797D01*
X0393205Y0001823D01*
X0393445Y0001855D01*
X0393684Y0001893D01*
X0393921Y0001936D01*
X0394158Y0001986D01*
X0394393Y0002041D01*
X0394627Y0002101D01*
X0394859Y0002168D01*
X0395090Y0002239D01*
X0395319Y0002317D01*
X0395546Y0002400D01*
X0395771Y0002488D01*
X0395994Y0002582D01*
X0396214Y0002681D01*
X0396432Y0002786D01*
X0396647Y0002895D01*
X0396860Y0003010D01*
X0397070Y0003130D01*
X0397276Y0003255D01*
X0397480Y0003385D01*
X0397681Y0003520D01*
X0397878Y0003660D01*
X0398072Y0003804D01*
X0398262Y0003953D01*
X0398448Y0004107D01*
X0398631Y0004265D01*
X0398810Y0004427D01*
X0398985Y0004594D01*
X0399156Y0004765D01*
X0399323Y0004940D01*
X0399485Y0005119D01*
X0399643Y0005302D01*
X0399797Y0005488D01*
X0399946Y0005678D01*
X0400090Y0005872D01*
X0400230Y0006069D01*
X0400365Y0006270D01*
X0400495Y0006474D01*
X0400620Y0006680D01*
X0400740Y0006890D01*
X0400855Y0007103D01*
X0400964Y0007318D01*
X0401069Y0007536D01*
X0401168Y0007756D01*
X0401262Y0007979D01*
X0401350Y0008204D01*
X0401433Y0008431D01*
X0401511Y0008660D01*
X0401582Y0008891D01*
X0401649Y0009123D01*
X0401709Y0009357D01*
X0401764Y0009592D01*
X0401814Y0009829D01*
X0401857Y0010066D01*
X0401895Y0010305D01*
X0401927Y0010545D01*
X0401953Y0010785D01*
X0401974Y0011026D01*
X0401988Y0011267D01*
X0401997Y0011508D01*
X0402000Y0011750D01*
X0402000Y0106750D01*
X0390563Y0109250D02*
X0390565Y0109375D01*
X0390571Y0109500D01*
X0390581Y0109624D01*
X0390595Y0109748D01*
X0390612Y0109872D01*
X0390634Y0109995D01*
X0390660Y0110117D01*
X0390689Y0110239D01*
X0390722Y0110359D01*
X0390760Y0110478D01*
X0390800Y0110597D01*
X0390845Y0110713D01*
X0390893Y0110828D01*
X0390945Y0110942D01*
X0391001Y0111054D01*
X0391060Y0111164D01*
X0391122Y0111272D01*
X0391188Y0111379D01*
X0391257Y0111483D01*
X0391330Y0111584D01*
X0391405Y0111684D01*
X0391484Y0111781D01*
X0391566Y0111875D01*
X0391651Y0111967D01*
X0391738Y0112056D01*
X0391829Y0112142D01*
X0391922Y0112225D01*
X0392018Y0112306D01*
X0392116Y0112383D01*
X0392216Y0112457D01*
X0392319Y0112528D01*
X0392424Y0112595D01*
X0392532Y0112660D01*
X0392641Y0112720D01*
X0392752Y0112778D01*
X0392865Y0112831D01*
X0392979Y0112881D01*
X0393095Y0112928D01*
X0393212Y0112970D01*
X0393331Y0113009D01*
X0393451Y0113045D01*
X0393572Y0113076D01*
X0393694Y0113104D01*
X0393816Y0113127D01*
X0393940Y0113147D01*
X0394064Y0113163D01*
X0394188Y0113175D01*
X0394313Y0113183D01*
X0394438Y0113187D01*
X0394562Y0113187D01*
X0394687Y0113183D01*
X0394812Y0113175D01*
X0394936Y0113163D01*
X0395060Y0113147D01*
X0395184Y0113127D01*
X0395306Y0113104D01*
X0395428Y0113076D01*
X0395549Y0113045D01*
X0395669Y0113009D01*
X0395788Y0112970D01*
X0395905Y0112928D01*
X0396021Y0112881D01*
X0396135Y0112831D01*
X0396248Y0112778D01*
X0396359Y0112720D01*
X0396469Y0112660D01*
X0396576Y0112595D01*
X0396681Y0112528D01*
X0396784Y0112457D01*
X0396884Y0112383D01*
X0396982Y0112306D01*
X0397078Y0112225D01*
X0397171Y0112142D01*
X0397262Y0112056D01*
X0397349Y0111967D01*
X0397434Y0111875D01*
X0397516Y0111781D01*
X0397595Y0111684D01*
X0397670Y0111584D01*
X0397743Y0111483D01*
X0397812Y0111379D01*
X0397878Y0111272D01*
X0397940Y0111164D01*
X0397999Y0111054D01*
X0398055Y0110942D01*
X0398107Y0110828D01*
X0398155Y0110713D01*
X0398200Y0110597D01*
X0398240Y0110478D01*
X0398278Y0110359D01*
X0398311Y0110239D01*
X0398340Y0110117D01*
X0398366Y0109995D01*
X0398388Y0109872D01*
X0398405Y0109748D01*
X0398419Y0109624D01*
X0398429Y0109500D01*
X0398435Y0109375D01*
X0398437Y0109250D01*
X0398435Y0109125D01*
X0398429Y0109000D01*
X0398419Y0108876D01*
X0398405Y0108752D01*
X0398388Y0108628D01*
X0398366Y0108505D01*
X0398340Y0108383D01*
X0398311Y0108261D01*
X0398278Y0108141D01*
X0398240Y0108022D01*
X0398200Y0107903D01*
X0398155Y0107787D01*
X0398107Y0107672D01*
X0398055Y0107558D01*
X0397999Y0107446D01*
X0397940Y0107336D01*
X0397878Y0107228D01*
X0397812Y0107121D01*
X0397743Y0107017D01*
X0397670Y0106916D01*
X0397595Y0106816D01*
X0397516Y0106719D01*
X0397434Y0106625D01*
X0397349Y0106533D01*
X0397262Y0106444D01*
X0397171Y0106358D01*
X0397078Y0106275D01*
X0396982Y0106194D01*
X0396884Y0106117D01*
X0396784Y0106043D01*
X0396681Y0105972D01*
X0396576Y0105905D01*
X0396468Y0105840D01*
X0396359Y0105780D01*
X0396248Y0105722D01*
X0396135Y0105669D01*
X0396021Y0105619D01*
X0395905Y0105572D01*
X0395788Y0105530D01*
X0395669Y0105491D01*
X0395549Y0105455D01*
X0395428Y0105424D01*
X0395306Y0105396D01*
X0395184Y0105373D01*
X0395060Y0105353D01*
X0394936Y0105337D01*
X0394812Y0105325D01*
X0394687Y0105317D01*
X0394562Y0105313D01*
X0394438Y0105313D01*
X0394313Y0105317D01*
X0394188Y0105325D01*
X0394064Y0105337D01*
X0393940Y0105353D01*
X0393816Y0105373D01*
X0393694Y0105396D01*
X0393572Y0105424D01*
X0393451Y0105455D01*
X0393331Y0105491D01*
X0393212Y0105530D01*
X0393095Y0105572D01*
X0392979Y0105619D01*
X0392865Y0105669D01*
X0392752Y0105722D01*
X0392641Y0105780D01*
X0392531Y0105840D01*
X0392424Y0105905D01*
X0392319Y0105972D01*
X0392216Y0106043D01*
X0392116Y0106117D01*
X0392018Y0106194D01*
X0391922Y0106275D01*
X0391829Y0106358D01*
X0391738Y0106444D01*
X0391651Y0106533D01*
X0391566Y0106625D01*
X0391484Y0106719D01*
X0391405Y0106816D01*
X0391330Y0106916D01*
X0391257Y0107017D01*
X0391188Y0107121D01*
X0391122Y0107228D01*
X0391060Y0107336D01*
X0391001Y0107446D01*
X0390945Y0107558D01*
X0390893Y0107672D01*
X0390845Y0107787D01*
X0390800Y0107903D01*
X0390760Y0108022D01*
X0390722Y0108141D01*
X0390689Y0108261D01*
X0390660Y0108383D01*
X0390634Y0108505D01*
X0390612Y0108628D01*
X0390595Y0108752D01*
X0390581Y0108876D01*
X0390571Y0109000D01*
X0390565Y0109125D01*
X0390563Y0109250D01*
X0392000Y0116750D02*
X0392242Y0116747D01*
X0392483Y0116738D01*
X0392724Y0116724D01*
X0392965Y0116703D01*
X0393205Y0116677D01*
X0393445Y0116645D01*
X0393684Y0116607D01*
X0393921Y0116564D01*
X0394158Y0116514D01*
X0394393Y0116459D01*
X0394627Y0116399D01*
X0394859Y0116332D01*
X0395090Y0116261D01*
X0395319Y0116183D01*
X0395546Y0116100D01*
X0395771Y0116012D01*
X0395994Y0115918D01*
X0396214Y0115819D01*
X0396432Y0115714D01*
X0396647Y0115605D01*
X0396860Y0115490D01*
X0397070Y0115370D01*
X0397276Y0115245D01*
X0397480Y0115115D01*
X0397681Y0114980D01*
X0397878Y0114840D01*
X0398072Y0114696D01*
X0398262Y0114547D01*
X0398448Y0114393D01*
X0398631Y0114235D01*
X0398810Y0114073D01*
X0398985Y0113906D01*
X0399156Y0113735D01*
X0399323Y0113560D01*
X0399485Y0113381D01*
X0399643Y0113198D01*
X0399797Y0113012D01*
X0399946Y0112822D01*
X0400090Y0112628D01*
X0400230Y0112431D01*
X0400365Y0112230D01*
X0400495Y0112026D01*
X0400620Y0111820D01*
X0400740Y0111610D01*
X0400855Y0111397D01*
X0400964Y0111182D01*
X0401069Y0110964D01*
X0401168Y0110744D01*
X0401262Y0110521D01*
X0401350Y0110296D01*
X0401433Y0110069D01*
X0401511Y0109840D01*
X0401582Y0109609D01*
X0401649Y0109377D01*
X0401709Y0109143D01*
X0401764Y0108908D01*
X0401814Y0108671D01*
X0401857Y0108434D01*
X0401895Y0108195D01*
X0401927Y0107955D01*
X0401953Y0107715D01*
X0401974Y0107474D01*
X0401988Y0107233D01*
X0401997Y0106992D01*
X0402000Y0106750D01*
X0392000Y0116750D02*
X0012000Y0116750D01*
X0005563Y0109250D02*
X0005565Y0109375D01*
X0005571Y0109500D01*
X0005581Y0109624D01*
X0005595Y0109748D01*
X0005612Y0109872D01*
X0005634Y0109995D01*
X0005660Y0110117D01*
X0005689Y0110239D01*
X0005722Y0110359D01*
X0005760Y0110478D01*
X0005800Y0110597D01*
X0005845Y0110713D01*
X0005893Y0110828D01*
X0005945Y0110942D01*
X0006001Y0111054D01*
X0006060Y0111164D01*
X0006122Y0111272D01*
X0006188Y0111379D01*
X0006257Y0111483D01*
X0006330Y0111584D01*
X0006405Y0111684D01*
X0006484Y0111781D01*
X0006566Y0111875D01*
X0006651Y0111967D01*
X0006738Y0112056D01*
X0006829Y0112142D01*
X0006922Y0112225D01*
X0007018Y0112306D01*
X0007116Y0112383D01*
X0007216Y0112457D01*
X0007319Y0112528D01*
X0007424Y0112595D01*
X0007532Y0112660D01*
X0007641Y0112720D01*
X0007752Y0112778D01*
X0007865Y0112831D01*
X0007979Y0112881D01*
X0008095Y0112928D01*
X0008212Y0112970D01*
X0008331Y0113009D01*
X0008451Y0113045D01*
X0008572Y0113076D01*
X0008694Y0113104D01*
X0008816Y0113127D01*
X0008940Y0113147D01*
X0009064Y0113163D01*
X0009188Y0113175D01*
X0009313Y0113183D01*
X0009438Y0113187D01*
X0009562Y0113187D01*
X0009687Y0113183D01*
X0009812Y0113175D01*
X0009936Y0113163D01*
X0010060Y0113147D01*
X0010184Y0113127D01*
X0010306Y0113104D01*
X0010428Y0113076D01*
X0010549Y0113045D01*
X0010669Y0113009D01*
X0010788Y0112970D01*
X0010905Y0112928D01*
X0011021Y0112881D01*
X0011135Y0112831D01*
X0011248Y0112778D01*
X0011359Y0112720D01*
X0011469Y0112660D01*
X0011576Y0112595D01*
X0011681Y0112528D01*
X0011784Y0112457D01*
X0011884Y0112383D01*
X0011982Y0112306D01*
X0012078Y0112225D01*
X0012171Y0112142D01*
X0012262Y0112056D01*
X0012349Y0111967D01*
X0012434Y0111875D01*
X0012516Y0111781D01*
X0012595Y0111684D01*
X0012670Y0111584D01*
X0012743Y0111483D01*
X0012812Y0111379D01*
X0012878Y0111272D01*
X0012940Y0111164D01*
X0012999Y0111054D01*
X0013055Y0110942D01*
X0013107Y0110828D01*
X0013155Y0110713D01*
X0013200Y0110597D01*
X0013240Y0110478D01*
X0013278Y0110359D01*
X0013311Y0110239D01*
X0013340Y0110117D01*
X0013366Y0109995D01*
X0013388Y0109872D01*
X0013405Y0109748D01*
X0013419Y0109624D01*
X0013429Y0109500D01*
X0013435Y0109375D01*
X0013437Y0109250D01*
X0013435Y0109125D01*
X0013429Y0109000D01*
X0013419Y0108876D01*
X0013405Y0108752D01*
X0013388Y0108628D01*
X0013366Y0108505D01*
X0013340Y0108383D01*
X0013311Y0108261D01*
X0013278Y0108141D01*
X0013240Y0108022D01*
X0013200Y0107903D01*
X0013155Y0107787D01*
X0013107Y0107672D01*
X0013055Y0107558D01*
X0012999Y0107446D01*
X0012940Y0107336D01*
X0012878Y0107228D01*
X0012812Y0107121D01*
X0012743Y0107017D01*
X0012670Y0106916D01*
X0012595Y0106816D01*
X0012516Y0106719D01*
X0012434Y0106625D01*
X0012349Y0106533D01*
X0012262Y0106444D01*
X0012171Y0106358D01*
X0012078Y0106275D01*
X0011982Y0106194D01*
X0011884Y0106117D01*
X0011784Y0106043D01*
X0011681Y0105972D01*
X0011576Y0105905D01*
X0011468Y0105840D01*
X0011359Y0105780D01*
X0011248Y0105722D01*
X0011135Y0105669D01*
X0011021Y0105619D01*
X0010905Y0105572D01*
X0010788Y0105530D01*
X0010669Y0105491D01*
X0010549Y0105455D01*
X0010428Y0105424D01*
X0010306Y0105396D01*
X0010184Y0105373D01*
X0010060Y0105353D01*
X0009936Y0105337D01*
X0009812Y0105325D01*
X0009687Y0105317D01*
X0009562Y0105313D01*
X0009438Y0105313D01*
X0009313Y0105317D01*
X0009188Y0105325D01*
X0009064Y0105337D01*
X0008940Y0105353D01*
X0008816Y0105373D01*
X0008694Y0105396D01*
X0008572Y0105424D01*
X0008451Y0105455D01*
X0008331Y0105491D01*
X0008212Y0105530D01*
X0008095Y0105572D01*
X0007979Y0105619D01*
X0007865Y0105669D01*
X0007752Y0105722D01*
X0007641Y0105780D01*
X0007531Y0105840D01*
X0007424Y0105905D01*
X0007319Y0105972D01*
X0007216Y0106043D01*
X0007116Y0106117D01*
X0007018Y0106194D01*
X0006922Y0106275D01*
X0006829Y0106358D01*
X0006738Y0106444D01*
X0006651Y0106533D01*
X0006566Y0106625D01*
X0006484Y0106719D01*
X0006405Y0106816D01*
X0006330Y0106916D01*
X0006257Y0107017D01*
X0006188Y0107121D01*
X0006122Y0107228D01*
X0006060Y0107336D01*
X0006001Y0107446D01*
X0005945Y0107558D01*
X0005893Y0107672D01*
X0005845Y0107787D01*
X0005800Y0107903D01*
X0005760Y0108022D01*
X0005722Y0108141D01*
X0005689Y0108261D01*
X0005660Y0108383D01*
X0005634Y0108505D01*
X0005612Y0108628D01*
X0005595Y0108752D01*
X0005581Y0108876D01*
X0005571Y0109000D01*
X0005565Y0109125D01*
X0005563Y0109250D01*
X0002000Y0106750D02*
X0002000Y0011750D01*
X0005563Y0009250D02*
X0005565Y0009375D01*
X0005571Y0009500D01*
X0005581Y0009624D01*
X0005595Y0009748D01*
X0005612Y0009872D01*
X0005634Y0009995D01*
X0005660Y0010117D01*
X0005689Y0010239D01*
X0005722Y0010359D01*
X0005760Y0010478D01*
X0005800Y0010597D01*
X0005845Y0010713D01*
X0005893Y0010828D01*
X0005945Y0010942D01*
X0006001Y0011054D01*
X0006060Y0011164D01*
X0006122Y0011272D01*
X0006188Y0011379D01*
X0006257Y0011483D01*
X0006330Y0011584D01*
X0006405Y0011684D01*
X0006484Y0011781D01*
X0006566Y0011875D01*
X0006651Y0011967D01*
X0006738Y0012056D01*
X0006829Y0012142D01*
X0006922Y0012225D01*
X0007018Y0012306D01*
X0007116Y0012383D01*
X0007216Y0012457D01*
X0007319Y0012528D01*
X0007424Y0012595D01*
X0007532Y0012660D01*
X0007641Y0012720D01*
X0007752Y0012778D01*
X0007865Y0012831D01*
X0007979Y0012881D01*
X0008095Y0012928D01*
X0008212Y0012970D01*
X0008331Y0013009D01*
X0008451Y0013045D01*
X0008572Y0013076D01*
X0008694Y0013104D01*
X0008816Y0013127D01*
X0008940Y0013147D01*
X0009064Y0013163D01*
X0009188Y0013175D01*
X0009313Y0013183D01*
X0009438Y0013187D01*
X0009562Y0013187D01*
X0009687Y0013183D01*
X0009812Y0013175D01*
X0009936Y0013163D01*
X0010060Y0013147D01*
X0010184Y0013127D01*
X0010306Y0013104D01*
X0010428Y0013076D01*
X0010549Y0013045D01*
X0010669Y0013009D01*
X0010788Y0012970D01*
X0010905Y0012928D01*
X0011021Y0012881D01*
X0011135Y0012831D01*
X0011248Y0012778D01*
X0011359Y0012720D01*
X0011469Y0012660D01*
X0011576Y0012595D01*
X0011681Y0012528D01*
X0011784Y0012457D01*
X0011884Y0012383D01*
X0011982Y0012306D01*
X0012078Y0012225D01*
X0012171Y0012142D01*
X0012262Y0012056D01*
X0012349Y0011967D01*
X0012434Y0011875D01*
X0012516Y0011781D01*
X0012595Y0011684D01*
X0012670Y0011584D01*
X0012743Y0011483D01*
X0012812Y0011379D01*
X0012878Y0011272D01*
X0012940Y0011164D01*
X0012999Y0011054D01*
X0013055Y0010942D01*
X0013107Y0010828D01*
X0013155Y0010713D01*
X0013200Y0010597D01*
X0013240Y0010478D01*
X0013278Y0010359D01*
X0013311Y0010239D01*
X0013340Y0010117D01*
X0013366Y0009995D01*
X0013388Y0009872D01*
X0013405Y0009748D01*
X0013419Y0009624D01*
X0013429Y0009500D01*
X0013435Y0009375D01*
X0013437Y0009250D01*
X0013435Y0009125D01*
X0013429Y0009000D01*
X0013419Y0008876D01*
X0013405Y0008752D01*
X0013388Y0008628D01*
X0013366Y0008505D01*
X0013340Y0008383D01*
X0013311Y0008261D01*
X0013278Y0008141D01*
X0013240Y0008022D01*
X0013200Y0007903D01*
X0013155Y0007787D01*
X0013107Y0007672D01*
X0013055Y0007558D01*
X0012999Y0007446D01*
X0012940Y0007336D01*
X0012878Y0007228D01*
X0012812Y0007121D01*
X0012743Y0007017D01*
X0012670Y0006916D01*
X0012595Y0006816D01*
X0012516Y0006719D01*
X0012434Y0006625D01*
X0012349Y0006533D01*
X0012262Y0006444D01*
X0012171Y0006358D01*
X0012078Y0006275D01*
X0011982Y0006194D01*
X0011884Y0006117D01*
X0011784Y0006043D01*
X0011681Y0005972D01*
X0011576Y0005905D01*
X0011468Y0005840D01*
X0011359Y0005780D01*
X0011248Y0005722D01*
X0011135Y0005669D01*
X0011021Y0005619D01*
X0010905Y0005572D01*
X0010788Y0005530D01*
X0010669Y0005491D01*
X0010549Y0005455D01*
X0010428Y0005424D01*
X0010306Y0005396D01*
X0010184Y0005373D01*
X0010060Y0005353D01*
X0009936Y0005337D01*
X0009812Y0005325D01*
X0009687Y0005317D01*
X0009562Y0005313D01*
X0009438Y0005313D01*
X0009313Y0005317D01*
X0009188Y0005325D01*
X0009064Y0005337D01*
X0008940Y0005353D01*
X0008816Y0005373D01*
X0008694Y0005396D01*
X0008572Y0005424D01*
X0008451Y0005455D01*
X0008331Y0005491D01*
X0008212Y0005530D01*
X0008095Y0005572D01*
X0007979Y0005619D01*
X0007865Y0005669D01*
X0007752Y0005722D01*
X0007641Y0005780D01*
X0007531Y0005840D01*
X0007424Y0005905D01*
X0007319Y0005972D01*
X0007216Y0006043D01*
X0007116Y0006117D01*
X0007018Y0006194D01*
X0006922Y0006275D01*
X0006829Y0006358D01*
X0006738Y0006444D01*
X0006651Y0006533D01*
X0006566Y0006625D01*
X0006484Y0006719D01*
X0006405Y0006816D01*
X0006330Y0006916D01*
X0006257Y0007017D01*
X0006188Y0007121D01*
X0006122Y0007228D01*
X0006060Y0007336D01*
X0006001Y0007446D01*
X0005945Y0007558D01*
X0005893Y0007672D01*
X0005845Y0007787D01*
X0005800Y0007903D01*
X0005760Y0008022D01*
X0005722Y0008141D01*
X0005689Y0008261D01*
X0005660Y0008383D01*
X0005634Y0008505D01*
X0005612Y0008628D01*
X0005595Y0008752D01*
X0005581Y0008876D01*
X0005571Y0009000D01*
X0005565Y0009125D01*
X0005563Y0009250D01*
X0002000Y0011750D02*
X0002003Y0011508D01*
X0002012Y0011267D01*
X0002026Y0011026D01*
X0002047Y0010785D01*
X0002073Y0010545D01*
X0002105Y0010305D01*
X0002143Y0010066D01*
X0002186Y0009829D01*
X0002236Y0009592D01*
X0002291Y0009357D01*
X0002351Y0009123D01*
X0002418Y0008891D01*
X0002489Y0008660D01*
X0002567Y0008431D01*
X0002650Y0008204D01*
X0002738Y0007979D01*
X0002832Y0007756D01*
X0002931Y0007536D01*
X0003036Y0007318D01*
X0003145Y0007103D01*
X0003260Y0006890D01*
X0003380Y0006680D01*
X0003505Y0006474D01*
X0003635Y0006270D01*
X0003770Y0006069D01*
X0003910Y0005872D01*
X0004054Y0005678D01*
X0004203Y0005488D01*
X0004357Y0005302D01*
X0004515Y0005119D01*
X0004677Y0004940D01*
X0004844Y0004765D01*
X0005015Y0004594D01*
X0005190Y0004427D01*
X0005369Y0004265D01*
X0005552Y0004107D01*
X0005738Y0003953D01*
X0005928Y0003804D01*
X0006122Y0003660D01*
X0006319Y0003520D01*
X0006520Y0003385D01*
X0006724Y0003255D01*
X0006930Y0003130D01*
X0007140Y0003010D01*
X0007353Y0002895D01*
X0007568Y0002786D01*
X0007786Y0002681D01*
X0008006Y0002582D01*
X0008229Y0002488D01*
X0008454Y0002400D01*
X0008681Y0002317D01*
X0008910Y0002239D01*
X0009141Y0002168D01*
X0009373Y0002101D01*
X0009607Y0002041D01*
X0009842Y0001986D01*
X0010079Y0001936D01*
X0010316Y0001893D01*
X0010555Y0001855D01*
X0010795Y0001823D01*
X0011035Y0001797D01*
X0011276Y0001776D01*
X0011517Y0001762D01*
X0011758Y0001753D01*
X0012000Y0001750D01*
X0002000Y0106750D02*
X0002003Y0106992D01*
X0002012Y0107233D01*
X0002026Y0107474D01*
X0002047Y0107715D01*
X0002073Y0107955D01*
X0002105Y0108195D01*
X0002143Y0108434D01*
X0002186Y0108671D01*
X0002236Y0108908D01*
X0002291Y0109143D01*
X0002351Y0109377D01*
X0002418Y0109609D01*
X0002489Y0109840D01*
X0002567Y0110069D01*
X0002650Y0110296D01*
X0002738Y0110521D01*
X0002832Y0110744D01*
X0002931Y0110964D01*
X0003036Y0111182D01*
X0003145Y0111397D01*
X0003260Y0111610D01*
X0003380Y0111820D01*
X0003505Y0112026D01*
X0003635Y0112230D01*
X0003770Y0112431D01*
X0003910Y0112628D01*
X0004054Y0112822D01*
X0004203Y0113012D01*
X0004357Y0113198D01*
X0004515Y0113381D01*
X0004677Y0113560D01*
X0004844Y0113735D01*
X0005015Y0113906D01*
X0005190Y0114073D01*
X0005369Y0114235D01*
X0005552Y0114393D01*
X0005738Y0114547D01*
X0005928Y0114696D01*
X0006122Y0114840D01*
X0006319Y0114980D01*
X0006520Y0115115D01*
X0006724Y0115245D01*
X0006930Y0115370D01*
X0007140Y0115490D01*
X0007353Y0115605D01*
X0007568Y0115714D01*
X0007786Y0115819D01*
X0008006Y0115918D01*
X0008229Y0116012D01*
X0008454Y0116100D01*
X0008681Y0116183D01*
X0008910Y0116261D01*
X0009141Y0116332D01*
X0009373Y0116399D01*
X0009607Y0116459D01*
X0009842Y0116514D01*
X0010079Y0116564D01*
X0010316Y0116607D01*
X0010555Y0116645D01*
X0010795Y0116677D01*
X0011035Y0116703D01*
X0011276Y0116724D01*
X0011517Y0116738D01*
X0011758Y0116747D01*
X0012000Y0116750D01*
M02*
