G75*
%MOIN*%
%OFA0B0*%
%FSLAX25Y25*%
%IPPOS*%
%LPD*%
%AMOC8*
5,1,8,0,0,1.08239X$1,22.5*
%
%ADD10C,0.06600*%
%ADD11R,0.07000X0.07000*%
%ADD12C,0.07000*%
%ADD13C,0.03569*%
%ADD14C,0.01000*%
%ADD15C,0.01600*%
%ADD16C,0.01200*%
D10*
X0012000Y0029250D03*
X0022000Y0029250D03*
X0032000Y0029250D03*
X0042000Y0029250D03*
X0052000Y0029250D03*
X0062000Y0029250D03*
X0072000Y0029250D03*
X0082000Y0029250D03*
X0092000Y0029250D03*
X0112000Y0029250D03*
X0122000Y0029250D03*
X0132000Y0029250D03*
X0142000Y0029250D03*
X0152000Y0029250D03*
X0162000Y0029250D03*
X0172000Y0029250D03*
X0182000Y0029250D03*
X0192000Y0029250D03*
X0212000Y0029250D03*
X0222000Y0029250D03*
X0232000Y0029250D03*
X0242000Y0029250D03*
X0252000Y0029250D03*
X0262000Y0029250D03*
X0272000Y0029250D03*
X0282000Y0029250D03*
X0292000Y0029250D03*
X0312000Y0029250D03*
X0322000Y0029250D03*
X0332000Y0029250D03*
X0342000Y0029250D03*
X0352000Y0029250D03*
X0362000Y0029250D03*
X0372000Y0029250D03*
X0382000Y0029250D03*
X0392000Y0029250D03*
X0392000Y0089250D03*
X0382000Y0089250D03*
X0372000Y0089250D03*
X0362000Y0089250D03*
X0352000Y0089250D03*
X0342000Y0089250D03*
X0332000Y0089250D03*
X0322000Y0089250D03*
X0312000Y0089250D03*
X0292000Y0089250D03*
X0282000Y0089250D03*
X0272000Y0089250D03*
X0262000Y0089250D03*
X0252000Y0089250D03*
X0242000Y0089250D03*
X0232000Y0089250D03*
X0222000Y0089250D03*
X0212000Y0089250D03*
X0192000Y0089250D03*
X0182000Y0089250D03*
X0172000Y0089250D03*
X0162000Y0089250D03*
X0152000Y0089250D03*
X0142000Y0089250D03*
X0132000Y0089250D03*
X0122000Y0089250D03*
X0112000Y0089250D03*
X0092000Y0089250D03*
X0082000Y0089250D03*
X0072000Y0089250D03*
X0062000Y0089250D03*
X0052000Y0089250D03*
X0042000Y0089250D03*
X0032000Y0089250D03*
X0022000Y0089250D03*
X0012000Y0089250D03*
D11*
X0022000Y0109250D03*
D12*
X0032000Y0109250D03*
X0042000Y0109250D03*
X0052000Y0109250D03*
X0062000Y0109250D03*
D13*
X0067000Y0104250D03*
X0057000Y0101750D03*
X0047000Y0099250D03*
X0037000Y0096750D03*
X0087000Y0106750D03*
X0097000Y0109250D03*
X0137000Y0096750D03*
X0147000Y0099250D03*
X0157000Y0101750D03*
X0167000Y0104250D03*
X0187000Y0106750D03*
X0197000Y0109250D03*
X0237000Y0096750D03*
X0247000Y0099250D03*
X0257000Y0101750D03*
X0267000Y0104250D03*
X0287000Y0106750D03*
X0297000Y0109250D03*
X0214500Y0073000D03*
X0204500Y0073000D03*
X0184500Y0065500D03*
X0179500Y0063000D03*
X0174500Y0060500D03*
X0212000Y0060500D03*
X0232000Y0060500D03*
X0242000Y0066750D03*
X0272000Y0058000D03*
X0252000Y0046750D03*
X0262000Y0043000D03*
X0227000Y0021750D03*
X0237000Y0019250D03*
X0247000Y0016750D03*
X0257000Y0014250D03*
X0267000Y0011750D03*
X0287000Y0009250D03*
X0297000Y0006750D03*
X0197000Y0006750D03*
X0187000Y0009250D03*
X0167000Y0011750D03*
X0157000Y0014250D03*
X0147000Y0016750D03*
X0137000Y0019250D03*
X0127000Y0021750D03*
X0087000Y0009250D03*
X0097000Y0006750D03*
X0067000Y0011750D03*
X0057000Y0014250D03*
X0047000Y0016750D03*
X0037000Y0019250D03*
X0027000Y0021750D03*
X0094500Y0039250D03*
X0122000Y0050500D03*
X0159500Y0048000D03*
X0174500Y0045500D03*
X0179500Y0045500D03*
X0184500Y0045500D03*
X0189500Y0045500D03*
X0112000Y0065500D03*
X0132000Y0069250D03*
X0094500Y0074250D03*
X0102000Y0089250D03*
X0032000Y0066750D03*
X0027000Y0074250D03*
X0017000Y0079250D03*
X0005750Y0070500D03*
X0064500Y0056750D03*
X0072000Y0053000D03*
X0018250Y0049250D03*
D14*
X0005353Y0005103D02*
X0007732Y0003375D01*
X0010530Y0002466D01*
X0012000Y0002350D01*
X0392000Y0002350D01*
X0393470Y0002466D01*
X0396268Y0003375D01*
X0398647Y0005103D01*
X0400375Y0007482D01*
X0401284Y0010280D01*
X0401400Y0011750D01*
X0401400Y0106750D01*
X0401284Y0108220D01*
X0400375Y0111018D01*
X0398647Y0113397D01*
X0396268Y0115125D01*
X0396268Y0115125D01*
X0393470Y0116034D01*
X0392000Y0116150D01*
X0012000Y0116150D01*
X0010530Y0116034D01*
X0007732Y0115125D01*
X0005353Y0113397D01*
X0003625Y0111018D01*
X0002716Y0108220D01*
X0002600Y0106750D01*
X0002600Y0011750D01*
X0002716Y0010280D01*
X0003625Y0007482D01*
X0005353Y0005103D01*
X0005845Y0004746D02*
X0008519Y0004746D01*
X0008598Y0004713D02*
X0010402Y0004713D01*
X0012070Y0005404D01*
X0013346Y0006680D01*
X0014037Y0008348D01*
X0014037Y0010152D01*
X0013346Y0011820D01*
X0012070Y0013096D01*
X0010402Y0013787D01*
X0008598Y0013787D01*
X0006930Y0013096D01*
X0005654Y0011820D01*
X0004963Y0010152D01*
X0004963Y0008348D01*
X0005654Y0006680D01*
X0006930Y0005404D01*
X0008598Y0004713D01*
X0007220Y0003747D02*
X0096190Y0003747D01*
X0096386Y0003666D02*
X0097613Y0003666D01*
X0098747Y0004135D01*
X0099615Y0005003D01*
X0100084Y0006136D01*
X0100084Y0007363D01*
X0099615Y0008497D01*
X0098747Y0009365D01*
X0098600Y0009426D01*
X0098600Y0024913D01*
X0097663Y0025850D01*
X0097663Y0025850D01*
X0096183Y0027329D01*
X0096600Y0028335D01*
X0096600Y0030165D01*
X0095900Y0031856D01*
X0094606Y0033150D01*
X0092915Y0033850D01*
X0091085Y0033850D01*
X0089394Y0033150D01*
X0088100Y0031856D01*
X0087400Y0030165D01*
X0087400Y0028335D01*
X0088100Y0026644D01*
X0089394Y0025350D01*
X0091085Y0024650D01*
X0092915Y0024650D01*
X0093921Y0025067D01*
X0095400Y0023587D01*
X0095400Y0009426D01*
X0095253Y0009365D01*
X0094385Y0008497D01*
X0093916Y0007363D01*
X0093916Y0006136D01*
X0094385Y0005003D01*
X0095253Y0004135D01*
X0096386Y0003666D01*
X0097810Y0003747D02*
X0196190Y0003747D01*
X0196386Y0003666D02*
X0197613Y0003666D01*
X0198747Y0004135D01*
X0199615Y0005003D01*
X0200084Y0006136D01*
X0200084Y0007363D01*
X0199615Y0008497D01*
X0198747Y0009365D01*
X0198600Y0009426D01*
X0198600Y0024913D01*
X0197663Y0025850D01*
X0196183Y0027329D01*
X0196600Y0028335D01*
X0196600Y0030165D01*
X0196183Y0031171D01*
X0206100Y0041087D01*
X0206100Y0070324D01*
X0206247Y0070385D01*
X0207115Y0071253D01*
X0207584Y0072386D01*
X0207584Y0073613D01*
X0207115Y0074747D01*
X0206247Y0075615D01*
X0205113Y0076084D01*
X0203886Y0076084D01*
X0202753Y0075615D01*
X0201885Y0074747D01*
X0201416Y0073613D01*
X0201416Y0072386D01*
X0201885Y0071253D01*
X0202753Y0070385D01*
X0202900Y0070324D01*
X0202900Y0042413D01*
X0193921Y0033433D01*
X0192915Y0033850D01*
X0191085Y0033850D01*
X0189394Y0033150D01*
X0188100Y0031856D01*
X0187400Y0030165D01*
X0187400Y0028335D01*
X0188100Y0026644D01*
X0189394Y0025350D01*
X0191085Y0024650D01*
X0192915Y0024650D01*
X0193921Y0025067D01*
X0195400Y0023587D01*
X0195400Y0009426D01*
X0195253Y0009365D01*
X0194385Y0008497D01*
X0193916Y0007363D01*
X0193916Y0006136D01*
X0194385Y0005003D01*
X0195253Y0004135D01*
X0196386Y0003666D01*
X0197810Y0003747D02*
X0296190Y0003747D01*
X0296386Y0003666D02*
X0297613Y0003666D01*
X0298747Y0004135D01*
X0299615Y0005003D01*
X0300084Y0006136D01*
X0300084Y0007363D01*
X0299615Y0008497D01*
X0298747Y0009365D01*
X0298600Y0009426D01*
X0298600Y0024913D01*
X0297663Y0025850D01*
X0296183Y0027329D01*
X0296600Y0028335D01*
X0296600Y0030165D01*
X0295900Y0031856D01*
X0294606Y0033150D01*
X0292915Y0033850D01*
X0291085Y0033850D01*
X0289394Y0033150D01*
X0288100Y0031856D01*
X0287400Y0030165D01*
X0287400Y0028335D01*
X0288100Y0026644D01*
X0289394Y0025350D01*
X0291085Y0024650D01*
X0292915Y0024650D01*
X0293921Y0025067D01*
X0295400Y0023587D01*
X0295400Y0009426D01*
X0295253Y0009365D01*
X0294385Y0008497D01*
X0293916Y0007363D01*
X0293916Y0006136D01*
X0294385Y0005003D01*
X0295253Y0004135D01*
X0296386Y0003666D01*
X0297810Y0003747D02*
X0396780Y0003747D01*
X0395481Y0004746D02*
X0398155Y0004746D01*
X0397410Y0005744D02*
X0399112Y0005744D01*
X0398346Y0006680D02*
X0397070Y0005404D01*
X0395402Y0004713D01*
X0393598Y0004713D01*
X0391930Y0005404D01*
X0390654Y0006680D01*
X0389963Y0008348D01*
X0389963Y0010152D01*
X0390654Y0011820D01*
X0391930Y0013096D01*
X0393598Y0013787D01*
X0395402Y0013787D01*
X0397070Y0013096D01*
X0398346Y0011820D01*
X0399037Y0010152D01*
X0399037Y0008348D01*
X0398346Y0006680D01*
X0398372Y0006743D02*
X0399838Y0006743D01*
X0400459Y0007741D02*
X0398786Y0007741D01*
X0399037Y0008740D02*
X0400784Y0008740D01*
X0401108Y0009738D02*
X0399037Y0009738D01*
X0398795Y0010737D02*
X0401320Y0010737D01*
X0401399Y0011735D02*
X0398381Y0011735D01*
X0397433Y0012734D02*
X0401400Y0012734D01*
X0401400Y0013732D02*
X0395535Y0013732D01*
X0393465Y0013732D02*
X0298600Y0013732D01*
X0298600Y0012734D02*
X0391567Y0012734D01*
X0390619Y0011735D02*
X0298600Y0011735D01*
X0298600Y0010737D02*
X0390205Y0010737D01*
X0389963Y0009738D02*
X0298600Y0009738D01*
X0299372Y0008740D02*
X0389963Y0008740D01*
X0390214Y0007741D02*
X0299928Y0007741D01*
X0300084Y0006743D02*
X0390628Y0006743D01*
X0391590Y0005744D02*
X0299922Y0005744D01*
X0299357Y0004746D02*
X0393519Y0004746D01*
X0394341Y0002749D02*
X0009659Y0002749D01*
X0010481Y0004746D02*
X0094643Y0004746D01*
X0094078Y0005744D02*
X0012410Y0005744D01*
X0013372Y0006743D02*
X0085146Y0006743D01*
X0085253Y0006635D02*
X0086386Y0006166D01*
X0087613Y0006166D01*
X0088747Y0006635D01*
X0089615Y0007503D01*
X0090084Y0008636D01*
X0090084Y0009863D01*
X0089615Y0010997D01*
X0088747Y0011865D01*
X0088600Y0011926D01*
X0088600Y0024913D01*
X0087663Y0025850D01*
X0086183Y0027329D01*
X0086600Y0028335D01*
X0086600Y0030165D01*
X0085900Y0031856D01*
X0084606Y0033150D01*
X0082915Y0033850D01*
X0081085Y0033850D01*
X0079394Y0033150D01*
X0078100Y0031856D01*
X0077400Y0030165D01*
X0077400Y0028335D01*
X0078100Y0026644D01*
X0079394Y0025350D01*
X0081085Y0024650D01*
X0082915Y0024650D01*
X0083921Y0025067D01*
X0085400Y0023587D01*
X0085400Y0011926D01*
X0085253Y0011865D01*
X0084385Y0010997D01*
X0083916Y0009863D01*
X0083916Y0008636D01*
X0084385Y0007503D01*
X0085253Y0006635D01*
X0084287Y0007741D02*
X0013786Y0007741D01*
X0014037Y0008740D02*
X0066208Y0008740D01*
X0066386Y0008666D02*
X0067613Y0008666D01*
X0068747Y0009135D01*
X0069615Y0010003D01*
X0070084Y0011136D01*
X0070084Y0012363D01*
X0069615Y0013497D01*
X0068747Y0014365D01*
X0068600Y0014426D01*
X0068600Y0024913D01*
X0067663Y0025850D01*
X0066183Y0027329D01*
X0066600Y0028335D01*
X0066600Y0030165D01*
X0065900Y0031856D01*
X0064606Y0033150D01*
X0062915Y0033850D01*
X0061085Y0033850D01*
X0059394Y0033150D01*
X0058100Y0031856D01*
X0057400Y0030165D01*
X0057400Y0028335D01*
X0058100Y0026644D01*
X0059394Y0025350D01*
X0061085Y0024650D01*
X0062915Y0024650D01*
X0063921Y0025067D01*
X0065400Y0023587D01*
X0065400Y0014426D01*
X0065253Y0014365D01*
X0064385Y0013497D01*
X0063916Y0012363D01*
X0063916Y0011136D01*
X0064385Y0010003D01*
X0065253Y0009135D01*
X0066386Y0008666D01*
X0067792Y0008740D02*
X0083916Y0008740D01*
X0083916Y0009738D02*
X0069350Y0009738D01*
X0069919Y0010737D02*
X0084277Y0010737D01*
X0085123Y0011735D02*
X0070084Y0011735D01*
X0069931Y0012734D02*
X0085400Y0012734D01*
X0085400Y0013732D02*
X0069380Y0013732D01*
X0068600Y0014731D02*
X0085400Y0014731D01*
X0085400Y0015729D02*
X0068600Y0015729D01*
X0068600Y0016728D02*
X0085400Y0016728D01*
X0085400Y0017726D02*
X0068600Y0017726D01*
X0068600Y0018725D02*
X0085400Y0018725D01*
X0085400Y0019723D02*
X0068600Y0019723D01*
X0068600Y0020722D02*
X0085400Y0020722D01*
X0085400Y0021720D02*
X0068600Y0021720D01*
X0068600Y0022719D02*
X0085400Y0022719D01*
X0085270Y0023717D02*
X0068600Y0023717D01*
X0068600Y0024716D02*
X0070926Y0024716D01*
X0071085Y0024650D02*
X0072915Y0024650D01*
X0074606Y0025350D01*
X0075900Y0026644D01*
X0076600Y0028335D01*
X0076600Y0030165D01*
X0075900Y0031856D01*
X0074606Y0033150D01*
X0072915Y0033850D01*
X0071085Y0033850D01*
X0069394Y0033150D01*
X0068100Y0031856D01*
X0067400Y0030165D01*
X0067400Y0028335D01*
X0068100Y0026644D01*
X0069394Y0025350D01*
X0071085Y0024650D01*
X0073074Y0024716D02*
X0080926Y0024716D01*
X0079030Y0025714D02*
X0074970Y0025714D01*
X0075928Y0026713D02*
X0078072Y0026713D01*
X0077658Y0027711D02*
X0076342Y0027711D01*
X0076600Y0028710D02*
X0077400Y0028710D01*
X0077400Y0029708D02*
X0076600Y0029708D01*
X0076376Y0030707D02*
X0077624Y0030707D01*
X0078038Y0031705D02*
X0075962Y0031705D01*
X0075052Y0032704D02*
X0078948Y0032704D01*
X0080729Y0033702D02*
X0073271Y0033702D01*
X0070729Y0033702D02*
X0063271Y0033702D01*
X0065052Y0032704D02*
X0068948Y0032704D01*
X0068038Y0031705D02*
X0065962Y0031705D01*
X0066376Y0030707D02*
X0067624Y0030707D01*
X0067400Y0029708D02*
X0066600Y0029708D01*
X0066600Y0028710D02*
X0067400Y0028710D01*
X0067658Y0027711D02*
X0066342Y0027711D01*
X0066800Y0026713D02*
X0068072Y0026713D01*
X0067798Y0025714D02*
X0069030Y0025714D01*
X0067000Y0024250D02*
X0067000Y0011750D01*
X0063916Y0011735D02*
X0058847Y0011735D01*
X0058747Y0011635D02*
X0059615Y0012503D01*
X0060084Y0013636D01*
X0060084Y0014863D01*
X0059615Y0015997D01*
X0058747Y0016865D01*
X0058600Y0016926D01*
X0058600Y0024913D01*
X0057663Y0025850D01*
X0056183Y0027329D01*
X0056600Y0028335D01*
X0056600Y0030165D01*
X0055900Y0031856D01*
X0054606Y0033150D01*
X0052915Y0033850D01*
X0051085Y0033850D01*
X0049394Y0033150D01*
X0048100Y0031856D01*
X0047400Y0030165D01*
X0047400Y0028335D01*
X0048100Y0026644D01*
X0049394Y0025350D01*
X0051085Y0024650D01*
X0052915Y0024650D01*
X0053921Y0025067D01*
X0055400Y0023587D01*
X0055400Y0016926D01*
X0055253Y0016865D01*
X0054385Y0015997D01*
X0053916Y0014863D01*
X0053916Y0013636D01*
X0054385Y0012503D01*
X0055253Y0011635D01*
X0056386Y0011166D01*
X0057613Y0011166D01*
X0058747Y0011635D01*
X0059710Y0012734D02*
X0064069Y0012734D01*
X0064620Y0013732D02*
X0060084Y0013732D01*
X0060084Y0014731D02*
X0065400Y0014731D01*
X0065400Y0015729D02*
X0059726Y0015729D01*
X0058884Y0016728D02*
X0065400Y0016728D01*
X0065400Y0017726D02*
X0058600Y0017726D01*
X0058600Y0018725D02*
X0065400Y0018725D01*
X0065400Y0019723D02*
X0058600Y0019723D01*
X0058600Y0020722D02*
X0065400Y0020722D01*
X0065400Y0021720D02*
X0058600Y0021720D01*
X0058600Y0022719D02*
X0065400Y0022719D01*
X0065270Y0023717D02*
X0058600Y0023717D01*
X0058600Y0024716D02*
X0060926Y0024716D01*
X0059030Y0025714D02*
X0057798Y0025714D01*
X0058072Y0026713D02*
X0056800Y0026713D01*
X0056342Y0027711D02*
X0057658Y0027711D01*
X0057400Y0028710D02*
X0056600Y0028710D01*
X0056600Y0029708D02*
X0057400Y0029708D01*
X0057624Y0030707D02*
X0056376Y0030707D01*
X0055962Y0031705D02*
X0058038Y0031705D01*
X0058948Y0032704D02*
X0055052Y0032704D01*
X0053271Y0033702D02*
X0060729Y0033702D01*
X0050729Y0033702D02*
X0043271Y0033702D01*
X0042915Y0033850D02*
X0041085Y0033850D01*
X0039394Y0033150D01*
X0038100Y0031856D01*
X0037400Y0030165D01*
X0037400Y0028335D01*
X0038100Y0026644D01*
X0039394Y0025350D01*
X0041085Y0024650D01*
X0042915Y0024650D01*
X0043921Y0025067D01*
X0045400Y0023587D01*
X0045400Y0019426D01*
X0045253Y0019365D01*
X0044385Y0018497D01*
X0043916Y0017363D01*
X0043916Y0016136D01*
X0044385Y0015003D01*
X0045253Y0014135D01*
X0046386Y0013666D01*
X0047613Y0013666D01*
X0048747Y0014135D01*
X0049615Y0015003D01*
X0050084Y0016136D01*
X0050084Y0017363D01*
X0049615Y0018497D01*
X0048747Y0019365D01*
X0048600Y0019426D01*
X0048600Y0024913D01*
X0047663Y0025850D01*
X0046183Y0027329D01*
X0046600Y0028335D01*
X0046600Y0030165D01*
X0045900Y0031856D01*
X0044606Y0033150D01*
X0042915Y0033850D01*
X0040729Y0033702D02*
X0033271Y0033702D01*
X0032915Y0033850D02*
X0031085Y0033850D01*
X0029394Y0033150D01*
X0028100Y0031856D01*
X0027400Y0030165D01*
X0027400Y0028335D01*
X0028100Y0026644D01*
X0029394Y0025350D01*
X0031085Y0024650D01*
X0032915Y0024650D01*
X0033921Y0025067D01*
X0035400Y0023587D01*
X0035400Y0021926D01*
X0035253Y0021865D01*
X0034385Y0020997D01*
X0033916Y0019863D01*
X0033916Y0018636D01*
X0034385Y0017503D01*
X0035253Y0016635D01*
X0036386Y0016166D01*
X0037613Y0016166D01*
X0038747Y0016635D01*
X0039615Y0017503D01*
X0040084Y0018636D01*
X0040084Y0019863D01*
X0039615Y0020997D01*
X0038747Y0021865D01*
X0038600Y0021926D01*
X0038600Y0024913D01*
X0037663Y0025850D01*
X0036183Y0027329D01*
X0036600Y0028335D01*
X0036600Y0030165D01*
X0035900Y0031856D01*
X0034606Y0033150D01*
X0032915Y0033850D01*
X0030729Y0033702D02*
X0023271Y0033702D01*
X0022915Y0033850D02*
X0021085Y0033850D01*
X0019394Y0033150D01*
X0018100Y0031856D01*
X0017400Y0030165D01*
X0017400Y0028335D01*
X0018100Y0026644D01*
X0019394Y0025350D01*
X0021085Y0024650D01*
X0022915Y0024650D01*
X0023921Y0025067D01*
X0024938Y0024050D01*
X0024385Y0023497D01*
X0023916Y0022363D01*
X0023916Y0021136D01*
X0024385Y0020003D01*
X0025253Y0019135D01*
X0026386Y0018666D01*
X0027613Y0018666D01*
X0028747Y0019135D01*
X0029615Y0020003D01*
X0030084Y0021136D01*
X0030084Y0022363D01*
X0029615Y0023497D01*
X0028747Y0024365D01*
X0028600Y0024426D01*
X0028600Y0024913D01*
X0027663Y0025850D01*
X0026183Y0027329D01*
X0026600Y0028335D01*
X0026600Y0030165D01*
X0025900Y0031856D01*
X0024606Y0033150D01*
X0022915Y0033850D01*
X0020729Y0033702D02*
X0013271Y0033702D01*
X0012915Y0033850D02*
X0011085Y0033850D01*
X0009394Y0033150D01*
X0008100Y0031856D01*
X0007400Y0030165D01*
X0007400Y0028335D01*
X0008100Y0026644D01*
X0009394Y0025350D01*
X0011085Y0024650D01*
X0012915Y0024650D01*
X0014606Y0025350D01*
X0015900Y0026644D01*
X0016600Y0028335D01*
X0016600Y0030165D01*
X0015900Y0031856D01*
X0014606Y0033150D01*
X0012915Y0033850D01*
X0010729Y0033702D02*
X0002600Y0033702D01*
X0002600Y0032704D02*
X0008948Y0032704D01*
X0008038Y0031705D02*
X0002600Y0031705D01*
X0002600Y0030707D02*
X0007624Y0030707D01*
X0007400Y0029708D02*
X0002600Y0029708D01*
X0002600Y0028710D02*
X0007400Y0028710D01*
X0007658Y0027711D02*
X0002600Y0027711D01*
X0002600Y0026713D02*
X0008072Y0026713D01*
X0009030Y0025714D02*
X0002600Y0025714D01*
X0002600Y0024716D02*
X0010926Y0024716D01*
X0013074Y0024716D02*
X0020926Y0024716D01*
X0019030Y0025714D02*
X0014970Y0025714D01*
X0015928Y0026713D02*
X0018072Y0026713D01*
X0017658Y0027711D02*
X0016342Y0027711D01*
X0016600Y0028710D02*
X0017400Y0028710D01*
X0017400Y0029708D02*
X0016600Y0029708D01*
X0016376Y0030707D02*
X0017624Y0030707D01*
X0018038Y0031705D02*
X0015962Y0031705D01*
X0015052Y0032704D02*
X0018948Y0032704D01*
X0025052Y0032704D02*
X0028948Y0032704D01*
X0028038Y0031705D02*
X0025962Y0031705D01*
X0026376Y0030707D02*
X0027624Y0030707D01*
X0027400Y0029708D02*
X0026600Y0029708D01*
X0026600Y0028710D02*
X0027400Y0028710D01*
X0027658Y0027711D02*
X0026342Y0027711D01*
X0026800Y0026713D02*
X0028072Y0026713D01*
X0027798Y0025714D02*
X0029030Y0025714D01*
X0028600Y0024716D02*
X0030926Y0024716D01*
X0029395Y0023717D02*
X0035270Y0023717D01*
X0035400Y0022719D02*
X0029937Y0022719D01*
X0030084Y0021720D02*
X0035108Y0021720D01*
X0034271Y0020722D02*
X0029912Y0020722D01*
X0029335Y0019723D02*
X0033916Y0019723D01*
X0033916Y0018725D02*
X0027756Y0018725D01*
X0026244Y0018725D02*
X0002600Y0018725D01*
X0002600Y0019723D02*
X0024665Y0019723D01*
X0024088Y0020722D02*
X0002600Y0020722D01*
X0002600Y0021720D02*
X0023916Y0021720D01*
X0024063Y0022719D02*
X0002600Y0022719D01*
X0002600Y0023717D02*
X0024605Y0023717D01*
X0024271Y0024716D02*
X0023074Y0024716D01*
X0027000Y0024250D02*
X0027000Y0021750D01*
X0027000Y0024250D02*
X0022000Y0029250D01*
X0032000Y0029250D02*
X0037000Y0024250D01*
X0037000Y0019250D01*
X0039729Y0020722D02*
X0045400Y0020722D01*
X0045400Y0021720D02*
X0038892Y0021720D01*
X0038600Y0022719D02*
X0045400Y0022719D01*
X0045270Y0023717D02*
X0038600Y0023717D01*
X0038600Y0024716D02*
X0040926Y0024716D01*
X0039030Y0025714D02*
X0037798Y0025714D01*
X0038072Y0026713D02*
X0036800Y0026713D01*
X0036342Y0027711D02*
X0037658Y0027711D01*
X0037400Y0028710D02*
X0036600Y0028710D01*
X0036600Y0029708D02*
X0037400Y0029708D01*
X0037624Y0030707D02*
X0036376Y0030707D01*
X0035962Y0031705D02*
X0038038Y0031705D01*
X0038948Y0032704D02*
X0035052Y0032704D01*
X0042000Y0029250D02*
X0047000Y0024250D01*
X0047000Y0016750D01*
X0050084Y0016728D02*
X0055116Y0016728D01*
X0055400Y0017726D02*
X0049934Y0017726D01*
X0049387Y0018725D02*
X0055400Y0018725D01*
X0055400Y0019723D02*
X0048600Y0019723D01*
X0048600Y0020722D02*
X0055400Y0020722D01*
X0055400Y0021720D02*
X0048600Y0021720D01*
X0048600Y0022719D02*
X0055400Y0022719D01*
X0055270Y0023717D02*
X0048600Y0023717D01*
X0048600Y0024716D02*
X0050926Y0024716D01*
X0049030Y0025714D02*
X0047798Y0025714D01*
X0048072Y0026713D02*
X0046800Y0026713D01*
X0046342Y0027711D02*
X0047658Y0027711D01*
X0047400Y0028710D02*
X0046600Y0028710D01*
X0046600Y0029708D02*
X0047400Y0029708D01*
X0047624Y0030707D02*
X0046376Y0030707D01*
X0045962Y0031705D02*
X0048038Y0031705D01*
X0048948Y0032704D02*
X0045052Y0032704D01*
X0052000Y0029250D02*
X0057000Y0024250D01*
X0057000Y0014250D01*
X0054274Y0015729D02*
X0049916Y0015729D01*
X0049342Y0014731D02*
X0053916Y0014731D01*
X0053916Y0013732D02*
X0047774Y0013732D01*
X0046226Y0013732D02*
X0010535Y0013732D01*
X0008465Y0013732D02*
X0002600Y0013732D01*
X0002600Y0012734D02*
X0006567Y0012734D01*
X0005619Y0011735D02*
X0002601Y0011735D01*
X0002680Y0010737D02*
X0005205Y0010737D01*
X0004963Y0009738D02*
X0002892Y0009738D01*
X0003216Y0008740D02*
X0004963Y0008740D01*
X0005214Y0007741D02*
X0003541Y0007741D01*
X0004162Y0006743D02*
X0005628Y0006743D01*
X0004888Y0005744D02*
X0006590Y0005744D01*
X0014037Y0009738D02*
X0064650Y0009738D01*
X0064081Y0010737D02*
X0013795Y0010737D01*
X0013381Y0011735D02*
X0055153Y0011735D01*
X0054290Y0012734D02*
X0012433Y0012734D01*
X0002600Y0014731D02*
X0044658Y0014731D01*
X0044084Y0015729D02*
X0002600Y0015729D01*
X0002600Y0016728D02*
X0035161Y0016728D01*
X0034293Y0017726D02*
X0002600Y0017726D01*
X0033074Y0024716D02*
X0034271Y0024716D01*
X0043074Y0024716D02*
X0044271Y0024716D01*
X0053074Y0024716D02*
X0054271Y0024716D01*
X0063074Y0024716D02*
X0064271Y0024716D01*
X0067000Y0024250D02*
X0062000Y0029250D01*
X0082000Y0029250D02*
X0087000Y0024250D01*
X0087000Y0009250D01*
X0089713Y0007741D02*
X0094072Y0007741D01*
X0093916Y0006743D02*
X0088854Y0006743D01*
X0090084Y0008740D02*
X0094628Y0008740D01*
X0095400Y0009738D02*
X0090084Y0009738D01*
X0089723Y0010737D02*
X0095400Y0010737D01*
X0095400Y0011735D02*
X0088877Y0011735D01*
X0088600Y0012734D02*
X0095400Y0012734D01*
X0095400Y0013732D02*
X0088600Y0013732D01*
X0088600Y0014731D02*
X0095400Y0014731D01*
X0095400Y0015729D02*
X0088600Y0015729D01*
X0088600Y0016728D02*
X0095400Y0016728D01*
X0095400Y0017726D02*
X0088600Y0017726D01*
X0088600Y0018725D02*
X0095400Y0018725D01*
X0095400Y0019723D02*
X0088600Y0019723D01*
X0088600Y0020722D02*
X0095400Y0020722D01*
X0095400Y0021720D02*
X0088600Y0021720D01*
X0088600Y0022719D02*
X0095400Y0022719D01*
X0095270Y0023717D02*
X0088600Y0023717D01*
X0088600Y0024716D02*
X0090926Y0024716D01*
X0089030Y0025714D02*
X0087798Y0025714D01*
X0088072Y0026713D02*
X0086800Y0026713D01*
X0086342Y0027711D02*
X0087658Y0027711D01*
X0087400Y0028710D02*
X0086600Y0028710D01*
X0086600Y0029708D02*
X0087400Y0029708D01*
X0087624Y0030707D02*
X0086376Y0030707D01*
X0085962Y0031705D02*
X0088038Y0031705D01*
X0088948Y0032704D02*
X0085052Y0032704D01*
X0083271Y0033702D02*
X0090729Y0033702D01*
X0093271Y0033702D02*
X0110729Y0033702D01*
X0111085Y0033850D02*
X0109394Y0033150D01*
X0108100Y0031856D01*
X0107400Y0030165D01*
X0107400Y0028335D01*
X0108100Y0026644D01*
X0109394Y0025350D01*
X0111085Y0024650D01*
X0112915Y0024650D01*
X0114606Y0025350D01*
X0115900Y0026644D01*
X0116600Y0028335D01*
X0116600Y0030165D01*
X0115900Y0031856D01*
X0114606Y0033150D01*
X0112915Y0033850D01*
X0111085Y0033850D01*
X0113271Y0033702D02*
X0120729Y0033702D01*
X0121085Y0033850D02*
X0119394Y0033150D01*
X0118100Y0031856D01*
X0117400Y0030165D01*
X0117400Y0028335D01*
X0118100Y0026644D01*
X0119394Y0025350D01*
X0121085Y0024650D01*
X0122915Y0024650D01*
X0123921Y0025067D01*
X0124938Y0024050D01*
X0124385Y0023497D01*
X0123916Y0022363D01*
X0123916Y0021136D01*
X0124385Y0020003D01*
X0125253Y0019135D01*
X0126386Y0018666D01*
X0127613Y0018666D01*
X0128747Y0019135D01*
X0129615Y0020003D01*
X0130084Y0021136D01*
X0130084Y0022363D01*
X0129615Y0023497D01*
X0128747Y0024365D01*
X0128600Y0024426D01*
X0128600Y0024913D01*
X0127663Y0025850D01*
X0126183Y0027329D01*
X0126600Y0028335D01*
X0126600Y0030165D01*
X0125900Y0031856D01*
X0124606Y0033150D01*
X0122915Y0033850D01*
X0121085Y0033850D01*
X0123271Y0033702D02*
X0130729Y0033702D01*
X0131085Y0033850D02*
X0129394Y0033150D01*
X0128100Y0031856D01*
X0127400Y0030165D01*
X0127400Y0028335D01*
X0128100Y0026644D01*
X0129394Y0025350D01*
X0131085Y0024650D01*
X0132915Y0024650D01*
X0133921Y0025067D01*
X0135400Y0023587D01*
X0135400Y0021926D01*
X0135253Y0021865D01*
X0134385Y0020997D01*
X0133916Y0019863D01*
X0133916Y0018636D01*
X0134385Y0017503D01*
X0135253Y0016635D01*
X0136386Y0016166D01*
X0137613Y0016166D01*
X0138747Y0016635D01*
X0139615Y0017503D01*
X0140084Y0018636D01*
X0140084Y0019863D01*
X0139615Y0020997D01*
X0138747Y0021865D01*
X0138600Y0021926D01*
X0138600Y0024913D01*
X0137663Y0025850D01*
X0136183Y0027329D01*
X0136600Y0028335D01*
X0136600Y0030165D01*
X0135900Y0031856D01*
X0134606Y0033150D01*
X0132915Y0033850D01*
X0131085Y0033850D01*
X0133271Y0033702D02*
X0140729Y0033702D01*
X0141085Y0033850D02*
X0139394Y0033150D01*
X0138100Y0031856D01*
X0137400Y0030165D01*
X0137400Y0028335D01*
X0138100Y0026644D01*
X0139394Y0025350D01*
X0141085Y0024650D01*
X0142915Y0024650D01*
X0143921Y0025067D01*
X0145400Y0023587D01*
X0145400Y0019426D01*
X0145253Y0019365D01*
X0144385Y0018497D01*
X0143916Y0017363D01*
X0143916Y0016136D01*
X0144385Y0015003D01*
X0145253Y0014135D01*
X0146386Y0013666D01*
X0147613Y0013666D01*
X0148747Y0014135D01*
X0149615Y0015003D01*
X0150084Y0016136D01*
X0150084Y0017363D01*
X0149615Y0018497D01*
X0148747Y0019365D01*
X0148600Y0019426D01*
X0148600Y0024913D01*
X0146183Y0027329D01*
X0146600Y0028335D01*
X0146600Y0030165D01*
X0145900Y0031856D01*
X0144606Y0033150D01*
X0142915Y0033850D01*
X0141085Y0033850D01*
X0143271Y0033702D02*
X0150729Y0033702D01*
X0151085Y0033850D02*
X0149394Y0033150D01*
X0148100Y0031856D01*
X0147400Y0030165D01*
X0147400Y0028335D01*
X0148100Y0026644D01*
X0149394Y0025350D01*
X0151085Y0024650D01*
X0152915Y0024650D01*
X0153921Y0025067D01*
X0155400Y0023587D01*
X0155400Y0016926D01*
X0155253Y0016865D01*
X0154385Y0015997D01*
X0153916Y0014863D01*
X0153916Y0013636D01*
X0154385Y0012503D01*
X0155253Y0011635D01*
X0156386Y0011166D01*
X0157613Y0011166D01*
X0158747Y0011635D01*
X0159615Y0012503D01*
X0160084Y0013636D01*
X0160084Y0014863D01*
X0159615Y0015997D01*
X0158747Y0016865D01*
X0158600Y0016926D01*
X0158600Y0024913D01*
X0157663Y0025850D01*
X0156183Y0027329D01*
X0156600Y0028335D01*
X0156600Y0030165D01*
X0155900Y0031856D01*
X0154606Y0033150D01*
X0152915Y0033850D01*
X0151085Y0033850D01*
X0153271Y0033702D02*
X0160729Y0033702D01*
X0161085Y0033850D02*
X0159394Y0033150D01*
X0158100Y0031856D01*
X0157400Y0030165D01*
X0157400Y0028335D01*
X0158100Y0026644D01*
X0159394Y0025350D01*
X0161085Y0024650D01*
X0162915Y0024650D01*
X0163921Y0025067D01*
X0165400Y0023587D01*
X0165400Y0014426D01*
X0165253Y0014365D01*
X0164385Y0013497D01*
X0163916Y0012363D01*
X0163916Y0011136D01*
X0164385Y0010003D01*
X0165253Y0009135D01*
X0166386Y0008666D01*
X0167613Y0008666D01*
X0168747Y0009135D01*
X0169615Y0010003D01*
X0170084Y0011136D01*
X0170084Y0012363D01*
X0169615Y0013497D01*
X0168747Y0014365D01*
X0168600Y0014426D01*
X0168600Y0024913D01*
X0166183Y0027329D01*
X0166600Y0028335D01*
X0166600Y0030165D01*
X0165900Y0031856D01*
X0164606Y0033150D01*
X0162915Y0033850D01*
X0161085Y0033850D01*
X0163271Y0033702D02*
X0170729Y0033702D01*
X0171085Y0033850D02*
X0169394Y0033150D01*
X0168100Y0031856D01*
X0167400Y0030165D01*
X0167400Y0028335D01*
X0168100Y0026644D01*
X0169394Y0025350D01*
X0171085Y0024650D01*
X0172915Y0024650D01*
X0174606Y0025350D01*
X0175900Y0026644D01*
X0176600Y0028335D01*
X0176600Y0030165D01*
X0175900Y0031856D01*
X0174606Y0033150D01*
X0172915Y0033850D01*
X0171085Y0033850D01*
X0173271Y0033702D02*
X0180729Y0033702D01*
X0181085Y0033850D02*
X0179394Y0033150D01*
X0178100Y0031856D01*
X0177400Y0030165D01*
X0177400Y0028335D01*
X0178100Y0026644D01*
X0179394Y0025350D01*
X0181085Y0024650D01*
X0182915Y0024650D01*
X0183921Y0025067D01*
X0185400Y0023587D01*
X0185400Y0011926D01*
X0185253Y0011865D01*
X0184385Y0010997D01*
X0183916Y0009863D01*
X0183916Y0008636D01*
X0184385Y0007503D01*
X0185253Y0006635D01*
X0186386Y0006166D01*
X0187613Y0006166D01*
X0188747Y0006635D01*
X0189615Y0007503D01*
X0190084Y0008636D01*
X0190084Y0009863D01*
X0189615Y0010997D01*
X0188747Y0011865D01*
X0188600Y0011926D01*
X0188600Y0024913D01*
X0187663Y0025850D01*
X0186183Y0027329D01*
X0186600Y0028335D01*
X0186600Y0030165D01*
X0185900Y0031856D01*
X0184606Y0033150D01*
X0182915Y0033850D01*
X0181085Y0033850D01*
X0183271Y0033702D02*
X0190729Y0033702D01*
X0188948Y0032704D02*
X0185052Y0032704D01*
X0185962Y0031705D02*
X0188038Y0031705D01*
X0187624Y0030707D02*
X0186376Y0030707D01*
X0186600Y0029708D02*
X0187400Y0029708D01*
X0187400Y0028710D02*
X0186600Y0028710D01*
X0186342Y0027711D02*
X0187658Y0027711D01*
X0188072Y0026713D02*
X0186800Y0026713D01*
X0187798Y0025714D02*
X0189030Y0025714D01*
X0188600Y0024716D02*
X0190926Y0024716D01*
X0193074Y0024716D02*
X0194271Y0024716D01*
X0195270Y0023717D02*
X0188600Y0023717D01*
X0188600Y0022719D02*
X0195400Y0022719D01*
X0195400Y0021720D02*
X0188600Y0021720D01*
X0188600Y0020722D02*
X0195400Y0020722D01*
X0195400Y0019723D02*
X0188600Y0019723D01*
X0188600Y0018725D02*
X0195400Y0018725D01*
X0195400Y0017726D02*
X0188600Y0017726D01*
X0188600Y0016728D02*
X0195400Y0016728D01*
X0195400Y0015729D02*
X0188600Y0015729D01*
X0188600Y0014731D02*
X0195400Y0014731D01*
X0195400Y0013732D02*
X0188600Y0013732D01*
X0188600Y0012734D02*
X0195400Y0012734D01*
X0195400Y0011735D02*
X0188877Y0011735D01*
X0189723Y0010737D02*
X0195400Y0010737D01*
X0195400Y0009738D02*
X0190084Y0009738D01*
X0190084Y0008740D02*
X0194628Y0008740D01*
X0194072Y0007741D02*
X0189713Y0007741D01*
X0188854Y0006743D02*
X0193916Y0006743D01*
X0194078Y0005744D02*
X0099922Y0005744D01*
X0100084Y0006743D02*
X0185146Y0006743D01*
X0184287Y0007741D02*
X0099928Y0007741D01*
X0099372Y0008740D02*
X0166208Y0008740D01*
X0167792Y0008740D02*
X0183916Y0008740D01*
X0183916Y0009738D02*
X0169350Y0009738D01*
X0169919Y0010737D02*
X0184277Y0010737D01*
X0185123Y0011735D02*
X0170084Y0011735D01*
X0169931Y0012734D02*
X0185400Y0012734D01*
X0185400Y0013732D02*
X0169380Y0013732D01*
X0168600Y0014731D02*
X0185400Y0014731D01*
X0185400Y0015729D02*
X0168600Y0015729D01*
X0168600Y0016728D02*
X0185400Y0016728D01*
X0185400Y0017726D02*
X0168600Y0017726D01*
X0168600Y0018725D02*
X0185400Y0018725D01*
X0185400Y0019723D02*
X0168600Y0019723D01*
X0168600Y0020722D02*
X0185400Y0020722D01*
X0185400Y0021720D02*
X0168600Y0021720D01*
X0168600Y0022719D02*
X0185400Y0022719D01*
X0185270Y0023717D02*
X0168600Y0023717D01*
X0168600Y0024716D02*
X0170926Y0024716D01*
X0169030Y0025714D02*
X0167798Y0025714D01*
X0168072Y0026713D02*
X0166800Y0026713D01*
X0166342Y0027711D02*
X0167658Y0027711D01*
X0167400Y0028710D02*
X0166600Y0028710D01*
X0166600Y0029708D02*
X0167400Y0029708D01*
X0167624Y0030707D02*
X0166376Y0030707D01*
X0165962Y0031705D02*
X0168038Y0031705D01*
X0168948Y0032704D02*
X0165052Y0032704D01*
X0158948Y0032704D02*
X0155052Y0032704D01*
X0155962Y0031705D02*
X0158038Y0031705D01*
X0157624Y0030707D02*
X0156376Y0030707D01*
X0156600Y0029708D02*
X0157400Y0029708D01*
X0157400Y0028710D02*
X0156600Y0028710D01*
X0156342Y0027711D02*
X0157658Y0027711D01*
X0158072Y0026713D02*
X0156800Y0026713D01*
X0157798Y0025714D02*
X0159030Y0025714D01*
X0158600Y0024716D02*
X0160926Y0024716D01*
X0163074Y0024716D02*
X0164271Y0024716D01*
X0165270Y0023717D02*
X0158600Y0023717D01*
X0158600Y0022719D02*
X0165400Y0022719D01*
X0165400Y0021720D02*
X0158600Y0021720D01*
X0158600Y0020722D02*
X0165400Y0020722D01*
X0165400Y0019723D02*
X0158600Y0019723D01*
X0158600Y0018725D02*
X0165400Y0018725D01*
X0165400Y0017726D02*
X0158600Y0017726D01*
X0158884Y0016728D02*
X0165400Y0016728D01*
X0165400Y0015729D02*
X0159726Y0015729D01*
X0160084Y0014731D02*
X0165400Y0014731D01*
X0164620Y0013732D02*
X0160084Y0013732D01*
X0159710Y0012734D02*
X0164069Y0012734D01*
X0163916Y0011735D02*
X0158847Y0011735D01*
X0155153Y0011735D02*
X0098600Y0011735D01*
X0098600Y0010737D02*
X0164081Y0010737D01*
X0164650Y0009738D02*
X0098600Y0009738D01*
X0098600Y0012734D02*
X0154290Y0012734D01*
X0153916Y0013732D02*
X0147774Y0013732D01*
X0146226Y0013732D02*
X0098600Y0013732D01*
X0098600Y0014731D02*
X0144658Y0014731D01*
X0144084Y0015729D02*
X0098600Y0015729D01*
X0098600Y0016728D02*
X0135161Y0016728D01*
X0134293Y0017726D02*
X0098600Y0017726D01*
X0098600Y0018725D02*
X0126244Y0018725D01*
X0127756Y0018725D02*
X0133916Y0018725D01*
X0133916Y0019723D02*
X0129335Y0019723D01*
X0129912Y0020722D02*
X0134271Y0020722D01*
X0135108Y0021720D02*
X0130084Y0021720D01*
X0129937Y0022719D02*
X0135400Y0022719D01*
X0135270Y0023717D02*
X0129395Y0023717D01*
X0128600Y0024716D02*
X0130926Y0024716D01*
X0129030Y0025714D02*
X0127798Y0025714D01*
X0128072Y0026713D02*
X0126800Y0026713D01*
X0126342Y0027711D02*
X0127658Y0027711D01*
X0127400Y0028710D02*
X0126600Y0028710D01*
X0126600Y0029708D02*
X0127400Y0029708D01*
X0127624Y0030707D02*
X0126376Y0030707D01*
X0125962Y0031705D02*
X0128038Y0031705D01*
X0128948Y0032704D02*
X0125052Y0032704D01*
X0118948Y0032704D02*
X0115052Y0032704D01*
X0115962Y0031705D02*
X0118038Y0031705D01*
X0117624Y0030707D02*
X0116376Y0030707D01*
X0116600Y0029708D02*
X0117400Y0029708D01*
X0117400Y0028710D02*
X0116600Y0028710D01*
X0116342Y0027711D02*
X0117658Y0027711D01*
X0118072Y0026713D02*
X0115928Y0026713D01*
X0114970Y0025714D02*
X0119030Y0025714D01*
X0120926Y0024716D02*
X0113074Y0024716D01*
X0110926Y0024716D02*
X0098600Y0024716D01*
X0098600Y0023717D02*
X0124605Y0023717D01*
X0124271Y0024716D02*
X0123074Y0024716D01*
X0124063Y0022719D02*
X0098600Y0022719D01*
X0098600Y0021720D02*
X0123916Y0021720D01*
X0124088Y0020722D02*
X0098600Y0020722D01*
X0098600Y0019723D02*
X0124665Y0019723D01*
X0127000Y0021750D02*
X0127000Y0024250D01*
X0122000Y0029250D01*
X0132000Y0029250D02*
X0137000Y0024250D01*
X0137000Y0019250D01*
X0139729Y0020722D02*
X0145400Y0020722D01*
X0145400Y0021720D02*
X0138892Y0021720D01*
X0138600Y0022719D02*
X0145400Y0022719D01*
X0145270Y0023717D02*
X0138600Y0023717D01*
X0138600Y0024716D02*
X0140926Y0024716D01*
X0139030Y0025714D02*
X0137798Y0025714D01*
X0138072Y0026713D02*
X0136800Y0026713D01*
X0136342Y0027711D02*
X0137658Y0027711D01*
X0137400Y0028710D02*
X0136600Y0028710D01*
X0136600Y0029708D02*
X0137400Y0029708D01*
X0137624Y0030707D02*
X0136376Y0030707D01*
X0135962Y0031705D02*
X0138038Y0031705D01*
X0138948Y0032704D02*
X0135052Y0032704D01*
X0145052Y0032704D02*
X0148948Y0032704D01*
X0148038Y0031705D02*
X0145962Y0031705D01*
X0146376Y0030707D02*
X0147624Y0030707D01*
X0147400Y0029708D02*
X0146600Y0029708D01*
X0146600Y0028710D02*
X0147400Y0028710D01*
X0147658Y0027711D02*
X0146342Y0027711D01*
X0146800Y0026713D02*
X0148072Y0026713D01*
X0147798Y0025714D02*
X0149030Y0025714D01*
X0148600Y0024716D02*
X0150926Y0024716D01*
X0153074Y0024716D02*
X0154271Y0024716D01*
X0155270Y0023717D02*
X0148600Y0023717D01*
X0148600Y0022719D02*
X0155400Y0022719D01*
X0155400Y0021720D02*
X0148600Y0021720D01*
X0148600Y0020722D02*
X0155400Y0020722D01*
X0155400Y0019723D02*
X0148600Y0019723D01*
X0149387Y0018725D02*
X0155400Y0018725D01*
X0155400Y0017726D02*
X0149934Y0017726D01*
X0150084Y0016728D02*
X0155116Y0016728D01*
X0154274Y0015729D02*
X0149916Y0015729D01*
X0149342Y0014731D02*
X0153916Y0014731D01*
X0157000Y0014250D02*
X0157000Y0024250D01*
X0152000Y0029250D01*
X0147000Y0024250D02*
X0142000Y0029250D01*
X0143074Y0024716D02*
X0144271Y0024716D01*
X0147000Y0024250D02*
X0147000Y0016750D01*
X0143916Y0016728D02*
X0138839Y0016728D01*
X0139707Y0017726D02*
X0144066Y0017726D01*
X0144613Y0018725D02*
X0140084Y0018725D01*
X0140084Y0019723D02*
X0145400Y0019723D01*
X0134271Y0024716D02*
X0133074Y0024716D01*
X0109030Y0025714D02*
X0097798Y0025714D01*
X0096800Y0026713D02*
X0108072Y0026713D01*
X0107658Y0027711D02*
X0096342Y0027711D01*
X0096600Y0028710D02*
X0107400Y0028710D01*
X0107400Y0029708D02*
X0096600Y0029708D01*
X0096376Y0030707D02*
X0107624Y0030707D01*
X0108038Y0031705D02*
X0095962Y0031705D01*
X0095052Y0032704D02*
X0108948Y0032704D01*
X0097000Y0024250D02*
X0092000Y0029250D01*
X0093074Y0024716D02*
X0094272Y0024716D01*
X0097000Y0024250D02*
X0097000Y0006750D01*
X0099357Y0004746D02*
X0194643Y0004746D01*
X0197000Y0006750D02*
X0197000Y0024250D01*
X0192000Y0029250D01*
X0204500Y0041750D01*
X0204500Y0073000D01*
X0207277Y0071646D02*
X0211723Y0071646D01*
X0211885Y0071253D02*
X0212753Y0070385D01*
X0213886Y0069916D01*
X0215113Y0069916D01*
X0216247Y0070385D01*
X0217115Y0071253D01*
X0217584Y0072386D01*
X0217584Y0073613D01*
X0217157Y0074644D01*
X0222663Y0080150D01*
X0235163Y0080150D01*
X0240079Y0085067D01*
X0241085Y0084650D01*
X0242915Y0084650D01*
X0244606Y0085350D01*
X0245900Y0086644D01*
X0246600Y0088335D01*
X0246600Y0090165D01*
X0246183Y0091171D01*
X0247663Y0092650D01*
X0248600Y0093587D01*
X0248600Y0096574D01*
X0248747Y0096635D01*
X0249615Y0097503D01*
X0250084Y0098636D01*
X0250084Y0099863D01*
X0249615Y0100997D01*
X0248747Y0101865D01*
X0247613Y0102334D01*
X0246386Y0102334D01*
X0245253Y0101865D01*
X0244385Y0100997D01*
X0243916Y0099863D01*
X0243916Y0098636D01*
X0244385Y0097503D01*
X0245253Y0096635D01*
X0245400Y0096574D01*
X0245400Y0094913D01*
X0243921Y0093433D01*
X0242915Y0093850D01*
X0241085Y0093850D01*
X0239394Y0093150D01*
X0238100Y0091856D01*
X0237400Y0090165D01*
X0237400Y0088335D01*
X0237817Y0087329D01*
X0233837Y0083350D01*
X0221337Y0083350D01*
X0220400Y0082413D01*
X0214072Y0076084D01*
X0213886Y0076084D01*
X0212753Y0075615D01*
X0211885Y0074747D01*
X0211416Y0073613D01*
X0211416Y0072386D01*
X0211885Y0071253D01*
X0212491Y0070647D02*
X0206509Y0070647D01*
X0206100Y0069649D02*
X0240939Y0069649D01*
X0241386Y0069834D02*
X0240253Y0069365D01*
X0239385Y0068497D01*
X0238916Y0067363D01*
X0238916Y0066136D01*
X0239385Y0065003D01*
X0240253Y0064135D01*
X0240400Y0064074D01*
X0240400Y0033566D01*
X0239394Y0033150D01*
X0238100Y0031856D01*
X0237400Y0030165D01*
X0237400Y0028335D01*
X0238100Y0026644D01*
X0239394Y0025350D01*
X0241085Y0024650D01*
X0242915Y0024650D01*
X0243921Y0025067D01*
X0245400Y0023587D01*
X0245400Y0019426D01*
X0245253Y0019365D01*
X0244385Y0018497D01*
X0243916Y0017363D01*
X0243916Y0016136D01*
X0244385Y0015003D01*
X0245253Y0014135D01*
X0246386Y0013666D01*
X0247613Y0013666D01*
X0248747Y0014135D01*
X0249615Y0015003D01*
X0250084Y0016136D01*
X0250084Y0017363D01*
X0249615Y0018497D01*
X0248747Y0019365D01*
X0248600Y0019426D01*
X0248600Y0024913D01*
X0247663Y0025850D01*
X0246183Y0027329D01*
X0246600Y0028335D01*
X0246600Y0030165D01*
X0245900Y0031856D01*
X0244606Y0033150D01*
X0243600Y0033566D01*
X0243600Y0064074D01*
X0243747Y0064135D01*
X0244615Y0065003D01*
X0245084Y0066136D01*
X0245084Y0067363D01*
X0244615Y0068497D01*
X0243747Y0069365D01*
X0242613Y0069834D01*
X0241386Y0069834D01*
X0243061Y0069649D02*
X0270300Y0069649D01*
X0270300Y0070647D02*
X0216509Y0070647D01*
X0217277Y0071646D02*
X0270300Y0071646D01*
X0270300Y0072644D02*
X0217584Y0072644D01*
X0217572Y0073643D02*
X0270300Y0073643D01*
X0270300Y0074641D02*
X0217159Y0074641D01*
X0218153Y0075640D02*
X0270300Y0075640D01*
X0270300Y0076638D02*
X0219151Y0076638D01*
X0220150Y0077637D02*
X0270300Y0077637D01*
X0270300Y0078635D02*
X0221148Y0078635D01*
X0222147Y0079634D02*
X0270300Y0079634D01*
X0270300Y0080632D02*
X0235645Y0080632D01*
X0236644Y0081631D02*
X0270300Y0081631D01*
X0270300Y0082629D02*
X0237642Y0082629D01*
X0238641Y0083628D02*
X0270300Y0083628D01*
X0270300Y0084626D02*
X0239639Y0084626D01*
X0236112Y0085625D02*
X0234880Y0085625D01*
X0234606Y0085350D02*
X0235900Y0086644D01*
X0236600Y0088335D01*
X0236600Y0090165D01*
X0236183Y0091171D01*
X0237663Y0092650D01*
X0238600Y0093587D01*
X0238600Y0094074D01*
X0238747Y0094135D01*
X0239615Y0095003D01*
X0240084Y0096136D01*
X0240084Y0097363D01*
X0239615Y0098497D01*
X0238747Y0099365D01*
X0237613Y0099834D01*
X0236386Y0099834D01*
X0235253Y0099365D01*
X0234385Y0098497D01*
X0233916Y0097363D01*
X0233916Y0096136D01*
X0234385Y0095003D01*
X0234938Y0094450D01*
X0233921Y0093433D01*
X0232915Y0093850D01*
X0231085Y0093850D01*
X0229394Y0093150D01*
X0228100Y0091856D01*
X0227400Y0090165D01*
X0227400Y0088335D01*
X0228100Y0086644D01*
X0229394Y0085350D01*
X0231085Y0084650D01*
X0232915Y0084650D01*
X0234606Y0085350D01*
X0235114Y0084626D02*
X0219639Y0084626D01*
X0220079Y0085067D02*
X0221085Y0084650D01*
X0222915Y0084650D01*
X0224606Y0085350D01*
X0225900Y0086644D01*
X0226600Y0088335D01*
X0226600Y0090165D01*
X0225900Y0091856D01*
X0224606Y0093150D01*
X0222915Y0093850D01*
X0221085Y0093850D01*
X0219394Y0093150D01*
X0218100Y0091856D01*
X0217400Y0090165D01*
X0217400Y0088335D01*
X0217817Y0087329D01*
X0211337Y0080850D01*
X0192804Y0080850D01*
X0192704Y0080950D01*
X0191296Y0080950D01*
X0187800Y0077454D01*
X0187800Y0048134D01*
X0187753Y0048115D01*
X0187000Y0047362D01*
X0186247Y0048115D01*
X0186200Y0048134D01*
X0186200Y0062866D01*
X0186247Y0062885D01*
X0187115Y0063753D01*
X0187584Y0064886D01*
X0187584Y0066113D01*
X0187115Y0067247D01*
X0186247Y0068115D01*
X0185113Y0068584D01*
X0183886Y0068584D01*
X0182753Y0068115D01*
X0181885Y0067247D01*
X0181416Y0066113D01*
X0181416Y0065446D01*
X0181247Y0065615D01*
X0180113Y0066084D01*
X0178886Y0066084D01*
X0177753Y0065615D01*
X0176885Y0064747D01*
X0176416Y0063613D01*
X0176416Y0062946D01*
X0176247Y0063115D01*
X0175113Y0063584D01*
X0173886Y0063584D01*
X0172753Y0063115D01*
X0171885Y0062247D01*
X0171416Y0061113D01*
X0171416Y0059886D01*
X0171885Y0058753D01*
X0172753Y0057885D01*
X0172900Y0057824D01*
X0172900Y0048176D01*
X0172753Y0048115D01*
X0171885Y0047247D01*
X0171416Y0046113D01*
X0171416Y0044886D01*
X0171885Y0043753D01*
X0172753Y0042885D01*
X0173886Y0042416D01*
X0175113Y0042416D01*
X0176247Y0042885D01*
X0177000Y0043638D01*
X0177753Y0042885D01*
X0178886Y0042416D01*
X0180113Y0042416D01*
X0181247Y0042885D01*
X0182000Y0043638D01*
X0182753Y0042885D01*
X0183886Y0042416D01*
X0185113Y0042416D01*
X0186247Y0042885D01*
X0187000Y0043638D01*
X0187753Y0042885D01*
X0188886Y0042416D01*
X0190113Y0042416D01*
X0191247Y0042885D01*
X0192115Y0043753D01*
X0192584Y0044886D01*
X0192584Y0046113D01*
X0192115Y0047247D01*
X0191247Y0048115D01*
X0191200Y0048134D01*
X0191200Y0076046D01*
X0192804Y0077650D01*
X0212663Y0077650D01*
X0213600Y0078587D01*
X0220079Y0085067D01*
X0218641Y0083628D02*
X0234115Y0083628D01*
X0234500Y0081750D02*
X0242000Y0089250D01*
X0247000Y0094250D01*
X0247000Y0099250D01*
X0244222Y0100603D02*
X0198600Y0100603D01*
X0198600Y0101601D02*
X0244989Y0101601D01*
X0243916Y0099604D02*
X0238169Y0099604D01*
X0239506Y0098606D02*
X0243929Y0098606D01*
X0244342Y0097607D02*
X0239983Y0097607D01*
X0240084Y0096609D02*
X0245317Y0096609D01*
X0245400Y0095610D02*
X0239866Y0095610D01*
X0239223Y0094612D02*
X0245099Y0094612D01*
X0244100Y0093613D02*
X0243487Y0093613D01*
X0240513Y0093613D02*
X0238600Y0093613D01*
X0238859Y0092615D02*
X0237627Y0092615D01*
X0238001Y0091616D02*
X0236629Y0091616D01*
X0236413Y0090618D02*
X0237587Y0090618D01*
X0237400Y0089619D02*
X0236600Y0089619D01*
X0236600Y0088620D02*
X0237400Y0088620D01*
X0237695Y0087622D02*
X0236305Y0087622D01*
X0235879Y0086623D02*
X0237111Y0086623D01*
X0232000Y0089250D02*
X0237000Y0094250D01*
X0237000Y0096750D01*
X0234134Y0095610D02*
X0198600Y0095610D01*
X0198600Y0094612D02*
X0234777Y0094612D01*
X0234100Y0093613D02*
X0233487Y0093613D01*
X0230513Y0093613D02*
X0223487Y0093613D01*
X0225141Y0092615D02*
X0228859Y0092615D01*
X0228001Y0091616D02*
X0225999Y0091616D01*
X0226413Y0090618D02*
X0227587Y0090618D01*
X0227400Y0089619D02*
X0226600Y0089619D01*
X0226600Y0088620D02*
X0227400Y0088620D01*
X0227695Y0087622D02*
X0226305Y0087622D01*
X0225879Y0086623D02*
X0228121Y0086623D01*
X0229120Y0085625D02*
X0224880Y0085625D01*
X0217695Y0087622D02*
X0216305Y0087622D01*
X0216600Y0088335D02*
X0215900Y0086644D01*
X0214606Y0085350D01*
X0212915Y0084650D01*
X0211085Y0084650D01*
X0209394Y0085350D01*
X0208100Y0086644D01*
X0207400Y0088335D01*
X0207400Y0090165D01*
X0208100Y0091856D01*
X0209394Y0093150D01*
X0211085Y0093850D01*
X0212915Y0093850D01*
X0214606Y0093150D01*
X0215900Y0091856D01*
X0216600Y0090165D01*
X0216600Y0088335D01*
X0216600Y0088620D02*
X0217400Y0088620D01*
X0217400Y0089619D02*
X0216600Y0089619D01*
X0216413Y0090618D02*
X0217587Y0090618D01*
X0218001Y0091616D02*
X0215999Y0091616D01*
X0215141Y0092615D02*
X0218859Y0092615D01*
X0220513Y0093613D02*
X0213487Y0093613D01*
X0210513Y0093613D02*
X0198600Y0093613D01*
X0198600Y0093587D02*
X0198600Y0106574D01*
X0198747Y0106635D01*
X0199615Y0107503D01*
X0200084Y0108636D01*
X0200084Y0109863D01*
X0199615Y0110997D01*
X0198747Y0111865D01*
X0197613Y0112334D01*
X0196386Y0112334D01*
X0195253Y0111865D01*
X0194385Y0110997D01*
X0193916Y0109863D01*
X0193916Y0108636D01*
X0194385Y0107503D01*
X0195253Y0106635D01*
X0195400Y0106574D01*
X0195400Y0094913D01*
X0193921Y0093433D01*
X0192915Y0093850D01*
X0191085Y0093850D01*
X0189394Y0093150D01*
X0188100Y0091856D01*
X0187400Y0090165D01*
X0187400Y0088335D01*
X0188100Y0086644D01*
X0189394Y0085350D01*
X0191085Y0084650D01*
X0192915Y0084650D01*
X0194606Y0085350D01*
X0195900Y0086644D01*
X0196600Y0088335D01*
X0196600Y0090165D01*
X0196183Y0091171D01*
X0197663Y0092650D01*
X0198600Y0093587D01*
X0197627Y0092615D02*
X0208859Y0092615D01*
X0208001Y0091616D02*
X0196629Y0091616D01*
X0196413Y0090618D02*
X0207587Y0090618D01*
X0207400Y0089619D02*
X0196600Y0089619D01*
X0196600Y0088620D02*
X0207400Y0088620D01*
X0207695Y0087622D02*
X0196305Y0087622D01*
X0195879Y0086623D02*
X0208121Y0086623D01*
X0209120Y0085625D02*
X0194880Y0085625D01*
X0189120Y0085625D02*
X0184880Y0085625D01*
X0184606Y0085350D02*
X0185900Y0086644D01*
X0186600Y0088335D01*
X0186600Y0090165D01*
X0186183Y0091171D01*
X0188600Y0093587D01*
X0188600Y0104074D01*
X0188747Y0104135D01*
X0189615Y0105003D01*
X0190084Y0106136D01*
X0190084Y0107363D01*
X0189615Y0108497D01*
X0188747Y0109365D01*
X0187613Y0109834D01*
X0186386Y0109834D01*
X0185253Y0109365D01*
X0184385Y0108497D01*
X0183916Y0107363D01*
X0183916Y0106136D01*
X0184385Y0105003D01*
X0185253Y0104135D01*
X0185400Y0104074D01*
X0185400Y0094913D01*
X0183921Y0093433D01*
X0182915Y0093850D01*
X0181085Y0093850D01*
X0179394Y0093150D01*
X0178100Y0091856D01*
X0177400Y0090165D01*
X0177400Y0088335D01*
X0178100Y0086644D01*
X0179394Y0085350D01*
X0181085Y0084650D01*
X0182915Y0084650D01*
X0184606Y0085350D01*
X0185879Y0086623D02*
X0188121Y0086623D01*
X0187695Y0087622D02*
X0186305Y0087622D01*
X0186600Y0088620D02*
X0187400Y0088620D01*
X0187400Y0089619D02*
X0186600Y0089619D01*
X0186413Y0090618D02*
X0187587Y0090618D01*
X0188001Y0091616D02*
X0186629Y0091616D01*
X0187627Y0092615D02*
X0188859Y0092615D01*
X0188600Y0093613D02*
X0190513Y0093613D01*
X0188600Y0094612D02*
X0195099Y0094612D01*
X0195400Y0095610D02*
X0188600Y0095610D01*
X0188600Y0096609D02*
X0195400Y0096609D01*
X0195400Y0097607D02*
X0188600Y0097607D01*
X0188600Y0098606D02*
X0195400Y0098606D01*
X0195400Y0099604D02*
X0188600Y0099604D01*
X0188600Y0100603D02*
X0195400Y0100603D01*
X0195400Y0101601D02*
X0188600Y0101601D01*
X0188600Y0102600D02*
X0195400Y0102600D01*
X0195400Y0103598D02*
X0188600Y0103598D01*
X0189208Y0104597D02*
X0195400Y0104597D01*
X0195400Y0105595D02*
X0189860Y0105595D01*
X0190084Y0106594D02*
X0195353Y0106594D01*
X0194348Y0107592D02*
X0189990Y0107592D01*
X0189521Y0108591D02*
X0193935Y0108591D01*
X0193916Y0109589D02*
X0188205Y0109589D01*
X0185795Y0109589D02*
X0103600Y0109589D01*
X0103600Y0108591D02*
X0184479Y0108591D01*
X0184010Y0107592D02*
X0103600Y0107592D01*
X0103600Y0106594D02*
X0164982Y0106594D01*
X0165253Y0106865D02*
X0164385Y0105997D01*
X0163916Y0104863D01*
X0163916Y0103636D01*
X0164385Y0102503D01*
X0165253Y0101635D01*
X0165400Y0101574D01*
X0165400Y0094913D01*
X0163921Y0093433D01*
X0162915Y0093850D01*
X0161085Y0093850D01*
X0159394Y0093150D01*
X0158100Y0091856D01*
X0157400Y0090165D01*
X0157400Y0088335D01*
X0158100Y0086644D01*
X0159394Y0085350D01*
X0161085Y0084650D01*
X0162915Y0084650D01*
X0164606Y0085350D01*
X0165900Y0086644D01*
X0166600Y0088335D01*
X0166600Y0090165D01*
X0166183Y0091171D01*
X0167663Y0092650D01*
X0168600Y0093587D01*
X0168600Y0101574D01*
X0168747Y0101635D01*
X0169615Y0102503D01*
X0170084Y0103636D01*
X0170084Y0104863D01*
X0169615Y0105997D01*
X0168747Y0106865D01*
X0167613Y0107334D01*
X0166386Y0107334D01*
X0165253Y0106865D01*
X0164219Y0105595D02*
X0103600Y0105595D01*
X0103600Y0104597D02*
X0155813Y0104597D01*
X0155253Y0104365D02*
X0154385Y0103497D01*
X0153916Y0102363D01*
X0153916Y0101136D01*
X0154385Y0100003D01*
X0155253Y0099135D01*
X0155400Y0099074D01*
X0155400Y0094913D01*
X0153921Y0093433D01*
X0152915Y0093850D01*
X0151085Y0093850D01*
X0149394Y0093150D01*
X0148100Y0091856D01*
X0147400Y0090165D01*
X0147400Y0088335D01*
X0148100Y0086644D01*
X0149394Y0085350D01*
X0151085Y0084650D01*
X0152915Y0084650D01*
X0154606Y0085350D01*
X0155900Y0086644D01*
X0156600Y0088335D01*
X0156600Y0090165D01*
X0156183Y0091171D01*
X0157663Y0092650D01*
X0158600Y0093587D01*
X0158600Y0099074D01*
X0158747Y0099135D01*
X0159615Y0100003D01*
X0160084Y0101136D01*
X0160084Y0102363D01*
X0159615Y0103497D01*
X0158747Y0104365D01*
X0157613Y0104834D01*
X0156386Y0104834D01*
X0155253Y0104365D01*
X0154486Y0103598D02*
X0103600Y0103598D01*
X0103600Y0102600D02*
X0154014Y0102600D01*
X0153916Y0101601D02*
X0149011Y0101601D01*
X0148747Y0101865D02*
X0147613Y0102334D01*
X0146386Y0102334D01*
X0145253Y0101865D01*
X0144385Y0100997D01*
X0143916Y0099863D01*
X0143916Y0098636D01*
X0144385Y0097503D01*
X0145253Y0096635D01*
X0145400Y0096574D01*
X0145400Y0094913D01*
X0143921Y0093433D01*
X0142915Y0093850D01*
X0141085Y0093850D01*
X0139394Y0093150D01*
X0138100Y0091856D01*
X0137400Y0090165D01*
X0137400Y0088335D01*
X0138100Y0086644D01*
X0139394Y0085350D01*
X0141085Y0084650D01*
X0142915Y0084650D01*
X0144606Y0085350D01*
X0145900Y0086644D01*
X0146600Y0088335D01*
X0146600Y0090165D01*
X0146183Y0091171D01*
X0147663Y0092650D01*
X0148600Y0093587D01*
X0148600Y0096574D01*
X0148747Y0096635D01*
X0149615Y0097503D01*
X0150084Y0098636D01*
X0150084Y0099863D01*
X0149615Y0100997D01*
X0148747Y0101865D01*
X0149778Y0100603D02*
X0154137Y0100603D01*
X0154784Y0099604D02*
X0150084Y0099604D01*
X0150071Y0098606D02*
X0155400Y0098606D01*
X0155400Y0097607D02*
X0149658Y0097607D01*
X0148683Y0096609D02*
X0155400Y0096609D01*
X0155400Y0095610D02*
X0148600Y0095610D01*
X0148600Y0094612D02*
X0155099Y0094612D01*
X0154100Y0093613D02*
X0153487Y0093613D01*
X0150513Y0093613D02*
X0148600Y0093613D01*
X0148859Y0092615D02*
X0147627Y0092615D01*
X0148001Y0091616D02*
X0146629Y0091616D01*
X0146413Y0090618D02*
X0147587Y0090618D01*
X0147400Y0089619D02*
X0146600Y0089619D01*
X0146600Y0088620D02*
X0147400Y0088620D01*
X0147695Y0087622D02*
X0146305Y0087622D01*
X0145879Y0086623D02*
X0148121Y0086623D01*
X0149120Y0085625D02*
X0144880Y0085625D01*
X0139120Y0085625D02*
X0134880Y0085625D01*
X0134606Y0085350D02*
X0135900Y0086644D01*
X0136600Y0088335D01*
X0136600Y0090165D01*
X0136183Y0091171D01*
X0137663Y0092650D01*
X0138600Y0093587D01*
X0138600Y0094074D01*
X0138747Y0094135D01*
X0139615Y0095003D01*
X0140084Y0096136D01*
X0140084Y0097363D01*
X0139615Y0098497D01*
X0138747Y0099365D01*
X0137613Y0099834D01*
X0136386Y0099834D01*
X0135253Y0099365D01*
X0134385Y0098497D01*
X0133916Y0097363D01*
X0133916Y0096136D01*
X0134385Y0095003D01*
X0134938Y0094450D01*
X0133921Y0093433D01*
X0132915Y0093850D01*
X0131085Y0093850D01*
X0129394Y0093150D01*
X0128100Y0091856D01*
X0127400Y0090165D01*
X0127400Y0088335D01*
X0128100Y0086644D01*
X0129394Y0085350D01*
X0130400Y0084934D01*
X0130400Y0071926D01*
X0130253Y0071865D01*
X0129385Y0070997D01*
X0128916Y0069863D01*
X0128916Y0068636D01*
X0129385Y0067503D01*
X0130253Y0066635D01*
X0131386Y0066166D01*
X0132613Y0066166D01*
X0133747Y0066635D01*
X0134615Y0067503D01*
X0135084Y0068636D01*
X0135084Y0069863D01*
X0134615Y0070997D01*
X0133747Y0071865D01*
X0133600Y0071926D01*
X0133600Y0084934D01*
X0134606Y0085350D01*
X0133600Y0084626D02*
X0165114Y0084626D01*
X0164880Y0085625D02*
X0166112Y0085625D01*
X0165879Y0086623D02*
X0167111Y0086623D01*
X0167817Y0087329D02*
X0158837Y0078350D01*
X0157900Y0077413D01*
X0157900Y0050676D01*
X0157753Y0050615D01*
X0156885Y0049747D01*
X0156416Y0048613D01*
X0156416Y0047386D01*
X0156885Y0046253D01*
X0157753Y0045385D01*
X0158886Y0044916D01*
X0160113Y0044916D01*
X0161247Y0045385D01*
X0162115Y0046253D01*
X0162584Y0047386D01*
X0162584Y0048613D01*
X0162115Y0049747D01*
X0161247Y0050615D01*
X0161100Y0050676D01*
X0161100Y0076087D01*
X0170079Y0085067D01*
X0171085Y0084650D01*
X0172915Y0084650D01*
X0174606Y0085350D01*
X0175900Y0086644D01*
X0176600Y0088335D01*
X0176600Y0090165D01*
X0175900Y0091856D01*
X0174606Y0093150D01*
X0172915Y0093850D01*
X0171085Y0093850D01*
X0169394Y0093150D01*
X0168100Y0091856D01*
X0167400Y0090165D01*
X0167400Y0088335D01*
X0167817Y0087329D01*
X0167695Y0087622D02*
X0166305Y0087622D01*
X0166600Y0088620D02*
X0167400Y0088620D01*
X0167400Y0089619D02*
X0166600Y0089619D01*
X0166413Y0090618D02*
X0167587Y0090618D01*
X0168001Y0091616D02*
X0166629Y0091616D01*
X0167627Y0092615D02*
X0168859Y0092615D01*
X0168600Y0093613D02*
X0170513Y0093613D01*
X0168600Y0094612D02*
X0185099Y0094612D01*
X0185400Y0095610D02*
X0168600Y0095610D01*
X0168600Y0096609D02*
X0185400Y0096609D01*
X0185400Y0097607D02*
X0168600Y0097607D01*
X0168600Y0098606D02*
X0185400Y0098606D01*
X0185400Y0099604D02*
X0168600Y0099604D01*
X0168600Y0100603D02*
X0185400Y0100603D01*
X0185400Y0101601D02*
X0168665Y0101601D01*
X0169655Y0102600D02*
X0185400Y0102600D01*
X0185400Y0103598D02*
X0170068Y0103598D01*
X0170084Y0104597D02*
X0184792Y0104597D01*
X0184140Y0105595D02*
X0169781Y0105595D01*
X0169018Y0106594D02*
X0183916Y0106594D01*
X0187000Y0106750D02*
X0187000Y0094250D01*
X0182000Y0089250D01*
X0177695Y0087622D02*
X0176305Y0087622D01*
X0176600Y0088620D02*
X0177400Y0088620D01*
X0177400Y0089619D02*
X0176600Y0089619D01*
X0176413Y0090618D02*
X0177587Y0090618D01*
X0178001Y0091616D02*
X0175999Y0091616D01*
X0175141Y0092615D02*
X0178859Y0092615D01*
X0180513Y0093613D02*
X0173487Y0093613D01*
X0167000Y0094250D02*
X0167000Y0104250D01*
X0163916Y0104597D02*
X0158187Y0104597D01*
X0159514Y0103598D02*
X0163932Y0103598D01*
X0164345Y0102600D02*
X0159986Y0102600D01*
X0160084Y0101601D02*
X0165335Y0101601D01*
X0165400Y0100603D02*
X0159863Y0100603D01*
X0159216Y0099604D02*
X0165400Y0099604D01*
X0165400Y0098606D02*
X0158600Y0098606D01*
X0158600Y0097607D02*
X0165400Y0097607D01*
X0165400Y0096609D02*
X0158600Y0096609D01*
X0158600Y0095610D02*
X0165400Y0095610D01*
X0165099Y0094612D02*
X0158600Y0094612D01*
X0158600Y0093613D02*
X0160513Y0093613D01*
X0158859Y0092615D02*
X0157627Y0092615D01*
X0158001Y0091616D02*
X0156629Y0091616D01*
X0156413Y0090618D02*
X0157587Y0090618D01*
X0157400Y0089619D02*
X0156600Y0089619D01*
X0156600Y0088620D02*
X0157400Y0088620D01*
X0157695Y0087622D02*
X0156305Y0087622D01*
X0155879Y0086623D02*
X0158121Y0086623D01*
X0159120Y0085625D02*
X0154880Y0085625D01*
X0164115Y0083628D02*
X0133600Y0083628D01*
X0133600Y0082629D02*
X0163117Y0082629D01*
X0162118Y0081631D02*
X0133600Y0081631D01*
X0133600Y0080632D02*
X0161120Y0080632D01*
X0160121Y0079634D02*
X0133600Y0079634D01*
X0133600Y0078635D02*
X0159123Y0078635D01*
X0158124Y0077637D02*
X0133600Y0077637D01*
X0133600Y0076638D02*
X0157900Y0076638D01*
X0157900Y0075640D02*
X0133600Y0075640D01*
X0133600Y0074641D02*
X0157900Y0074641D01*
X0157900Y0073643D02*
X0133600Y0073643D01*
X0133600Y0072644D02*
X0157900Y0072644D01*
X0157900Y0071646D02*
X0133966Y0071646D01*
X0134760Y0070647D02*
X0157900Y0070647D01*
X0157900Y0069649D02*
X0135084Y0069649D01*
X0135084Y0068650D02*
X0157900Y0068650D01*
X0157900Y0067652D02*
X0134676Y0067652D01*
X0133765Y0066653D02*
X0157900Y0066653D01*
X0157900Y0065655D02*
X0123600Y0065655D01*
X0123600Y0066653D02*
X0130235Y0066653D01*
X0129324Y0067652D02*
X0123600Y0067652D01*
X0123600Y0068650D02*
X0128916Y0068650D01*
X0128916Y0069649D02*
X0123600Y0069649D01*
X0123600Y0070647D02*
X0129240Y0070647D01*
X0130034Y0071646D02*
X0123600Y0071646D01*
X0123600Y0072644D02*
X0130400Y0072644D01*
X0130400Y0073643D02*
X0123600Y0073643D01*
X0123600Y0074641D02*
X0130400Y0074641D01*
X0130400Y0075640D02*
X0123600Y0075640D01*
X0123600Y0076638D02*
X0130400Y0076638D01*
X0130400Y0077637D02*
X0123600Y0077637D01*
X0123600Y0078635D02*
X0130400Y0078635D01*
X0130400Y0079634D02*
X0123600Y0079634D01*
X0123600Y0080632D02*
X0130400Y0080632D01*
X0130400Y0081631D02*
X0123600Y0081631D01*
X0123600Y0082629D02*
X0130400Y0082629D01*
X0130400Y0083628D02*
X0123600Y0083628D01*
X0123600Y0084626D02*
X0130400Y0084626D01*
X0129120Y0085625D02*
X0124880Y0085625D01*
X0124606Y0085350D02*
X0125900Y0086644D01*
X0126600Y0088335D01*
X0126600Y0090165D01*
X0125900Y0091856D01*
X0124606Y0093150D01*
X0122915Y0093850D01*
X0121085Y0093850D01*
X0119394Y0093150D01*
X0118100Y0091856D01*
X0117400Y0090165D01*
X0117400Y0088335D01*
X0118100Y0086644D01*
X0119394Y0085350D01*
X0120400Y0084934D01*
X0120400Y0053176D01*
X0120253Y0053115D01*
X0119385Y0052247D01*
X0118916Y0051113D01*
X0118916Y0049886D01*
X0119385Y0048753D01*
X0120253Y0047885D01*
X0121386Y0047416D01*
X0122613Y0047416D01*
X0123747Y0047885D01*
X0124615Y0048753D01*
X0125084Y0049886D01*
X0125084Y0051113D01*
X0124615Y0052247D01*
X0123747Y0053115D01*
X0123600Y0053176D01*
X0123600Y0084934D01*
X0124606Y0085350D01*
X0125879Y0086623D02*
X0128121Y0086623D01*
X0127695Y0087622D02*
X0126305Y0087622D01*
X0126600Y0088620D02*
X0127400Y0088620D01*
X0127400Y0089619D02*
X0126600Y0089619D01*
X0126413Y0090618D02*
X0127587Y0090618D01*
X0128001Y0091616D02*
X0125999Y0091616D01*
X0125141Y0092615D02*
X0128859Y0092615D01*
X0130513Y0093613D02*
X0123487Y0093613D01*
X0120513Y0093613D02*
X0113487Y0093613D01*
X0112915Y0093850D02*
X0114606Y0093150D01*
X0115900Y0091856D01*
X0116600Y0090165D01*
X0116600Y0088335D01*
X0115900Y0086644D01*
X0114606Y0085350D01*
X0113600Y0084934D01*
X0113600Y0068176D01*
X0113747Y0068115D01*
X0114615Y0067247D01*
X0115084Y0066113D01*
X0115084Y0064886D01*
X0114615Y0063753D01*
X0113747Y0062885D01*
X0112613Y0062416D01*
X0111386Y0062416D01*
X0110253Y0062885D01*
X0109385Y0063753D01*
X0108916Y0064886D01*
X0108916Y0066113D01*
X0109385Y0067247D01*
X0110253Y0068115D01*
X0110400Y0068176D01*
X0110400Y0084934D01*
X0109394Y0085350D01*
X0108100Y0086644D01*
X0107400Y0088335D01*
X0107400Y0090165D01*
X0108100Y0091856D01*
X0109394Y0093150D01*
X0111085Y0093850D01*
X0112915Y0093850D01*
X0110513Y0093613D02*
X0103600Y0093613D01*
X0103600Y0092615D02*
X0108859Y0092615D01*
X0108001Y0091616D02*
X0103996Y0091616D01*
X0103747Y0091865D02*
X0103600Y0091926D01*
X0103600Y0111163D01*
X0098913Y0115850D01*
X0056337Y0115850D01*
X0055400Y0114913D01*
X0054074Y0113586D01*
X0052955Y0114050D01*
X0051045Y0114050D01*
X0049281Y0113319D01*
X0047931Y0111969D01*
X0047200Y0110205D01*
X0047200Y0108295D01*
X0047931Y0106531D01*
X0049281Y0105181D01*
X0050683Y0104600D01*
X0043869Y0104600D01*
X0043919Y0104616D01*
X0044621Y0104974D01*
X0045257Y0105436D01*
X0045814Y0105993D01*
X0046276Y0106629D01*
X0046634Y0107331D01*
X0046877Y0108079D01*
X0046986Y0108766D01*
X0042484Y0108766D01*
X0042484Y0109734D01*
X0041516Y0109734D01*
X0041516Y0108766D01*
X0037014Y0108766D01*
X0037123Y0108079D01*
X0037366Y0107331D01*
X0037724Y0106629D01*
X0038186Y0105993D01*
X0038743Y0105436D01*
X0039379Y0104974D01*
X0040081Y0104616D01*
X0040131Y0104600D01*
X0033317Y0104600D01*
X0034719Y0105181D01*
X0036069Y0106531D01*
X0036800Y0108295D01*
X0036800Y0110205D01*
X0036069Y0111969D01*
X0034719Y0113319D01*
X0032955Y0114050D01*
X0031045Y0114050D01*
X0029281Y0113319D01*
X0027931Y0111969D01*
X0027200Y0110205D01*
X0027200Y0108295D01*
X0027931Y0106531D01*
X0028725Y0105737D01*
X0016337Y0093350D01*
X0015400Y0092413D01*
X0015400Y0092355D01*
X0014606Y0093150D01*
X0012915Y0093850D01*
X0011085Y0093850D01*
X0009394Y0093150D01*
X0008100Y0091856D01*
X0007400Y0090165D01*
X0007400Y0088335D01*
X0008100Y0086644D01*
X0009394Y0085350D01*
X0010400Y0084934D01*
X0010400Y0054837D01*
X0011337Y0053900D01*
X0015227Y0050011D01*
X0015166Y0049863D01*
X0015166Y0048636D01*
X0015635Y0047503D01*
X0016503Y0046635D01*
X0017636Y0046166D01*
X0018863Y0046166D01*
X0019997Y0046635D01*
X0020865Y0047503D01*
X0021334Y0048636D01*
X0021334Y0049863D01*
X0020865Y0050997D01*
X0019997Y0051865D01*
X0018863Y0052334D01*
X0017636Y0052334D01*
X0017489Y0052273D01*
X0013600Y0056163D01*
X0013600Y0084934D01*
X0014606Y0085350D01*
X0015400Y0086145D01*
X0015400Y0081926D01*
X0015253Y0081865D01*
X0014385Y0080997D01*
X0013916Y0079863D01*
X0013916Y0078636D01*
X0014385Y0077503D01*
X0015253Y0076635D01*
X0016386Y0076166D01*
X0017613Y0076166D01*
X0018747Y0076635D01*
X0019615Y0077503D01*
X0020084Y0078636D01*
X0020084Y0079863D01*
X0019615Y0080997D01*
X0018747Y0081865D01*
X0018600Y0081926D01*
X0018600Y0086145D01*
X0019394Y0085350D01*
X0020400Y0084934D01*
X0020400Y0066087D01*
X0030400Y0056087D01*
X0031337Y0055150D01*
X0061824Y0055150D01*
X0061885Y0055003D01*
X0062753Y0054135D01*
X0063886Y0053666D01*
X0065113Y0053666D01*
X0066247Y0054135D01*
X0067115Y0055003D01*
X0067584Y0056136D01*
X0067584Y0057363D01*
X0067115Y0058497D01*
X0066247Y0059365D01*
X0065113Y0059834D01*
X0063886Y0059834D01*
X0062753Y0059365D01*
X0061885Y0058497D01*
X0061824Y0058350D01*
X0032663Y0058350D01*
X0023600Y0067413D01*
X0023600Y0084934D01*
X0024606Y0085350D01*
X0025400Y0086145D01*
X0025400Y0076926D01*
X0025253Y0076865D01*
X0024385Y0075997D01*
X0023916Y0074863D01*
X0023916Y0073636D01*
X0024385Y0072503D01*
X0025253Y0071635D01*
X0026386Y0071166D01*
X0027613Y0071166D01*
X0028747Y0071635D01*
X0029615Y0072503D01*
X0030084Y0073636D01*
X0030084Y0074863D01*
X0029615Y0075997D01*
X0028747Y0076865D01*
X0028600Y0076926D01*
X0028600Y0086145D01*
X0029394Y0085350D01*
X0030400Y0084934D01*
X0030400Y0069426D01*
X0030253Y0069365D01*
X0029385Y0068497D01*
X0028916Y0067363D01*
X0028916Y0066136D01*
X0029385Y0065003D01*
X0030253Y0064135D01*
X0031386Y0063666D01*
X0032613Y0063666D01*
X0033747Y0064135D01*
X0034615Y0065003D01*
X0035084Y0066136D01*
X0035084Y0067363D01*
X0034615Y0068497D01*
X0033747Y0069365D01*
X0033600Y0069426D01*
X0033600Y0084934D01*
X0034606Y0085350D01*
X0035900Y0086644D01*
X0036600Y0088335D01*
X0036600Y0090165D01*
X0036183Y0091171D01*
X0037663Y0092650D01*
X0038600Y0093587D01*
X0038600Y0094074D01*
X0038747Y0094135D01*
X0039615Y0095003D01*
X0040084Y0096136D01*
X0040084Y0097363D01*
X0039615Y0098497D01*
X0038747Y0099365D01*
X0037613Y0099834D01*
X0036386Y0099834D01*
X0035253Y0099365D01*
X0034385Y0098497D01*
X0033916Y0097363D01*
X0033916Y0096136D01*
X0034385Y0095003D01*
X0034938Y0094450D01*
X0033921Y0093433D01*
X0032915Y0093850D01*
X0031085Y0093850D01*
X0029394Y0093150D01*
X0028600Y0092355D01*
X0028600Y0096087D01*
X0033913Y0101400D01*
X0044788Y0101400D01*
X0044385Y0100997D01*
X0043916Y0099863D01*
X0043916Y0098636D01*
X0044385Y0097503D01*
X0045253Y0096635D01*
X0045400Y0096574D01*
X0045400Y0094913D01*
X0043921Y0093433D01*
X0042915Y0093850D01*
X0041085Y0093850D01*
X0039394Y0093150D01*
X0038100Y0091856D01*
X0037400Y0090165D01*
X0037400Y0088335D01*
X0038100Y0086644D01*
X0039394Y0085350D01*
X0041085Y0084650D01*
X0042915Y0084650D01*
X0044606Y0085350D01*
X0045900Y0086644D01*
X0046600Y0088335D01*
X0046600Y0090165D01*
X0046183Y0091171D01*
X0047663Y0092650D01*
X0048600Y0093587D01*
X0048600Y0096574D01*
X0048747Y0096635D01*
X0049615Y0097503D01*
X0050084Y0098636D01*
X0050084Y0099863D01*
X0049615Y0100997D01*
X0049212Y0101400D01*
X0053913Y0101400D01*
X0053916Y0101403D01*
X0053916Y0101136D01*
X0054385Y0100003D01*
X0055253Y0099135D01*
X0055400Y0099074D01*
X0055400Y0094913D01*
X0053921Y0093433D01*
X0052915Y0093850D01*
X0051085Y0093850D01*
X0049394Y0093150D01*
X0048100Y0091856D01*
X0047400Y0090165D01*
X0047400Y0088335D01*
X0048100Y0086644D01*
X0049394Y0085350D01*
X0051085Y0084650D01*
X0052915Y0084650D01*
X0054606Y0085350D01*
X0055900Y0086644D01*
X0056600Y0088335D01*
X0056600Y0090165D01*
X0056183Y0091171D01*
X0057663Y0092650D01*
X0058600Y0093587D01*
X0058600Y0099074D01*
X0058747Y0099135D01*
X0059615Y0100003D01*
X0060084Y0101136D01*
X0060084Y0102363D01*
X0059615Y0103497D01*
X0058747Y0104365D01*
X0057613Y0104834D01*
X0057347Y0104834D01*
X0058487Y0105975D01*
X0059281Y0105181D01*
X0061045Y0104450D01*
X0062955Y0104450D01*
X0063916Y0104848D01*
X0063916Y0103636D01*
X0064385Y0102503D01*
X0065253Y0101635D01*
X0065400Y0101574D01*
X0065400Y0094913D01*
X0063921Y0093433D01*
X0062915Y0093850D01*
X0061085Y0093850D01*
X0059394Y0093150D01*
X0058100Y0091856D01*
X0057400Y0090165D01*
X0057400Y0088335D01*
X0058100Y0086644D01*
X0059394Y0085350D01*
X0061085Y0084650D01*
X0062915Y0084650D01*
X0064606Y0085350D01*
X0065900Y0086644D01*
X0066600Y0088335D01*
X0066600Y0090165D01*
X0066183Y0091171D01*
X0067663Y0092650D01*
X0068600Y0093587D01*
X0068600Y0101574D01*
X0068747Y0101635D01*
X0069615Y0102503D01*
X0070084Y0103636D01*
X0070084Y0104863D01*
X0069615Y0105997D01*
X0068747Y0106865D01*
X0067613Y0107334D01*
X0066402Y0107334D01*
X0066800Y0108295D01*
X0066800Y0110205D01*
X0066069Y0111969D01*
X0065388Y0112650D01*
X0097587Y0112650D01*
X0098108Y0112130D01*
X0097613Y0112334D01*
X0096386Y0112334D01*
X0095253Y0111865D01*
X0094385Y0110997D01*
X0093916Y0109863D01*
X0093916Y0108636D01*
X0094385Y0107503D01*
X0095253Y0106635D01*
X0095400Y0106574D01*
X0095400Y0094913D01*
X0093921Y0093433D01*
X0092915Y0093850D01*
X0091085Y0093850D01*
X0089394Y0093150D01*
X0088100Y0091856D01*
X0087400Y0090165D01*
X0087400Y0088335D01*
X0088100Y0086644D01*
X0089394Y0085350D01*
X0091085Y0084650D01*
X0092915Y0084650D01*
X0094606Y0085350D01*
X0095900Y0086644D01*
X0096600Y0088335D01*
X0096600Y0090165D01*
X0096183Y0091171D01*
X0097663Y0092650D01*
X0098600Y0093587D01*
X0098600Y0106574D01*
X0098747Y0106635D01*
X0099615Y0107503D01*
X0100084Y0108636D01*
X0100084Y0109863D01*
X0099880Y0110358D01*
X0100400Y0109837D01*
X0100400Y0091926D01*
X0100253Y0091865D01*
X0099385Y0090997D01*
X0098916Y0089863D01*
X0098916Y0088636D01*
X0099385Y0087503D01*
X0100253Y0086635D01*
X0101386Y0086166D01*
X0102613Y0086166D01*
X0103747Y0086635D01*
X0104615Y0087503D01*
X0105084Y0088636D01*
X0105084Y0089863D01*
X0104615Y0090997D01*
X0103747Y0091865D01*
X0104772Y0090618D02*
X0107587Y0090618D01*
X0107400Y0089619D02*
X0105084Y0089619D01*
X0105078Y0088620D02*
X0107400Y0088620D01*
X0107695Y0087622D02*
X0104664Y0087622D01*
X0103719Y0086623D02*
X0108121Y0086623D01*
X0109120Y0085625D02*
X0094880Y0085625D01*
X0095879Y0086623D02*
X0100281Y0086623D01*
X0099336Y0087622D02*
X0096305Y0087622D01*
X0096600Y0088620D02*
X0098922Y0088620D01*
X0098916Y0089619D02*
X0096600Y0089619D01*
X0096413Y0090618D02*
X0099228Y0090618D01*
X0100004Y0091616D02*
X0096629Y0091616D01*
X0097627Y0092615D02*
X0100400Y0092615D01*
X0100400Y0093613D02*
X0098600Y0093613D01*
X0098600Y0094612D02*
X0100400Y0094612D01*
X0100400Y0095610D02*
X0098600Y0095610D01*
X0098600Y0096609D02*
X0100400Y0096609D01*
X0100400Y0097607D02*
X0098600Y0097607D01*
X0098600Y0098606D02*
X0100400Y0098606D01*
X0100400Y0099604D02*
X0098600Y0099604D01*
X0098600Y0100603D02*
X0100400Y0100603D01*
X0100400Y0101601D02*
X0098600Y0101601D01*
X0098600Y0102600D02*
X0100400Y0102600D01*
X0100400Y0103598D02*
X0098600Y0103598D01*
X0098600Y0104597D02*
X0100400Y0104597D01*
X0100400Y0105595D02*
X0098600Y0105595D01*
X0098647Y0106594D02*
X0100400Y0106594D01*
X0100400Y0107592D02*
X0099652Y0107592D01*
X0100065Y0108591D02*
X0100400Y0108591D01*
X0100400Y0109589D02*
X0100084Y0109589D01*
X0102000Y0110500D02*
X0098250Y0114250D01*
X0057000Y0114250D01*
X0052000Y0109250D01*
X0047200Y0109589D02*
X0042484Y0109589D01*
X0042484Y0109734D02*
X0046986Y0109734D01*
X0046877Y0110421D01*
X0046634Y0111169D01*
X0046276Y0111871D01*
X0045814Y0112507D01*
X0045257Y0113064D01*
X0044621Y0113526D01*
X0043919Y0113884D01*
X0043171Y0114127D01*
X0042484Y0114236D01*
X0042484Y0109734D01*
X0042484Y0110588D02*
X0041516Y0110588D01*
X0041516Y0109734D02*
X0041516Y0114236D01*
X0040829Y0114127D01*
X0040081Y0113884D01*
X0039379Y0113526D01*
X0038743Y0113064D01*
X0038186Y0112507D01*
X0037724Y0111871D01*
X0037366Y0111169D01*
X0037123Y0110421D01*
X0037014Y0109734D01*
X0041516Y0109734D01*
X0041516Y0109589D02*
X0036800Y0109589D01*
X0036800Y0108591D02*
X0037042Y0108591D01*
X0037281Y0107592D02*
X0036509Y0107592D01*
X0036095Y0106594D02*
X0037750Y0106594D01*
X0038584Y0105595D02*
X0035133Y0105595D01*
X0032000Y0106750D02*
X0017000Y0091750D01*
X0017000Y0079250D01*
X0020084Y0079634D02*
X0020400Y0079634D01*
X0020400Y0080632D02*
X0019766Y0080632D01*
X0020400Y0081631D02*
X0018981Y0081631D01*
X0018600Y0082629D02*
X0020400Y0082629D01*
X0020400Y0083628D02*
X0018600Y0083628D01*
X0018600Y0084626D02*
X0020400Y0084626D01*
X0019120Y0085625D02*
X0018600Y0085625D01*
X0015400Y0085625D02*
X0014880Y0085625D01*
X0015400Y0084626D02*
X0013600Y0084626D01*
X0013600Y0083628D02*
X0015400Y0083628D01*
X0015400Y0082629D02*
X0013600Y0082629D01*
X0013600Y0081631D02*
X0015019Y0081631D01*
X0014234Y0080632D02*
X0013600Y0080632D01*
X0013600Y0079634D02*
X0013916Y0079634D01*
X0013916Y0078635D02*
X0013600Y0078635D01*
X0013600Y0077637D02*
X0014330Y0077637D01*
X0013600Y0076638D02*
X0015250Y0076638D01*
X0013600Y0075640D02*
X0020400Y0075640D01*
X0020400Y0076638D02*
X0018750Y0076638D01*
X0019670Y0077637D02*
X0020400Y0077637D01*
X0020400Y0078635D02*
X0020084Y0078635D01*
X0023600Y0078635D02*
X0025400Y0078635D01*
X0025400Y0077637D02*
X0023600Y0077637D01*
X0023600Y0076638D02*
X0025027Y0076638D01*
X0024237Y0075640D02*
X0023600Y0075640D01*
X0023600Y0074641D02*
X0023916Y0074641D01*
X0023916Y0073643D02*
X0023600Y0073643D01*
X0023600Y0072644D02*
X0024327Y0072644D01*
X0023600Y0071646D02*
X0025242Y0071646D01*
X0023600Y0070647D02*
X0030400Y0070647D01*
X0030400Y0069649D02*
X0023600Y0069649D01*
X0023600Y0068650D02*
X0029538Y0068650D01*
X0029035Y0067652D02*
X0023600Y0067652D01*
X0024359Y0066653D02*
X0028916Y0066653D01*
X0029115Y0065655D02*
X0025358Y0065655D01*
X0026357Y0064656D02*
X0029732Y0064656D01*
X0027355Y0063658D02*
X0070400Y0063658D01*
X0070400Y0064656D02*
X0034268Y0064656D01*
X0034885Y0065655D02*
X0070400Y0065655D01*
X0070400Y0066653D02*
X0035084Y0066653D01*
X0034965Y0067652D02*
X0070400Y0067652D01*
X0070400Y0068650D02*
X0034462Y0068650D01*
X0033600Y0069649D02*
X0070400Y0069649D01*
X0070400Y0070647D02*
X0033600Y0070647D01*
X0033600Y0071646D02*
X0070400Y0071646D01*
X0070400Y0072644D02*
X0033600Y0072644D01*
X0033600Y0073643D02*
X0070400Y0073643D01*
X0070400Y0074641D02*
X0033600Y0074641D01*
X0033600Y0075640D02*
X0070400Y0075640D01*
X0070400Y0076638D02*
X0033600Y0076638D01*
X0033600Y0077637D02*
X0070400Y0077637D01*
X0070400Y0078635D02*
X0033600Y0078635D01*
X0033600Y0079634D02*
X0070400Y0079634D01*
X0070400Y0080632D02*
X0033600Y0080632D01*
X0033600Y0081631D02*
X0070400Y0081631D01*
X0070400Y0082629D02*
X0033600Y0082629D01*
X0033600Y0083628D02*
X0070400Y0083628D01*
X0070400Y0084626D02*
X0033600Y0084626D01*
X0034880Y0085625D02*
X0039120Y0085625D01*
X0038121Y0086623D02*
X0035879Y0086623D01*
X0036305Y0087622D02*
X0037695Y0087622D01*
X0037400Y0088620D02*
X0036600Y0088620D01*
X0036600Y0089619D02*
X0037400Y0089619D01*
X0037587Y0090618D02*
X0036413Y0090618D01*
X0036629Y0091616D02*
X0038001Y0091616D01*
X0037627Y0092615D02*
X0038859Y0092615D01*
X0038600Y0093613D02*
X0040513Y0093613D01*
X0039223Y0094612D02*
X0045099Y0094612D01*
X0045400Y0095610D02*
X0039866Y0095610D01*
X0040084Y0096609D02*
X0045317Y0096609D01*
X0044342Y0097607D02*
X0039983Y0097607D01*
X0039506Y0098606D02*
X0043929Y0098606D01*
X0043916Y0099604D02*
X0038169Y0099604D01*
X0035831Y0099604D02*
X0032117Y0099604D01*
X0033115Y0100603D02*
X0044222Y0100603D01*
X0047000Y0099250D02*
X0047000Y0094250D01*
X0042000Y0089250D01*
X0046600Y0089619D02*
X0047400Y0089619D01*
X0047400Y0088620D02*
X0046600Y0088620D01*
X0046305Y0087622D02*
X0047695Y0087622D01*
X0048121Y0086623D02*
X0045879Y0086623D01*
X0044880Y0085625D02*
X0049120Y0085625D01*
X0054880Y0085625D02*
X0059120Y0085625D01*
X0058121Y0086623D02*
X0055879Y0086623D01*
X0056305Y0087622D02*
X0057695Y0087622D01*
X0057400Y0088620D02*
X0056600Y0088620D01*
X0056600Y0089619D02*
X0057400Y0089619D01*
X0057587Y0090618D02*
X0056413Y0090618D01*
X0056629Y0091616D02*
X0058001Y0091616D01*
X0057627Y0092615D02*
X0058859Y0092615D01*
X0058600Y0093613D02*
X0060513Y0093613D01*
X0058600Y0094612D02*
X0065099Y0094612D01*
X0065400Y0095610D02*
X0058600Y0095610D01*
X0058600Y0096609D02*
X0065400Y0096609D01*
X0065400Y0097607D02*
X0058600Y0097607D01*
X0058600Y0098606D02*
X0065400Y0098606D01*
X0065400Y0099604D02*
X0059216Y0099604D01*
X0059863Y0100603D02*
X0065400Y0100603D01*
X0065335Y0101601D02*
X0060084Y0101601D01*
X0059986Y0102600D02*
X0064345Y0102600D01*
X0063932Y0103598D02*
X0059514Y0103598D01*
X0060691Y0104597D02*
X0058187Y0104597D01*
X0058108Y0105595D02*
X0058867Y0105595D01*
X0063309Y0104597D02*
X0063916Y0104597D01*
X0067000Y0104250D02*
X0067000Y0094250D01*
X0062000Y0089250D01*
X0066600Y0089619D02*
X0067400Y0089619D01*
X0067400Y0090165D02*
X0067400Y0088335D01*
X0068100Y0086644D01*
X0069394Y0085350D01*
X0070400Y0084934D01*
X0070400Y0055676D01*
X0070253Y0055615D01*
X0069385Y0054747D01*
X0068916Y0053613D01*
X0068916Y0052386D01*
X0069385Y0051253D01*
X0070253Y0050385D01*
X0071386Y0049916D01*
X0072613Y0049916D01*
X0073747Y0050385D01*
X0074615Y0051253D01*
X0075084Y0052386D01*
X0075084Y0053613D01*
X0074615Y0054747D01*
X0073747Y0055615D01*
X0073600Y0055676D01*
X0073600Y0084934D01*
X0074606Y0085350D01*
X0075900Y0086644D01*
X0076600Y0088335D01*
X0076600Y0090165D01*
X0075900Y0091856D01*
X0074606Y0093150D01*
X0072915Y0093850D01*
X0071085Y0093850D01*
X0069394Y0093150D01*
X0068100Y0091856D01*
X0067400Y0090165D01*
X0067587Y0090618D02*
X0066413Y0090618D01*
X0066629Y0091616D02*
X0068001Y0091616D01*
X0067627Y0092615D02*
X0068859Y0092615D01*
X0068600Y0093613D02*
X0070513Y0093613D01*
X0068600Y0094612D02*
X0085099Y0094612D01*
X0085400Y0094913D02*
X0083921Y0093433D01*
X0082915Y0093850D01*
X0081085Y0093850D01*
X0079394Y0093150D01*
X0078100Y0091856D01*
X0077400Y0090165D01*
X0077400Y0088335D01*
X0078100Y0086644D01*
X0079394Y0085350D01*
X0081085Y0084650D01*
X0082915Y0084650D01*
X0084606Y0085350D01*
X0085900Y0086644D01*
X0086600Y0088335D01*
X0086600Y0090165D01*
X0086183Y0091171D01*
X0087663Y0092650D01*
X0088600Y0093587D01*
X0088600Y0104074D01*
X0088747Y0104135D01*
X0089615Y0105003D01*
X0090084Y0106136D01*
X0090084Y0107363D01*
X0089615Y0108497D01*
X0088747Y0109365D01*
X0087613Y0109834D01*
X0086386Y0109834D01*
X0085253Y0109365D01*
X0084385Y0108497D01*
X0083916Y0107363D01*
X0083916Y0106136D01*
X0084385Y0105003D01*
X0085253Y0104135D01*
X0085400Y0104074D01*
X0085400Y0094913D01*
X0085400Y0095610D02*
X0068600Y0095610D01*
X0068600Y0096609D02*
X0085400Y0096609D01*
X0085400Y0097607D02*
X0068600Y0097607D01*
X0068600Y0098606D02*
X0085400Y0098606D01*
X0085400Y0099604D02*
X0068600Y0099604D01*
X0068600Y0100603D02*
X0085400Y0100603D01*
X0085400Y0101601D02*
X0068665Y0101601D01*
X0069655Y0102600D02*
X0085400Y0102600D01*
X0085400Y0103598D02*
X0070068Y0103598D01*
X0070084Y0104597D02*
X0084792Y0104597D01*
X0084140Y0105595D02*
X0069781Y0105595D01*
X0069018Y0106594D02*
X0083916Y0106594D01*
X0084010Y0107592D02*
X0066509Y0107592D01*
X0066800Y0108591D02*
X0084479Y0108591D01*
X0085795Y0109589D02*
X0066800Y0109589D01*
X0066641Y0110588D02*
X0094216Y0110588D01*
X0093916Y0109589D02*
X0088205Y0109589D01*
X0089521Y0108591D02*
X0093935Y0108591D01*
X0094348Y0107592D02*
X0089990Y0107592D01*
X0090084Y0106594D02*
X0095353Y0106594D01*
X0095400Y0105595D02*
X0089860Y0105595D01*
X0089208Y0104597D02*
X0095400Y0104597D01*
X0095400Y0103598D02*
X0088600Y0103598D01*
X0088600Y0102600D02*
X0095400Y0102600D01*
X0095400Y0101601D02*
X0088600Y0101601D01*
X0088600Y0100603D02*
X0095400Y0100603D01*
X0095400Y0099604D02*
X0088600Y0099604D01*
X0088600Y0098606D02*
X0095400Y0098606D01*
X0095400Y0097607D02*
X0088600Y0097607D01*
X0088600Y0096609D02*
X0095400Y0096609D01*
X0095400Y0095610D02*
X0088600Y0095610D01*
X0088600Y0094612D02*
X0095099Y0094612D01*
X0094100Y0093613D02*
X0093487Y0093613D01*
X0090513Y0093613D02*
X0088600Y0093613D01*
X0088859Y0092615D02*
X0087627Y0092615D01*
X0088001Y0091616D02*
X0086629Y0091616D01*
X0086413Y0090618D02*
X0087587Y0090618D01*
X0087400Y0089619D02*
X0086600Y0089619D01*
X0086600Y0088620D02*
X0087400Y0088620D01*
X0087695Y0087622D02*
X0086305Y0087622D01*
X0085879Y0086623D02*
X0088121Y0086623D01*
X0089120Y0085625D02*
X0084880Y0085625D01*
X0079120Y0085625D02*
X0074880Y0085625D01*
X0075879Y0086623D02*
X0078121Y0086623D01*
X0077695Y0087622D02*
X0076305Y0087622D01*
X0076600Y0088620D02*
X0077400Y0088620D01*
X0077400Y0089619D02*
X0076600Y0089619D01*
X0076413Y0090618D02*
X0077587Y0090618D01*
X0078001Y0091616D02*
X0075999Y0091616D01*
X0075141Y0092615D02*
X0078859Y0092615D01*
X0080513Y0093613D02*
X0073487Y0093613D01*
X0083487Y0093613D02*
X0084100Y0093613D01*
X0087000Y0094250D02*
X0087000Y0106750D01*
X0097000Y0109250D02*
X0097000Y0094250D01*
X0092000Y0089250D01*
X0087000Y0094250D02*
X0082000Y0089250D01*
X0072000Y0089250D02*
X0072000Y0053000D01*
X0074790Y0051676D02*
X0119149Y0051676D01*
X0118916Y0050677D02*
X0074039Y0050677D01*
X0069961Y0050677D02*
X0020997Y0050677D01*
X0021334Y0049679D02*
X0119002Y0049679D01*
X0119458Y0048680D02*
X0021334Y0048680D01*
X0020939Y0047682D02*
X0120745Y0047682D01*
X0123255Y0047682D02*
X0156416Y0047682D01*
X0156443Y0048680D02*
X0124542Y0048680D01*
X0124998Y0049679D02*
X0156857Y0049679D01*
X0157900Y0050677D02*
X0125084Y0050677D01*
X0124851Y0051676D02*
X0157900Y0051676D01*
X0157900Y0052674D02*
X0124188Y0052674D01*
X0123600Y0053673D02*
X0157900Y0053673D01*
X0157900Y0054671D02*
X0123600Y0054671D01*
X0123600Y0055670D02*
X0157900Y0055670D01*
X0157900Y0056668D02*
X0123600Y0056668D01*
X0123600Y0057667D02*
X0157900Y0057667D01*
X0157900Y0058665D02*
X0123600Y0058665D01*
X0123600Y0059664D02*
X0157900Y0059664D01*
X0157900Y0060662D02*
X0123600Y0060662D01*
X0123600Y0061661D02*
X0157900Y0061661D01*
X0157900Y0062659D02*
X0123600Y0062659D01*
X0123600Y0063658D02*
X0157900Y0063658D01*
X0157900Y0064656D02*
X0123600Y0064656D01*
X0120400Y0064656D02*
X0114989Y0064656D01*
X0115084Y0065655D02*
X0120400Y0065655D01*
X0120400Y0066653D02*
X0114861Y0066653D01*
X0114210Y0067652D02*
X0120400Y0067652D01*
X0120400Y0068650D02*
X0113600Y0068650D01*
X0113600Y0069649D02*
X0120400Y0069649D01*
X0120400Y0070647D02*
X0113600Y0070647D01*
X0113600Y0071646D02*
X0120400Y0071646D01*
X0120400Y0072644D02*
X0113600Y0072644D01*
X0113600Y0073643D02*
X0120400Y0073643D01*
X0120400Y0074641D02*
X0113600Y0074641D01*
X0113600Y0075640D02*
X0120400Y0075640D01*
X0120400Y0076638D02*
X0113600Y0076638D01*
X0113600Y0077637D02*
X0120400Y0077637D01*
X0120400Y0078635D02*
X0113600Y0078635D01*
X0113600Y0079634D02*
X0120400Y0079634D01*
X0120400Y0080632D02*
X0113600Y0080632D01*
X0113600Y0081631D02*
X0120400Y0081631D01*
X0120400Y0082629D02*
X0113600Y0082629D01*
X0113600Y0083628D02*
X0120400Y0083628D01*
X0120400Y0084626D02*
X0113600Y0084626D01*
X0114880Y0085625D02*
X0119120Y0085625D01*
X0118121Y0086623D02*
X0115879Y0086623D01*
X0116305Y0087622D02*
X0117695Y0087622D01*
X0117400Y0088620D02*
X0116600Y0088620D01*
X0116600Y0089619D02*
X0117400Y0089619D01*
X0117587Y0090618D02*
X0116413Y0090618D01*
X0115999Y0091616D02*
X0118001Y0091616D01*
X0118859Y0092615D02*
X0115141Y0092615D01*
X0112000Y0089250D02*
X0112000Y0065500D01*
X0109139Y0066653D02*
X0073600Y0066653D01*
X0073600Y0065655D02*
X0108916Y0065655D01*
X0109011Y0064656D02*
X0073600Y0064656D01*
X0073600Y0063658D02*
X0109480Y0063658D01*
X0110799Y0062659D02*
X0073600Y0062659D01*
X0073600Y0061661D02*
X0120400Y0061661D01*
X0120400Y0062659D02*
X0113201Y0062659D01*
X0114519Y0063658D02*
X0120400Y0063658D01*
X0120400Y0060662D02*
X0073600Y0060662D01*
X0073600Y0059664D02*
X0120400Y0059664D01*
X0120400Y0058665D02*
X0073600Y0058665D01*
X0073600Y0057667D02*
X0120400Y0057667D01*
X0120400Y0056668D02*
X0073600Y0056668D01*
X0073614Y0055670D02*
X0120400Y0055670D01*
X0120400Y0054671D02*
X0074646Y0054671D01*
X0075060Y0053673D02*
X0120400Y0053673D01*
X0119812Y0052674D02*
X0075084Y0052674D01*
X0069210Y0051676D02*
X0020186Y0051676D01*
X0017089Y0052674D02*
X0068916Y0052674D01*
X0068940Y0053673D02*
X0065130Y0053673D01*
X0063870Y0053673D02*
X0016090Y0053673D01*
X0015092Y0054671D02*
X0062217Y0054671D01*
X0064500Y0056750D02*
X0032000Y0056750D01*
X0022000Y0066750D01*
X0022000Y0089250D01*
X0032000Y0089250D02*
X0032000Y0066750D01*
X0021831Y0064656D02*
X0013600Y0064656D01*
X0013600Y0063658D02*
X0022830Y0063658D01*
X0023828Y0062659D02*
X0013600Y0062659D01*
X0013600Y0061661D02*
X0024827Y0061661D01*
X0025825Y0060662D02*
X0013600Y0060662D01*
X0013600Y0059664D02*
X0026824Y0059664D01*
X0027822Y0058665D02*
X0013600Y0058665D01*
X0013600Y0057667D02*
X0028821Y0057667D01*
X0029819Y0056668D02*
X0013600Y0056668D01*
X0014093Y0055670D02*
X0030818Y0055670D01*
X0032348Y0058665D02*
X0062053Y0058665D01*
X0063475Y0059664D02*
X0031349Y0059664D01*
X0030351Y0060662D02*
X0070400Y0060662D01*
X0070400Y0059664D02*
X0065525Y0059664D01*
X0066947Y0058665D02*
X0070400Y0058665D01*
X0070400Y0057667D02*
X0067459Y0057667D01*
X0067584Y0056668D02*
X0070400Y0056668D01*
X0070386Y0055670D02*
X0067391Y0055670D01*
X0066783Y0054671D02*
X0069354Y0054671D01*
X0070400Y0061661D02*
X0029352Y0061661D01*
X0028354Y0062659D02*
X0070400Y0062659D01*
X0073600Y0067652D02*
X0109790Y0067652D01*
X0110400Y0068650D02*
X0073600Y0068650D01*
X0073600Y0069649D02*
X0110400Y0069649D01*
X0110400Y0070647D02*
X0073600Y0070647D01*
X0073600Y0071646D02*
X0110400Y0071646D01*
X0110400Y0072644D02*
X0073600Y0072644D01*
X0073600Y0073643D02*
X0110400Y0073643D01*
X0110400Y0074641D02*
X0073600Y0074641D01*
X0073600Y0075640D02*
X0110400Y0075640D01*
X0110400Y0076638D02*
X0073600Y0076638D01*
X0073600Y0077637D02*
X0110400Y0077637D01*
X0110400Y0078635D02*
X0073600Y0078635D01*
X0073600Y0079634D02*
X0110400Y0079634D01*
X0110400Y0080632D02*
X0073600Y0080632D01*
X0073600Y0081631D02*
X0110400Y0081631D01*
X0110400Y0082629D02*
X0073600Y0082629D01*
X0073600Y0083628D02*
X0110400Y0083628D01*
X0110400Y0084626D02*
X0073600Y0084626D01*
X0069120Y0085625D02*
X0064880Y0085625D01*
X0065879Y0086623D02*
X0068121Y0086623D01*
X0067695Y0087622D02*
X0066305Y0087622D01*
X0066600Y0088620D02*
X0067400Y0088620D01*
X0064100Y0093613D02*
X0063487Y0093613D01*
X0057000Y0094250D02*
X0057000Y0101750D01*
X0054137Y0100603D02*
X0049778Y0100603D01*
X0050084Y0099604D02*
X0054784Y0099604D01*
X0055400Y0098606D02*
X0050071Y0098606D01*
X0049658Y0097607D02*
X0055400Y0097607D01*
X0055400Y0096609D02*
X0048683Y0096609D01*
X0048600Y0095610D02*
X0055400Y0095610D01*
X0055099Y0094612D02*
X0048600Y0094612D01*
X0048600Y0093613D02*
X0050513Y0093613D01*
X0048859Y0092615D02*
X0047627Y0092615D01*
X0048001Y0091616D02*
X0046629Y0091616D01*
X0046413Y0090618D02*
X0047587Y0090618D01*
X0052000Y0089250D02*
X0057000Y0094250D01*
X0054100Y0093613D02*
X0053487Y0093613D01*
X0044100Y0093613D02*
X0043487Y0093613D01*
X0037000Y0094250D02*
X0037000Y0096750D01*
X0034134Y0095610D02*
X0028600Y0095610D01*
X0028600Y0094612D02*
X0034777Y0094612D01*
X0034100Y0093613D02*
X0033487Y0093613D01*
X0030513Y0093613D02*
X0028600Y0093613D01*
X0028600Y0092615D02*
X0028859Y0092615D01*
X0032000Y0089250D02*
X0037000Y0094250D01*
X0033916Y0096609D02*
X0029121Y0096609D01*
X0030120Y0097607D02*
X0034017Y0097607D01*
X0034494Y0098606D02*
X0031118Y0098606D01*
X0027000Y0096750D02*
X0027000Y0074250D01*
X0029763Y0075640D02*
X0030400Y0075640D01*
X0030400Y0076638D02*
X0028973Y0076638D01*
X0028600Y0077637D02*
X0030400Y0077637D01*
X0030400Y0078635D02*
X0028600Y0078635D01*
X0028600Y0079634D02*
X0030400Y0079634D01*
X0030400Y0080632D02*
X0028600Y0080632D01*
X0028600Y0081631D02*
X0030400Y0081631D01*
X0030400Y0082629D02*
X0028600Y0082629D01*
X0028600Y0083628D02*
X0030400Y0083628D01*
X0030400Y0084626D02*
X0028600Y0084626D01*
X0028600Y0085625D02*
X0029120Y0085625D01*
X0025400Y0085625D02*
X0024880Y0085625D01*
X0025400Y0084626D02*
X0023600Y0084626D01*
X0023600Y0083628D02*
X0025400Y0083628D01*
X0025400Y0082629D02*
X0023600Y0082629D01*
X0023600Y0081631D02*
X0025400Y0081631D01*
X0025400Y0080632D02*
X0023600Y0080632D01*
X0023600Y0079634D02*
X0025400Y0079634D01*
X0010400Y0079634D02*
X0007350Y0079634D01*
X0007350Y0080632D02*
X0010400Y0080632D01*
X0010400Y0081631D02*
X0007350Y0081631D01*
X0007350Y0082629D02*
X0010400Y0082629D01*
X0010400Y0083628D02*
X0007350Y0083628D01*
X0007350Y0084626D02*
X0010400Y0084626D01*
X0009120Y0085625D02*
X0007350Y0085625D01*
X0007350Y0086623D02*
X0008121Y0086623D01*
X0007695Y0087622D02*
X0007350Y0087622D01*
X0007350Y0088620D02*
X0007400Y0088620D01*
X0007400Y0089619D02*
X0007350Y0089619D01*
X0007350Y0090618D02*
X0007587Y0090618D01*
X0007350Y0091616D02*
X0008001Y0091616D01*
X0007350Y0092337D02*
X0019463Y0104450D01*
X0026038Y0104450D01*
X0026800Y0105212D01*
X0026800Y0113288D01*
X0026038Y0114050D01*
X0017962Y0114050D01*
X0017200Y0113288D01*
X0017200Y0106713D01*
X0004150Y0093663D01*
X0004150Y0073176D01*
X0004003Y0073115D01*
X0003135Y0072247D01*
X0002666Y0071113D01*
X0002666Y0069886D01*
X0003135Y0068753D01*
X0004003Y0067885D01*
X0005136Y0067416D01*
X0006363Y0067416D01*
X0007497Y0067885D01*
X0008365Y0068753D01*
X0008834Y0069886D01*
X0008834Y0071113D01*
X0008365Y0072247D01*
X0007497Y0073115D01*
X0007350Y0073176D01*
X0007350Y0092337D01*
X0007627Y0092615D02*
X0008859Y0092615D01*
X0008626Y0093613D02*
X0010513Y0093613D01*
X0009624Y0094612D02*
X0017599Y0094612D01*
X0018597Y0095610D02*
X0010623Y0095610D01*
X0011621Y0096609D02*
X0019596Y0096609D01*
X0020594Y0097607D02*
X0012620Y0097607D01*
X0013618Y0098606D02*
X0021593Y0098606D01*
X0022591Y0099604D02*
X0014617Y0099604D01*
X0015615Y0100603D02*
X0023590Y0100603D01*
X0024588Y0101601D02*
X0016614Y0101601D01*
X0017612Y0102600D02*
X0025587Y0102600D01*
X0026585Y0103598D02*
X0018611Y0103598D01*
X0015084Y0104597D02*
X0002600Y0104597D01*
X0002600Y0105595D02*
X0006739Y0105595D01*
X0006930Y0105404D02*
X0008598Y0104713D01*
X0010402Y0104713D01*
X0012070Y0105404D01*
X0013346Y0106680D01*
X0014037Y0108348D01*
X0014037Y0110152D01*
X0013346Y0111820D01*
X0012070Y0113096D01*
X0010402Y0113787D01*
X0008598Y0113787D01*
X0006930Y0113096D01*
X0005654Y0111820D01*
X0004963Y0110152D01*
X0004963Y0108348D01*
X0005654Y0106680D01*
X0006930Y0105404D01*
X0005740Y0106594D02*
X0002600Y0106594D01*
X0002666Y0107592D02*
X0005276Y0107592D01*
X0004963Y0108591D02*
X0002836Y0108591D01*
X0003160Y0109589D02*
X0004963Y0109589D01*
X0005143Y0110588D02*
X0003485Y0110588D01*
X0004038Y0111586D02*
X0005557Y0111586D01*
X0004763Y0112585D02*
X0006418Y0112585D01*
X0005610Y0113583D02*
X0008106Y0113583D01*
X0006984Y0114582D02*
X0055069Y0114582D01*
X0056068Y0115580D02*
X0009132Y0115580D01*
X0010894Y0113583D02*
X0017495Y0113583D01*
X0017200Y0112585D02*
X0012582Y0112585D01*
X0013443Y0111586D02*
X0017200Y0111586D01*
X0017200Y0110588D02*
X0013857Y0110588D01*
X0014037Y0109589D02*
X0017200Y0109589D01*
X0017200Y0108591D02*
X0014037Y0108591D01*
X0013724Y0107592D02*
X0017200Y0107592D01*
X0017081Y0106594D02*
X0013260Y0106594D01*
X0012261Y0105595D02*
X0016082Y0105595D01*
X0014085Y0103598D02*
X0002600Y0103598D01*
X0002600Y0102600D02*
X0013087Y0102600D01*
X0012088Y0101601D02*
X0002600Y0101601D01*
X0002600Y0100603D02*
X0011090Y0100603D01*
X0010091Y0099604D02*
X0002600Y0099604D01*
X0002600Y0098606D02*
X0009093Y0098606D01*
X0008094Y0097607D02*
X0002600Y0097607D01*
X0002600Y0096609D02*
X0007096Y0096609D01*
X0006097Y0095610D02*
X0002600Y0095610D01*
X0002600Y0094612D02*
X0005099Y0094612D01*
X0004150Y0093613D02*
X0002600Y0093613D01*
X0002600Y0092615D02*
X0004150Y0092615D01*
X0004150Y0091616D02*
X0002600Y0091616D01*
X0002600Y0090618D02*
X0004150Y0090618D01*
X0004150Y0089619D02*
X0002600Y0089619D01*
X0002600Y0088620D02*
X0004150Y0088620D01*
X0004150Y0087622D02*
X0002600Y0087622D01*
X0002600Y0086623D02*
X0004150Y0086623D01*
X0004150Y0085625D02*
X0002600Y0085625D01*
X0002600Y0084626D02*
X0004150Y0084626D01*
X0004150Y0083628D02*
X0002600Y0083628D01*
X0002600Y0082629D02*
X0004150Y0082629D01*
X0004150Y0081631D02*
X0002600Y0081631D01*
X0002600Y0080632D02*
X0004150Y0080632D01*
X0004150Y0079634D02*
X0002600Y0079634D01*
X0002600Y0078635D02*
X0004150Y0078635D01*
X0004150Y0077637D02*
X0002600Y0077637D01*
X0002600Y0076638D02*
X0004150Y0076638D01*
X0004150Y0075640D02*
X0002600Y0075640D01*
X0002600Y0074641D02*
X0004150Y0074641D01*
X0004150Y0073643D02*
X0002600Y0073643D01*
X0002600Y0072644D02*
X0003533Y0072644D01*
X0002886Y0071646D02*
X0002600Y0071646D01*
X0002600Y0070647D02*
X0002666Y0070647D01*
X0002600Y0069649D02*
X0002764Y0069649D01*
X0002600Y0068650D02*
X0003238Y0068650D01*
X0002600Y0067652D02*
X0004567Y0067652D01*
X0002600Y0066653D02*
X0010400Y0066653D01*
X0010400Y0065655D02*
X0002600Y0065655D01*
X0002600Y0064656D02*
X0010400Y0064656D01*
X0010400Y0063658D02*
X0002600Y0063658D01*
X0002600Y0062659D02*
X0010400Y0062659D01*
X0010400Y0061661D02*
X0002600Y0061661D01*
X0002600Y0060662D02*
X0010400Y0060662D01*
X0010400Y0059664D02*
X0002600Y0059664D01*
X0002600Y0058665D02*
X0010400Y0058665D01*
X0010400Y0057667D02*
X0002600Y0057667D01*
X0002600Y0056668D02*
X0010400Y0056668D01*
X0010400Y0055670D02*
X0002600Y0055670D01*
X0002600Y0054671D02*
X0010566Y0054671D01*
X0011565Y0053673D02*
X0002600Y0053673D01*
X0002600Y0052674D02*
X0012563Y0052674D01*
X0013562Y0051676D02*
X0002600Y0051676D01*
X0002600Y0050677D02*
X0014560Y0050677D01*
X0015166Y0049679D02*
X0002600Y0049679D01*
X0002600Y0048680D02*
X0015166Y0048680D01*
X0015561Y0047682D02*
X0002600Y0047682D01*
X0002600Y0046683D02*
X0016455Y0046683D01*
X0020045Y0046683D02*
X0156707Y0046683D01*
X0157454Y0045684D02*
X0002600Y0045684D01*
X0002600Y0044686D02*
X0171499Y0044686D01*
X0171416Y0045684D02*
X0161546Y0045684D01*
X0162293Y0046683D02*
X0171652Y0046683D01*
X0172320Y0047682D02*
X0162584Y0047682D01*
X0162557Y0048680D02*
X0172900Y0048680D01*
X0172900Y0049679D02*
X0162143Y0049679D01*
X0161100Y0050677D02*
X0172900Y0050677D01*
X0172900Y0051676D02*
X0161100Y0051676D01*
X0161100Y0052674D02*
X0172900Y0052674D01*
X0172900Y0053673D02*
X0161100Y0053673D01*
X0161100Y0054671D02*
X0172900Y0054671D01*
X0172900Y0055670D02*
X0161100Y0055670D01*
X0161100Y0056668D02*
X0172900Y0056668D01*
X0172900Y0057667D02*
X0161100Y0057667D01*
X0161100Y0058665D02*
X0171973Y0058665D01*
X0171508Y0059664D02*
X0161100Y0059664D01*
X0161100Y0060662D02*
X0171416Y0060662D01*
X0171642Y0061661D02*
X0161100Y0061661D01*
X0161100Y0062659D02*
X0172297Y0062659D01*
X0174500Y0060500D02*
X0174500Y0045500D01*
X0175773Y0042689D02*
X0178227Y0042689D01*
X0180773Y0042689D02*
X0183227Y0042689D01*
X0185773Y0042689D02*
X0188227Y0042689D01*
X0190773Y0042689D02*
X0202900Y0042689D01*
X0202900Y0043687D02*
X0192049Y0043687D01*
X0192501Y0044686D02*
X0202900Y0044686D01*
X0202900Y0045684D02*
X0192584Y0045684D01*
X0192348Y0046683D02*
X0202900Y0046683D01*
X0202900Y0047682D02*
X0191680Y0047682D01*
X0191200Y0048680D02*
X0202900Y0048680D01*
X0202900Y0049679D02*
X0191200Y0049679D01*
X0191200Y0050677D02*
X0202900Y0050677D01*
X0202900Y0051676D02*
X0191200Y0051676D01*
X0191200Y0052674D02*
X0202900Y0052674D01*
X0202900Y0053673D02*
X0191200Y0053673D01*
X0191200Y0054671D02*
X0202900Y0054671D01*
X0202900Y0055670D02*
X0191200Y0055670D01*
X0191200Y0056668D02*
X0202900Y0056668D01*
X0202900Y0057667D02*
X0191200Y0057667D01*
X0191200Y0058665D02*
X0202900Y0058665D01*
X0202900Y0059664D02*
X0191200Y0059664D01*
X0191200Y0060662D02*
X0202900Y0060662D01*
X0202900Y0061661D02*
X0191200Y0061661D01*
X0191200Y0062659D02*
X0202900Y0062659D01*
X0202900Y0063658D02*
X0191200Y0063658D01*
X0191200Y0064656D02*
X0202900Y0064656D01*
X0202900Y0065655D02*
X0191200Y0065655D01*
X0191200Y0066653D02*
X0202900Y0066653D01*
X0202900Y0067652D02*
X0191200Y0067652D01*
X0191200Y0068650D02*
X0202900Y0068650D01*
X0202900Y0069649D02*
X0191200Y0069649D01*
X0191200Y0070647D02*
X0202491Y0070647D01*
X0201723Y0071646D02*
X0191200Y0071646D01*
X0191200Y0072644D02*
X0201416Y0072644D01*
X0201428Y0073643D02*
X0191200Y0073643D01*
X0191200Y0074641D02*
X0201841Y0074641D01*
X0202814Y0075640D02*
X0191200Y0075640D01*
X0191793Y0076638D02*
X0214626Y0076638D01*
X0215624Y0077637D02*
X0192791Y0077637D01*
X0192000Y0079250D02*
X0212000Y0079250D01*
X0222000Y0089250D01*
X0217111Y0086623D02*
X0215879Y0086623D01*
X0216112Y0085625D02*
X0214880Y0085625D01*
X0215114Y0084626D02*
X0169639Y0084626D01*
X0168641Y0083628D02*
X0214115Y0083628D01*
X0213117Y0082629D02*
X0167642Y0082629D01*
X0166644Y0081631D02*
X0212118Y0081631D01*
X0214647Y0079634D02*
X0217621Y0079634D01*
X0216623Y0078635D02*
X0213648Y0078635D01*
X0215645Y0080632D02*
X0218620Y0080632D01*
X0219618Y0081631D02*
X0216644Y0081631D01*
X0217642Y0082629D02*
X0220617Y0082629D01*
X0222000Y0081750D02*
X0234500Y0081750D01*
X0244880Y0085625D02*
X0249120Y0085625D01*
X0249394Y0085350D02*
X0251085Y0084650D01*
X0252915Y0084650D01*
X0254606Y0085350D01*
X0255900Y0086644D01*
X0256600Y0088335D01*
X0256600Y0090165D01*
X0256183Y0091171D01*
X0257663Y0092650D01*
X0258600Y0093587D01*
X0258600Y0099074D01*
X0258747Y0099135D01*
X0259615Y0100003D01*
X0260084Y0101136D01*
X0260084Y0102363D01*
X0259615Y0103497D01*
X0258747Y0104365D01*
X0257613Y0104834D01*
X0256386Y0104834D01*
X0255253Y0104365D01*
X0254385Y0103497D01*
X0253916Y0102363D01*
X0253916Y0101136D01*
X0254385Y0100003D01*
X0255253Y0099135D01*
X0255400Y0099074D01*
X0255400Y0094913D01*
X0253921Y0093433D01*
X0252915Y0093850D01*
X0251085Y0093850D01*
X0249394Y0093150D01*
X0248100Y0091856D01*
X0247400Y0090165D01*
X0247400Y0088335D01*
X0248100Y0086644D01*
X0249394Y0085350D01*
X0248121Y0086623D02*
X0245879Y0086623D01*
X0246305Y0087622D02*
X0247695Y0087622D01*
X0247400Y0088620D02*
X0246600Y0088620D01*
X0246600Y0089619D02*
X0247400Y0089619D01*
X0247587Y0090618D02*
X0246413Y0090618D01*
X0246629Y0091616D02*
X0248001Y0091616D01*
X0247627Y0092615D02*
X0248859Y0092615D01*
X0248600Y0093613D02*
X0250513Y0093613D01*
X0248600Y0094612D02*
X0255099Y0094612D01*
X0255400Y0095610D02*
X0248600Y0095610D01*
X0248683Y0096609D02*
X0255400Y0096609D01*
X0255400Y0097607D02*
X0249658Y0097607D01*
X0250071Y0098606D02*
X0255400Y0098606D01*
X0254784Y0099604D02*
X0250084Y0099604D01*
X0249778Y0100603D02*
X0254137Y0100603D01*
X0253916Y0101601D02*
X0249011Y0101601D01*
X0254014Y0102600D02*
X0198600Y0102600D01*
X0198600Y0103598D02*
X0254486Y0103598D01*
X0255813Y0104597D02*
X0198600Y0104597D01*
X0198600Y0105595D02*
X0264219Y0105595D01*
X0264385Y0105997D02*
X0263916Y0104863D01*
X0263916Y0103636D01*
X0264385Y0102503D01*
X0265253Y0101635D01*
X0265400Y0101574D01*
X0265400Y0094913D01*
X0263921Y0093433D01*
X0262915Y0093850D01*
X0261085Y0093850D01*
X0259394Y0093150D01*
X0258100Y0091856D01*
X0257400Y0090165D01*
X0257400Y0088335D01*
X0258100Y0086644D01*
X0259394Y0085350D01*
X0261085Y0084650D01*
X0262915Y0084650D01*
X0264606Y0085350D01*
X0265900Y0086644D01*
X0266600Y0088335D01*
X0266600Y0090165D01*
X0266183Y0091171D01*
X0267663Y0092650D01*
X0268600Y0093587D01*
X0268600Y0101574D01*
X0268747Y0101635D01*
X0269615Y0102503D01*
X0270084Y0103636D01*
X0270084Y0104863D01*
X0269615Y0105997D01*
X0268747Y0106865D01*
X0267613Y0107334D01*
X0266386Y0107334D01*
X0265253Y0106865D01*
X0264385Y0105997D01*
X0264982Y0106594D02*
X0198647Y0106594D01*
X0199652Y0107592D02*
X0284010Y0107592D01*
X0283916Y0107363D02*
X0283916Y0106136D01*
X0284385Y0105003D01*
X0285253Y0104135D01*
X0285400Y0104074D01*
X0285400Y0094913D01*
X0283921Y0093433D01*
X0282915Y0093850D01*
X0281085Y0093850D01*
X0279394Y0093150D01*
X0278100Y0091856D01*
X0277400Y0090165D01*
X0277400Y0088335D01*
X0278100Y0086644D01*
X0279394Y0085350D01*
X0281085Y0084650D01*
X0282915Y0084650D01*
X0284606Y0085350D01*
X0285900Y0086644D01*
X0286600Y0088335D01*
X0286600Y0090165D01*
X0286183Y0091171D01*
X0287663Y0092650D01*
X0288600Y0093587D01*
X0288600Y0104074D01*
X0288747Y0104135D01*
X0289615Y0105003D01*
X0290084Y0106136D01*
X0290084Y0107363D01*
X0289615Y0108497D01*
X0288747Y0109365D01*
X0287613Y0109834D01*
X0286386Y0109834D01*
X0285253Y0109365D01*
X0284385Y0108497D01*
X0283916Y0107363D01*
X0283916Y0106594D02*
X0269018Y0106594D01*
X0269781Y0105595D02*
X0284140Y0105595D01*
X0284792Y0104597D02*
X0270084Y0104597D01*
X0270068Y0103598D02*
X0285400Y0103598D01*
X0285400Y0102600D02*
X0269655Y0102600D01*
X0268665Y0101601D02*
X0285400Y0101601D01*
X0285400Y0100603D02*
X0268600Y0100603D01*
X0268600Y0099604D02*
X0285400Y0099604D01*
X0285400Y0098606D02*
X0268600Y0098606D01*
X0268600Y0097607D02*
X0285400Y0097607D01*
X0285400Y0096609D02*
X0268600Y0096609D01*
X0268600Y0095610D02*
X0285400Y0095610D01*
X0285099Y0094612D02*
X0268600Y0094612D01*
X0268600Y0093613D02*
X0270513Y0093613D01*
X0271085Y0093850D02*
X0269394Y0093150D01*
X0268100Y0091856D01*
X0267400Y0090165D01*
X0267400Y0088335D01*
X0268100Y0086644D01*
X0269394Y0085350D01*
X0270300Y0084975D01*
X0270300Y0060634D01*
X0270253Y0060615D01*
X0269385Y0059747D01*
X0268916Y0058613D01*
X0268916Y0057386D01*
X0269385Y0056253D01*
X0270253Y0055385D01*
X0271386Y0054916D01*
X0272613Y0054916D01*
X0273747Y0055385D01*
X0274615Y0056253D01*
X0275084Y0057386D01*
X0275084Y0058613D01*
X0274615Y0059747D01*
X0273747Y0060615D01*
X0273700Y0060634D01*
X0273700Y0084975D01*
X0274606Y0085350D01*
X0275900Y0086644D01*
X0276600Y0088335D01*
X0276600Y0090165D01*
X0275900Y0091856D01*
X0274606Y0093150D01*
X0272915Y0093850D01*
X0271085Y0093850D01*
X0273487Y0093613D02*
X0280513Y0093613D01*
X0278859Y0092615D02*
X0275141Y0092615D01*
X0275999Y0091616D02*
X0278001Y0091616D01*
X0277587Y0090618D02*
X0276413Y0090618D01*
X0276600Y0089619D02*
X0277400Y0089619D01*
X0277400Y0088620D02*
X0276600Y0088620D01*
X0276305Y0087622D02*
X0277695Y0087622D01*
X0278121Y0086623D02*
X0275879Y0086623D01*
X0274880Y0085625D02*
X0279120Y0085625D01*
X0284880Y0085625D02*
X0289120Y0085625D01*
X0289394Y0085350D02*
X0291085Y0084650D01*
X0292915Y0084650D01*
X0294606Y0085350D01*
X0295900Y0086644D01*
X0296600Y0088335D01*
X0296600Y0090165D01*
X0296183Y0091171D01*
X0297663Y0092650D01*
X0298600Y0093587D01*
X0298600Y0106574D01*
X0298747Y0106635D01*
X0299615Y0107503D01*
X0300084Y0108636D01*
X0300084Y0109863D01*
X0299615Y0110997D01*
X0298747Y0111865D01*
X0297613Y0112334D01*
X0296386Y0112334D01*
X0295253Y0111865D01*
X0294385Y0110997D01*
X0293916Y0109863D01*
X0293916Y0108636D01*
X0294385Y0107503D01*
X0295253Y0106635D01*
X0295400Y0106574D01*
X0295400Y0094913D01*
X0293921Y0093433D01*
X0292915Y0093850D01*
X0291085Y0093850D01*
X0289394Y0093150D01*
X0288100Y0091856D01*
X0287400Y0090165D01*
X0287400Y0088335D01*
X0288100Y0086644D01*
X0289394Y0085350D01*
X0288121Y0086623D02*
X0285879Y0086623D01*
X0286305Y0087622D02*
X0287695Y0087622D01*
X0287400Y0088620D02*
X0286600Y0088620D01*
X0286600Y0089619D02*
X0287400Y0089619D01*
X0287587Y0090618D02*
X0286413Y0090618D01*
X0286629Y0091616D02*
X0288001Y0091616D01*
X0287627Y0092615D02*
X0288859Y0092615D01*
X0288600Y0093613D02*
X0290513Y0093613D01*
X0288600Y0094612D02*
X0295099Y0094612D01*
X0295400Y0095610D02*
X0288600Y0095610D01*
X0288600Y0096609D02*
X0295400Y0096609D01*
X0295400Y0097607D02*
X0288600Y0097607D01*
X0288600Y0098606D02*
X0295400Y0098606D01*
X0295400Y0099604D02*
X0288600Y0099604D01*
X0288600Y0100603D02*
X0295400Y0100603D01*
X0295400Y0101601D02*
X0288600Y0101601D01*
X0288600Y0102600D02*
X0295400Y0102600D01*
X0295400Y0103598D02*
X0288600Y0103598D01*
X0289208Y0104597D02*
X0295400Y0104597D01*
X0295400Y0105595D02*
X0289860Y0105595D01*
X0290084Y0106594D02*
X0295353Y0106594D01*
X0294348Y0107592D02*
X0289990Y0107592D01*
X0289521Y0108591D02*
X0293935Y0108591D01*
X0293916Y0109589D02*
X0288205Y0109589D01*
X0285795Y0109589D02*
X0200084Y0109589D01*
X0200065Y0108591D02*
X0284479Y0108591D01*
X0287000Y0106750D02*
X0287000Y0094250D01*
X0282000Y0089250D01*
X0283487Y0093613D02*
X0284100Y0093613D01*
X0293487Y0093613D02*
X0294100Y0093613D01*
X0297000Y0094250D02*
X0297000Y0109250D01*
X0294216Y0110588D02*
X0199784Y0110588D01*
X0199026Y0111586D02*
X0294974Y0111586D01*
X0299026Y0111586D02*
X0390557Y0111586D01*
X0390654Y0111820D02*
X0389963Y0110152D01*
X0389963Y0108348D01*
X0390654Y0106680D01*
X0391930Y0105404D01*
X0393598Y0104713D01*
X0395402Y0104713D01*
X0397070Y0105404D01*
X0398346Y0106680D01*
X0399037Y0108348D01*
X0399037Y0110152D01*
X0398346Y0111820D01*
X0397070Y0113096D01*
X0395402Y0113787D01*
X0393598Y0113787D01*
X0391930Y0113096D01*
X0390654Y0111820D01*
X0391418Y0112585D02*
X0102178Y0112585D01*
X0101179Y0113583D02*
X0393106Y0113583D01*
X0395894Y0113583D02*
X0398390Y0113583D01*
X0397582Y0112585D02*
X0399237Y0112585D01*
X0399962Y0111586D02*
X0398443Y0111586D01*
X0398857Y0110588D02*
X0400515Y0110588D01*
X0400840Y0109589D02*
X0399037Y0109589D01*
X0399037Y0108591D02*
X0401164Y0108591D01*
X0401334Y0107592D02*
X0398724Y0107592D01*
X0398260Y0106594D02*
X0401400Y0106594D01*
X0401400Y0105595D02*
X0397261Y0105595D01*
X0401400Y0104597D02*
X0298600Y0104597D01*
X0298600Y0105595D02*
X0391739Y0105595D01*
X0390740Y0106594D02*
X0298647Y0106594D01*
X0299652Y0107592D02*
X0390276Y0107592D01*
X0389963Y0108591D02*
X0300065Y0108591D01*
X0300084Y0109589D02*
X0389963Y0109589D01*
X0390143Y0110588D02*
X0299784Y0110588D01*
X0298600Y0103598D02*
X0401400Y0103598D01*
X0401400Y0102600D02*
X0298600Y0102600D01*
X0298600Y0101601D02*
X0401400Y0101601D01*
X0401400Y0100603D02*
X0298600Y0100603D01*
X0298600Y0099604D02*
X0401400Y0099604D01*
X0401400Y0098606D02*
X0298600Y0098606D01*
X0298600Y0097607D02*
X0401400Y0097607D01*
X0401400Y0096609D02*
X0298600Y0096609D01*
X0298600Y0095610D02*
X0401400Y0095610D01*
X0401400Y0094612D02*
X0298600Y0094612D01*
X0298600Y0093613D02*
X0310513Y0093613D01*
X0311085Y0093850D02*
X0309394Y0093150D01*
X0308100Y0091856D01*
X0307400Y0090165D01*
X0307400Y0088335D01*
X0308100Y0086644D01*
X0309394Y0085350D01*
X0311085Y0084650D01*
X0312915Y0084650D01*
X0314606Y0085350D01*
X0315900Y0086644D01*
X0316600Y0088335D01*
X0316600Y0090165D01*
X0315900Y0091856D01*
X0314606Y0093150D01*
X0312915Y0093850D01*
X0311085Y0093850D01*
X0313487Y0093613D02*
X0320513Y0093613D01*
X0321085Y0093850D02*
X0319394Y0093150D01*
X0318100Y0091856D01*
X0317400Y0090165D01*
X0317400Y0088335D01*
X0318100Y0086644D01*
X0319394Y0085350D01*
X0321085Y0084650D01*
X0322915Y0084650D01*
X0324606Y0085350D01*
X0325900Y0086644D01*
X0326600Y0088335D01*
X0326600Y0090165D01*
X0325900Y0091856D01*
X0324606Y0093150D01*
X0322915Y0093850D01*
X0321085Y0093850D01*
X0323487Y0093613D02*
X0330513Y0093613D01*
X0331085Y0093850D02*
X0329394Y0093150D01*
X0328100Y0091856D01*
X0327400Y0090165D01*
X0327400Y0088335D01*
X0328100Y0086644D01*
X0329394Y0085350D01*
X0331085Y0084650D01*
X0332915Y0084650D01*
X0334606Y0085350D01*
X0335900Y0086644D01*
X0336600Y0088335D01*
X0336600Y0090165D01*
X0335900Y0091856D01*
X0334606Y0093150D01*
X0332915Y0093850D01*
X0331085Y0093850D01*
X0333487Y0093613D02*
X0340513Y0093613D01*
X0341085Y0093850D02*
X0339394Y0093150D01*
X0338100Y0091856D01*
X0337400Y0090165D01*
X0337400Y0088335D01*
X0338100Y0086644D01*
X0339394Y0085350D01*
X0341085Y0084650D01*
X0342915Y0084650D01*
X0344606Y0085350D01*
X0345900Y0086644D01*
X0346600Y0088335D01*
X0346600Y0090165D01*
X0345900Y0091856D01*
X0344606Y0093150D01*
X0342915Y0093850D01*
X0341085Y0093850D01*
X0343487Y0093613D02*
X0350513Y0093613D01*
X0351085Y0093850D02*
X0349394Y0093150D01*
X0348100Y0091856D01*
X0347400Y0090165D01*
X0347400Y0088335D01*
X0348100Y0086644D01*
X0349394Y0085350D01*
X0351085Y0084650D01*
X0352915Y0084650D01*
X0354606Y0085350D01*
X0355900Y0086644D01*
X0356600Y0088335D01*
X0356600Y0090165D01*
X0355900Y0091856D01*
X0354606Y0093150D01*
X0352915Y0093850D01*
X0351085Y0093850D01*
X0353487Y0093613D02*
X0360513Y0093613D01*
X0361085Y0093850D02*
X0359394Y0093150D01*
X0358100Y0091856D01*
X0357400Y0090165D01*
X0357400Y0088335D01*
X0358100Y0086644D01*
X0359394Y0085350D01*
X0361085Y0084650D01*
X0362915Y0084650D01*
X0364606Y0085350D01*
X0365900Y0086644D01*
X0366600Y0088335D01*
X0366600Y0090165D01*
X0365900Y0091856D01*
X0364606Y0093150D01*
X0362915Y0093850D01*
X0361085Y0093850D01*
X0363487Y0093613D02*
X0370513Y0093613D01*
X0371085Y0093850D02*
X0369394Y0093150D01*
X0368100Y0091856D01*
X0367400Y0090165D01*
X0367400Y0088335D01*
X0368100Y0086644D01*
X0369394Y0085350D01*
X0371085Y0084650D01*
X0372915Y0084650D01*
X0374606Y0085350D01*
X0375900Y0086644D01*
X0376600Y0088335D01*
X0376600Y0090165D01*
X0375900Y0091856D01*
X0374606Y0093150D01*
X0372915Y0093850D01*
X0371085Y0093850D01*
X0373487Y0093613D02*
X0380513Y0093613D01*
X0381085Y0093850D02*
X0379394Y0093150D01*
X0378100Y0091856D01*
X0377400Y0090165D01*
X0377400Y0088335D01*
X0378100Y0086644D01*
X0379394Y0085350D01*
X0381085Y0084650D01*
X0382915Y0084650D01*
X0384606Y0085350D01*
X0385900Y0086644D01*
X0386600Y0088335D01*
X0386600Y0090165D01*
X0385900Y0091856D01*
X0384606Y0093150D01*
X0382915Y0093850D01*
X0381085Y0093850D01*
X0383487Y0093613D02*
X0390513Y0093613D01*
X0391085Y0093850D02*
X0389394Y0093150D01*
X0388100Y0091856D01*
X0387400Y0090165D01*
X0387400Y0088335D01*
X0388100Y0086644D01*
X0389394Y0085350D01*
X0391085Y0084650D01*
X0392915Y0084650D01*
X0394606Y0085350D01*
X0395900Y0086644D01*
X0396600Y0088335D01*
X0396600Y0090165D01*
X0395900Y0091856D01*
X0394606Y0093150D01*
X0392915Y0093850D01*
X0391085Y0093850D01*
X0393487Y0093613D02*
X0401400Y0093613D01*
X0401400Y0092615D02*
X0395141Y0092615D01*
X0395999Y0091616D02*
X0401400Y0091616D01*
X0401400Y0090618D02*
X0396413Y0090618D01*
X0396600Y0089619D02*
X0401400Y0089619D01*
X0401400Y0088620D02*
X0396600Y0088620D01*
X0396305Y0087622D02*
X0401400Y0087622D01*
X0401400Y0086623D02*
X0395879Y0086623D01*
X0394880Y0085625D02*
X0401400Y0085625D01*
X0401400Y0084626D02*
X0273700Y0084626D01*
X0273700Y0083628D02*
X0401400Y0083628D01*
X0401400Y0082629D02*
X0273700Y0082629D01*
X0273700Y0081631D02*
X0401400Y0081631D01*
X0401400Y0080632D02*
X0273700Y0080632D01*
X0273700Y0079634D02*
X0401400Y0079634D01*
X0401400Y0078635D02*
X0273700Y0078635D01*
X0273700Y0077637D02*
X0401400Y0077637D01*
X0401400Y0076638D02*
X0273700Y0076638D01*
X0273700Y0075640D02*
X0401400Y0075640D01*
X0401400Y0074641D02*
X0273700Y0074641D01*
X0273700Y0073643D02*
X0401400Y0073643D01*
X0401400Y0072644D02*
X0273700Y0072644D01*
X0273700Y0071646D02*
X0401400Y0071646D01*
X0401400Y0070647D02*
X0273700Y0070647D01*
X0273700Y0069649D02*
X0401400Y0069649D01*
X0401400Y0068650D02*
X0273700Y0068650D01*
X0273700Y0067652D02*
X0401400Y0067652D01*
X0401400Y0066653D02*
X0273700Y0066653D01*
X0273700Y0065655D02*
X0401400Y0065655D01*
X0401400Y0064656D02*
X0273700Y0064656D01*
X0273700Y0063658D02*
X0401400Y0063658D01*
X0401400Y0062659D02*
X0273700Y0062659D01*
X0273700Y0061661D02*
X0401400Y0061661D01*
X0401400Y0060662D02*
X0273700Y0060662D01*
X0274649Y0059664D02*
X0401400Y0059664D01*
X0401400Y0058665D02*
X0275063Y0058665D01*
X0275084Y0057667D02*
X0401400Y0057667D01*
X0401400Y0056668D02*
X0274787Y0056668D01*
X0274031Y0055670D02*
X0401400Y0055670D01*
X0401400Y0054671D02*
X0243600Y0054671D01*
X0243600Y0053673D02*
X0401400Y0053673D01*
X0401400Y0052674D02*
X0243600Y0052674D01*
X0243600Y0051676D02*
X0401400Y0051676D01*
X0401400Y0050677D02*
X0243600Y0050677D01*
X0243600Y0049679D02*
X0251011Y0049679D01*
X0251386Y0049834D02*
X0250253Y0049365D01*
X0249385Y0048497D01*
X0248916Y0047363D01*
X0248916Y0046136D01*
X0249385Y0045003D01*
X0250253Y0044135D01*
X0250400Y0044074D01*
X0250400Y0033566D01*
X0249394Y0033150D01*
X0248100Y0031856D01*
X0247400Y0030165D01*
X0247400Y0028335D01*
X0248100Y0026644D01*
X0249394Y0025350D01*
X0251085Y0024650D01*
X0252915Y0024650D01*
X0253921Y0025067D01*
X0255400Y0023587D01*
X0255400Y0016926D01*
X0255253Y0016865D01*
X0254385Y0015997D01*
X0253916Y0014863D01*
X0253916Y0013636D01*
X0254385Y0012503D01*
X0255253Y0011635D01*
X0256386Y0011166D01*
X0257613Y0011166D01*
X0258747Y0011635D01*
X0259615Y0012503D01*
X0260084Y0013636D01*
X0260084Y0014863D01*
X0259615Y0015997D01*
X0258747Y0016865D01*
X0258600Y0016926D01*
X0258600Y0024913D01*
X0257663Y0025850D01*
X0256183Y0027329D01*
X0256600Y0028335D01*
X0256600Y0030165D01*
X0255900Y0031856D01*
X0254606Y0033150D01*
X0253600Y0033566D01*
X0253600Y0044074D01*
X0253747Y0044135D01*
X0254615Y0045003D01*
X0255084Y0046136D01*
X0255084Y0047363D01*
X0254615Y0048497D01*
X0253747Y0049365D01*
X0252613Y0049834D01*
X0251386Y0049834D01*
X0252989Y0049679D02*
X0401400Y0049679D01*
X0401400Y0048680D02*
X0254432Y0048680D01*
X0254953Y0047682D02*
X0401400Y0047682D01*
X0401400Y0046683D02*
X0255084Y0046683D01*
X0254897Y0045684D02*
X0260421Y0045684D01*
X0260253Y0045615D02*
X0259385Y0044747D01*
X0258916Y0043613D01*
X0258916Y0042386D01*
X0259385Y0041253D01*
X0260253Y0040385D01*
X0260400Y0040324D01*
X0260400Y0033566D01*
X0259394Y0033150D01*
X0258100Y0031856D01*
X0257400Y0030165D01*
X0257400Y0028335D01*
X0258100Y0026644D01*
X0259394Y0025350D01*
X0261085Y0024650D01*
X0262915Y0024650D01*
X0263921Y0025067D01*
X0265400Y0023587D01*
X0265400Y0014426D01*
X0265253Y0014365D01*
X0264385Y0013497D01*
X0263916Y0012363D01*
X0263916Y0011136D01*
X0264385Y0010003D01*
X0265253Y0009135D01*
X0266386Y0008666D01*
X0267613Y0008666D01*
X0268747Y0009135D01*
X0269615Y0010003D01*
X0270084Y0011136D01*
X0270084Y0012363D01*
X0269615Y0013497D01*
X0268747Y0014365D01*
X0268600Y0014426D01*
X0268600Y0024913D01*
X0267663Y0025850D01*
X0266183Y0027329D01*
X0266600Y0028335D01*
X0266600Y0030165D01*
X0265900Y0031856D01*
X0264606Y0033150D01*
X0263600Y0033566D01*
X0263600Y0040324D01*
X0263747Y0040385D01*
X0264615Y0041253D01*
X0265084Y0042386D01*
X0265084Y0043613D01*
X0264615Y0044747D01*
X0263747Y0045615D01*
X0262613Y0046084D01*
X0261386Y0046084D01*
X0260253Y0045615D01*
X0259360Y0044686D02*
X0254298Y0044686D01*
X0253600Y0043687D02*
X0258946Y0043687D01*
X0258916Y0042689D02*
X0253600Y0042689D01*
X0253600Y0041690D02*
X0259204Y0041690D01*
X0259946Y0040692D02*
X0253600Y0040692D01*
X0253600Y0039693D02*
X0260400Y0039693D01*
X0260400Y0038695D02*
X0253600Y0038695D01*
X0253600Y0037696D02*
X0260400Y0037696D01*
X0260400Y0036698D02*
X0253600Y0036698D01*
X0253600Y0035699D02*
X0260400Y0035699D01*
X0260400Y0034701D02*
X0253600Y0034701D01*
X0253600Y0033702D02*
X0260400Y0033702D01*
X0258948Y0032704D02*
X0255052Y0032704D01*
X0255962Y0031705D02*
X0258038Y0031705D01*
X0257624Y0030707D02*
X0256376Y0030707D01*
X0256600Y0029708D02*
X0257400Y0029708D01*
X0257400Y0028710D02*
X0256600Y0028710D01*
X0256342Y0027711D02*
X0257658Y0027711D01*
X0258072Y0026713D02*
X0256800Y0026713D01*
X0257798Y0025714D02*
X0259030Y0025714D01*
X0258600Y0024716D02*
X0260926Y0024716D01*
X0263074Y0024716D02*
X0264271Y0024716D01*
X0265270Y0023717D02*
X0258600Y0023717D01*
X0258600Y0022719D02*
X0265400Y0022719D01*
X0265400Y0021720D02*
X0258600Y0021720D01*
X0258600Y0020722D02*
X0265400Y0020722D01*
X0265400Y0019723D02*
X0258600Y0019723D01*
X0258600Y0018725D02*
X0265400Y0018725D01*
X0265400Y0017726D02*
X0258600Y0017726D01*
X0258884Y0016728D02*
X0265400Y0016728D01*
X0265400Y0015729D02*
X0259726Y0015729D01*
X0260084Y0014731D02*
X0265400Y0014731D01*
X0264620Y0013732D02*
X0260084Y0013732D01*
X0259710Y0012734D02*
X0264069Y0012734D01*
X0263916Y0011735D02*
X0258847Y0011735D01*
X0255153Y0011735D02*
X0198600Y0011735D01*
X0198600Y0010737D02*
X0264081Y0010737D01*
X0264650Y0009738D02*
X0198600Y0009738D01*
X0199372Y0008740D02*
X0266208Y0008740D01*
X0267792Y0008740D02*
X0283916Y0008740D01*
X0283916Y0008636D02*
X0284385Y0007503D01*
X0285253Y0006635D01*
X0286386Y0006166D01*
X0287613Y0006166D01*
X0288747Y0006635D01*
X0289615Y0007503D01*
X0290084Y0008636D01*
X0290084Y0009863D01*
X0289615Y0010997D01*
X0288747Y0011865D01*
X0288600Y0011926D01*
X0288600Y0024913D01*
X0287663Y0025850D01*
X0286183Y0027329D01*
X0286600Y0028335D01*
X0286600Y0030165D01*
X0285900Y0031856D01*
X0284606Y0033150D01*
X0282915Y0033850D01*
X0281085Y0033850D01*
X0279394Y0033150D01*
X0278100Y0031856D01*
X0277400Y0030165D01*
X0277400Y0028335D01*
X0278100Y0026644D01*
X0279394Y0025350D01*
X0281085Y0024650D01*
X0282915Y0024650D01*
X0283921Y0025067D01*
X0285400Y0023587D01*
X0285400Y0011926D01*
X0285253Y0011865D01*
X0284385Y0010997D01*
X0283916Y0009863D01*
X0283916Y0008636D01*
X0284287Y0007741D02*
X0199928Y0007741D01*
X0200084Y0006743D02*
X0285146Y0006743D01*
X0288854Y0006743D02*
X0293916Y0006743D01*
X0294072Y0007741D02*
X0289713Y0007741D01*
X0290084Y0008740D02*
X0294628Y0008740D01*
X0295400Y0009738D02*
X0290084Y0009738D01*
X0289723Y0010737D02*
X0295400Y0010737D01*
X0295400Y0011735D02*
X0288877Y0011735D01*
X0288600Y0012734D02*
X0295400Y0012734D01*
X0295400Y0013732D02*
X0288600Y0013732D01*
X0288600Y0014731D02*
X0295400Y0014731D01*
X0295400Y0015729D02*
X0288600Y0015729D01*
X0288600Y0016728D02*
X0295400Y0016728D01*
X0295400Y0017726D02*
X0288600Y0017726D01*
X0288600Y0018725D02*
X0295400Y0018725D01*
X0295400Y0019723D02*
X0288600Y0019723D01*
X0288600Y0020722D02*
X0295400Y0020722D01*
X0295400Y0021720D02*
X0288600Y0021720D01*
X0288600Y0022719D02*
X0295400Y0022719D01*
X0295270Y0023717D02*
X0288600Y0023717D01*
X0288600Y0024716D02*
X0290926Y0024716D01*
X0289030Y0025714D02*
X0287798Y0025714D01*
X0288072Y0026713D02*
X0286800Y0026713D01*
X0286342Y0027711D02*
X0287658Y0027711D01*
X0287400Y0028710D02*
X0286600Y0028710D01*
X0286600Y0029708D02*
X0287400Y0029708D01*
X0287624Y0030707D02*
X0286376Y0030707D01*
X0285962Y0031705D02*
X0288038Y0031705D01*
X0288948Y0032704D02*
X0285052Y0032704D01*
X0283271Y0033702D02*
X0290729Y0033702D01*
X0293271Y0033702D02*
X0310729Y0033702D01*
X0311085Y0033850D02*
X0309394Y0033150D01*
X0308100Y0031856D01*
X0307400Y0030165D01*
X0307400Y0028335D01*
X0308100Y0026644D01*
X0309394Y0025350D01*
X0311085Y0024650D01*
X0312915Y0024650D01*
X0314606Y0025350D01*
X0315900Y0026644D01*
X0316600Y0028335D01*
X0316600Y0030165D01*
X0315900Y0031856D01*
X0314606Y0033150D01*
X0312915Y0033850D01*
X0311085Y0033850D01*
X0313271Y0033702D02*
X0320729Y0033702D01*
X0321085Y0033850D02*
X0319394Y0033150D01*
X0318100Y0031856D01*
X0317400Y0030165D01*
X0317400Y0028335D01*
X0318100Y0026644D01*
X0319394Y0025350D01*
X0321085Y0024650D01*
X0322915Y0024650D01*
X0324606Y0025350D01*
X0325900Y0026644D01*
X0326600Y0028335D01*
X0326600Y0030165D01*
X0325900Y0031856D01*
X0324606Y0033150D01*
X0322915Y0033850D01*
X0321085Y0033850D01*
X0323271Y0033702D02*
X0330729Y0033702D01*
X0331085Y0033850D02*
X0329394Y0033150D01*
X0328100Y0031856D01*
X0327400Y0030165D01*
X0327400Y0028335D01*
X0328100Y0026644D01*
X0329394Y0025350D01*
X0331085Y0024650D01*
X0332915Y0024650D01*
X0334606Y0025350D01*
X0335900Y0026644D01*
X0336600Y0028335D01*
X0336600Y0030165D01*
X0335900Y0031856D01*
X0334606Y0033150D01*
X0332915Y0033850D01*
X0331085Y0033850D01*
X0333271Y0033702D02*
X0340729Y0033702D01*
X0341085Y0033850D02*
X0339394Y0033150D01*
X0338100Y0031856D01*
X0337400Y0030165D01*
X0337400Y0028335D01*
X0338100Y0026644D01*
X0339394Y0025350D01*
X0341085Y0024650D01*
X0342915Y0024650D01*
X0344606Y0025350D01*
X0345900Y0026644D01*
X0346600Y0028335D01*
X0346600Y0030165D01*
X0345900Y0031856D01*
X0344606Y0033150D01*
X0342915Y0033850D01*
X0341085Y0033850D01*
X0343271Y0033702D02*
X0350729Y0033702D01*
X0351085Y0033850D02*
X0349394Y0033150D01*
X0348100Y0031856D01*
X0347400Y0030165D01*
X0347400Y0028335D01*
X0348100Y0026644D01*
X0349394Y0025350D01*
X0351085Y0024650D01*
X0352915Y0024650D01*
X0354606Y0025350D01*
X0355900Y0026644D01*
X0356600Y0028335D01*
X0356600Y0030165D01*
X0355900Y0031856D01*
X0354606Y0033150D01*
X0352915Y0033850D01*
X0351085Y0033850D01*
X0353271Y0033702D02*
X0360729Y0033702D01*
X0361085Y0033850D02*
X0359394Y0033150D01*
X0358100Y0031856D01*
X0357400Y0030165D01*
X0357400Y0028335D01*
X0358100Y0026644D01*
X0359394Y0025350D01*
X0361085Y0024650D01*
X0362915Y0024650D01*
X0364606Y0025350D01*
X0365900Y0026644D01*
X0366600Y0028335D01*
X0366600Y0030165D01*
X0365900Y0031856D01*
X0364606Y0033150D01*
X0362915Y0033850D01*
X0361085Y0033850D01*
X0363271Y0033702D02*
X0370729Y0033702D01*
X0371085Y0033850D02*
X0369394Y0033150D01*
X0368100Y0031856D01*
X0367400Y0030165D01*
X0367400Y0028335D01*
X0368100Y0026644D01*
X0369394Y0025350D01*
X0371085Y0024650D01*
X0372915Y0024650D01*
X0374606Y0025350D01*
X0375900Y0026644D01*
X0376600Y0028335D01*
X0376600Y0030165D01*
X0375900Y0031856D01*
X0374606Y0033150D01*
X0372915Y0033850D01*
X0371085Y0033850D01*
X0373271Y0033702D02*
X0380729Y0033702D01*
X0381085Y0033850D02*
X0379394Y0033150D01*
X0378100Y0031856D01*
X0377400Y0030165D01*
X0377400Y0028335D01*
X0378100Y0026644D01*
X0379394Y0025350D01*
X0381085Y0024650D01*
X0382915Y0024650D01*
X0384606Y0025350D01*
X0385900Y0026644D01*
X0386600Y0028335D01*
X0386600Y0030165D01*
X0385900Y0031856D01*
X0384606Y0033150D01*
X0382915Y0033850D01*
X0381085Y0033850D01*
X0383271Y0033702D02*
X0390729Y0033702D01*
X0391085Y0033850D02*
X0389394Y0033150D01*
X0388100Y0031856D01*
X0387400Y0030165D01*
X0387400Y0028335D01*
X0388100Y0026644D01*
X0389394Y0025350D01*
X0391085Y0024650D01*
X0392915Y0024650D01*
X0394606Y0025350D01*
X0395900Y0026644D01*
X0396600Y0028335D01*
X0396600Y0030165D01*
X0395900Y0031856D01*
X0394606Y0033150D01*
X0392915Y0033850D01*
X0391085Y0033850D01*
X0393271Y0033702D02*
X0401400Y0033702D01*
X0401400Y0032704D02*
X0395052Y0032704D01*
X0395962Y0031705D02*
X0401400Y0031705D01*
X0401400Y0030707D02*
X0396376Y0030707D01*
X0396600Y0029708D02*
X0401400Y0029708D01*
X0401400Y0028710D02*
X0396600Y0028710D01*
X0396342Y0027711D02*
X0401400Y0027711D01*
X0401400Y0026713D02*
X0395928Y0026713D01*
X0394970Y0025714D02*
X0401400Y0025714D01*
X0401400Y0024716D02*
X0393074Y0024716D01*
X0390926Y0024716D02*
X0383074Y0024716D01*
X0384970Y0025714D02*
X0389030Y0025714D01*
X0388072Y0026713D02*
X0385928Y0026713D01*
X0386342Y0027711D02*
X0387658Y0027711D01*
X0387400Y0028710D02*
X0386600Y0028710D01*
X0386600Y0029708D02*
X0387400Y0029708D01*
X0387624Y0030707D02*
X0386376Y0030707D01*
X0385962Y0031705D02*
X0388038Y0031705D01*
X0388948Y0032704D02*
X0385052Y0032704D01*
X0378948Y0032704D02*
X0375052Y0032704D01*
X0375962Y0031705D02*
X0378038Y0031705D01*
X0377624Y0030707D02*
X0376376Y0030707D01*
X0376600Y0029708D02*
X0377400Y0029708D01*
X0377400Y0028710D02*
X0376600Y0028710D01*
X0376342Y0027711D02*
X0377658Y0027711D01*
X0378072Y0026713D02*
X0375928Y0026713D01*
X0374970Y0025714D02*
X0379030Y0025714D01*
X0380926Y0024716D02*
X0373074Y0024716D01*
X0370926Y0024716D02*
X0363074Y0024716D01*
X0364970Y0025714D02*
X0369030Y0025714D01*
X0368072Y0026713D02*
X0365928Y0026713D01*
X0366342Y0027711D02*
X0367658Y0027711D01*
X0367400Y0028710D02*
X0366600Y0028710D01*
X0366600Y0029708D02*
X0367400Y0029708D01*
X0367624Y0030707D02*
X0366376Y0030707D01*
X0365962Y0031705D02*
X0368038Y0031705D01*
X0368948Y0032704D02*
X0365052Y0032704D01*
X0358948Y0032704D02*
X0355052Y0032704D01*
X0355962Y0031705D02*
X0358038Y0031705D01*
X0357624Y0030707D02*
X0356376Y0030707D01*
X0356600Y0029708D02*
X0357400Y0029708D01*
X0357400Y0028710D02*
X0356600Y0028710D01*
X0356342Y0027711D02*
X0357658Y0027711D01*
X0358072Y0026713D02*
X0355928Y0026713D01*
X0354970Y0025714D02*
X0359030Y0025714D01*
X0360926Y0024716D02*
X0353074Y0024716D01*
X0350926Y0024716D02*
X0343074Y0024716D01*
X0344970Y0025714D02*
X0349030Y0025714D01*
X0348072Y0026713D02*
X0345928Y0026713D01*
X0346342Y0027711D02*
X0347658Y0027711D01*
X0347400Y0028710D02*
X0346600Y0028710D01*
X0346600Y0029708D02*
X0347400Y0029708D01*
X0347624Y0030707D02*
X0346376Y0030707D01*
X0345962Y0031705D02*
X0348038Y0031705D01*
X0348948Y0032704D02*
X0345052Y0032704D01*
X0338948Y0032704D02*
X0335052Y0032704D01*
X0335962Y0031705D02*
X0338038Y0031705D01*
X0337624Y0030707D02*
X0336376Y0030707D01*
X0336600Y0029708D02*
X0337400Y0029708D01*
X0337400Y0028710D02*
X0336600Y0028710D01*
X0336342Y0027711D02*
X0337658Y0027711D01*
X0338072Y0026713D02*
X0335928Y0026713D01*
X0334970Y0025714D02*
X0339030Y0025714D01*
X0340926Y0024716D02*
X0333074Y0024716D01*
X0330926Y0024716D02*
X0323074Y0024716D01*
X0324970Y0025714D02*
X0329030Y0025714D01*
X0328072Y0026713D02*
X0325928Y0026713D01*
X0326342Y0027711D02*
X0327658Y0027711D01*
X0327400Y0028710D02*
X0326600Y0028710D01*
X0326600Y0029708D02*
X0327400Y0029708D01*
X0327624Y0030707D02*
X0326376Y0030707D01*
X0325962Y0031705D02*
X0328038Y0031705D01*
X0328948Y0032704D02*
X0325052Y0032704D01*
X0318948Y0032704D02*
X0315052Y0032704D01*
X0315962Y0031705D02*
X0318038Y0031705D01*
X0317624Y0030707D02*
X0316376Y0030707D01*
X0316600Y0029708D02*
X0317400Y0029708D01*
X0317400Y0028710D02*
X0316600Y0028710D01*
X0316342Y0027711D02*
X0317658Y0027711D01*
X0318072Y0026713D02*
X0315928Y0026713D01*
X0314970Y0025714D02*
X0319030Y0025714D01*
X0320926Y0024716D02*
X0313074Y0024716D01*
X0310926Y0024716D02*
X0298600Y0024716D01*
X0298600Y0023717D02*
X0401400Y0023717D01*
X0401400Y0022719D02*
X0298600Y0022719D01*
X0298600Y0021720D02*
X0401400Y0021720D01*
X0401400Y0020722D02*
X0298600Y0020722D01*
X0298600Y0019723D02*
X0401400Y0019723D01*
X0401400Y0018725D02*
X0298600Y0018725D01*
X0298600Y0017726D02*
X0401400Y0017726D01*
X0401400Y0016728D02*
X0298600Y0016728D01*
X0298600Y0015729D02*
X0401400Y0015729D01*
X0401400Y0014731D02*
X0298600Y0014731D01*
X0285400Y0014731D02*
X0268600Y0014731D01*
X0268600Y0015729D02*
X0285400Y0015729D01*
X0285400Y0016728D02*
X0268600Y0016728D01*
X0268600Y0017726D02*
X0285400Y0017726D01*
X0285400Y0018725D02*
X0268600Y0018725D01*
X0268600Y0019723D02*
X0285400Y0019723D01*
X0285400Y0020722D02*
X0268600Y0020722D01*
X0268600Y0021720D02*
X0285400Y0021720D01*
X0285400Y0022719D02*
X0268600Y0022719D01*
X0268600Y0023717D02*
X0285270Y0023717D01*
X0284271Y0024716D02*
X0283074Y0024716D01*
X0280926Y0024716D02*
X0273074Y0024716D01*
X0272915Y0024650D02*
X0274606Y0025350D01*
X0275900Y0026644D01*
X0276600Y0028335D01*
X0276600Y0030165D01*
X0275900Y0031856D01*
X0274606Y0033150D01*
X0272915Y0033850D01*
X0271085Y0033850D01*
X0269394Y0033150D01*
X0268100Y0031856D01*
X0267400Y0030165D01*
X0267400Y0028335D01*
X0268100Y0026644D01*
X0269394Y0025350D01*
X0271085Y0024650D01*
X0272915Y0024650D01*
X0270926Y0024716D02*
X0268600Y0024716D01*
X0269030Y0025714D02*
X0267798Y0025714D01*
X0268072Y0026713D02*
X0266800Y0026713D01*
X0266342Y0027711D02*
X0267658Y0027711D01*
X0267400Y0028710D02*
X0266600Y0028710D01*
X0266600Y0029708D02*
X0267400Y0029708D01*
X0267624Y0030707D02*
X0266376Y0030707D01*
X0265962Y0031705D02*
X0268038Y0031705D01*
X0268948Y0032704D02*
X0265052Y0032704D01*
X0263600Y0033702D02*
X0270729Y0033702D01*
X0273271Y0033702D02*
X0280729Y0033702D01*
X0278948Y0032704D02*
X0275052Y0032704D01*
X0275962Y0031705D02*
X0278038Y0031705D01*
X0277624Y0030707D02*
X0276376Y0030707D01*
X0276600Y0029708D02*
X0277400Y0029708D01*
X0277400Y0028710D02*
X0276600Y0028710D01*
X0276342Y0027711D02*
X0277658Y0027711D01*
X0278072Y0026713D02*
X0275928Y0026713D01*
X0274970Y0025714D02*
X0279030Y0025714D01*
X0282000Y0029250D02*
X0287000Y0024250D01*
X0287000Y0009250D01*
X0283916Y0009738D02*
X0269350Y0009738D01*
X0269919Y0010737D02*
X0284277Y0010737D01*
X0285123Y0011735D02*
X0270084Y0011735D01*
X0269931Y0012734D02*
X0285400Y0012734D01*
X0285400Y0013732D02*
X0269380Y0013732D01*
X0267000Y0011750D02*
X0267000Y0024250D01*
X0262000Y0029250D01*
X0262000Y0043000D01*
X0264796Y0041690D02*
X0401400Y0041690D01*
X0401400Y0040692D02*
X0264054Y0040692D01*
X0263600Y0039693D02*
X0401400Y0039693D01*
X0401400Y0038695D02*
X0263600Y0038695D01*
X0263600Y0037696D02*
X0401400Y0037696D01*
X0401400Y0036698D02*
X0263600Y0036698D01*
X0263600Y0035699D02*
X0401400Y0035699D01*
X0401400Y0034701D02*
X0263600Y0034701D01*
X0250400Y0034701D02*
X0243600Y0034701D01*
X0243600Y0035699D02*
X0250400Y0035699D01*
X0250400Y0036698D02*
X0243600Y0036698D01*
X0243600Y0037696D02*
X0250400Y0037696D01*
X0250400Y0038695D02*
X0243600Y0038695D01*
X0243600Y0039693D02*
X0250400Y0039693D01*
X0250400Y0040692D02*
X0243600Y0040692D01*
X0243600Y0041690D02*
X0250400Y0041690D01*
X0250400Y0042689D02*
X0243600Y0042689D01*
X0243600Y0043687D02*
X0250400Y0043687D01*
X0249702Y0044686D02*
X0243600Y0044686D01*
X0243600Y0045684D02*
X0249103Y0045684D01*
X0248916Y0046683D02*
X0243600Y0046683D01*
X0243600Y0047682D02*
X0249047Y0047682D01*
X0249568Y0048680D02*
X0243600Y0048680D01*
X0240400Y0048680D02*
X0233600Y0048680D01*
X0233600Y0047682D02*
X0240400Y0047682D01*
X0240400Y0046683D02*
X0233600Y0046683D01*
X0233600Y0045684D02*
X0240400Y0045684D01*
X0240400Y0044686D02*
X0233600Y0044686D01*
X0233600Y0043687D02*
X0240400Y0043687D01*
X0240400Y0042689D02*
X0233600Y0042689D01*
X0233600Y0041690D02*
X0240400Y0041690D01*
X0240400Y0040692D02*
X0233600Y0040692D01*
X0233600Y0039693D02*
X0240400Y0039693D01*
X0240400Y0038695D02*
X0233600Y0038695D01*
X0233600Y0037696D02*
X0240400Y0037696D01*
X0240400Y0036698D02*
X0233600Y0036698D01*
X0233600Y0035699D02*
X0240400Y0035699D01*
X0240400Y0034701D02*
X0233600Y0034701D01*
X0233600Y0033702D02*
X0240400Y0033702D01*
X0238948Y0032704D02*
X0235052Y0032704D01*
X0234606Y0033150D02*
X0233600Y0033566D01*
X0233600Y0057824D01*
X0233747Y0057885D01*
X0234615Y0058753D01*
X0235084Y0059886D01*
X0235084Y0061113D01*
X0234615Y0062247D01*
X0233747Y0063115D01*
X0232613Y0063584D01*
X0231386Y0063584D01*
X0230253Y0063115D01*
X0229385Y0062247D01*
X0228916Y0061113D01*
X0228916Y0059886D01*
X0229385Y0058753D01*
X0230253Y0057885D01*
X0230400Y0057824D01*
X0230400Y0033566D01*
X0229394Y0033150D01*
X0228100Y0031856D01*
X0227400Y0030165D01*
X0227400Y0028335D01*
X0228100Y0026644D01*
X0229394Y0025350D01*
X0231085Y0024650D01*
X0232915Y0024650D01*
X0233921Y0025067D01*
X0235400Y0023587D01*
X0235400Y0021926D01*
X0235253Y0021865D01*
X0234385Y0020997D01*
X0233916Y0019863D01*
X0233916Y0018636D01*
X0234385Y0017503D01*
X0235253Y0016635D01*
X0236386Y0016166D01*
X0237613Y0016166D01*
X0238747Y0016635D01*
X0239615Y0017503D01*
X0240084Y0018636D01*
X0240084Y0019863D01*
X0239615Y0020997D01*
X0238747Y0021865D01*
X0238600Y0021926D01*
X0238600Y0024913D01*
X0237663Y0025850D01*
X0236183Y0027329D01*
X0236600Y0028335D01*
X0236600Y0030165D01*
X0235900Y0031856D01*
X0234606Y0033150D01*
X0235962Y0031705D02*
X0238038Y0031705D01*
X0237624Y0030707D02*
X0236376Y0030707D01*
X0236600Y0029708D02*
X0237400Y0029708D01*
X0237400Y0028710D02*
X0236600Y0028710D01*
X0236342Y0027711D02*
X0237658Y0027711D01*
X0238072Y0026713D02*
X0236800Y0026713D01*
X0237798Y0025714D02*
X0239030Y0025714D01*
X0238600Y0024716D02*
X0240926Y0024716D01*
X0243074Y0024716D02*
X0244271Y0024716D01*
X0245270Y0023717D02*
X0238600Y0023717D01*
X0238600Y0022719D02*
X0245400Y0022719D01*
X0245400Y0021720D02*
X0238892Y0021720D01*
X0239729Y0020722D02*
X0245400Y0020722D01*
X0245400Y0019723D02*
X0240084Y0019723D01*
X0240084Y0018725D02*
X0244613Y0018725D01*
X0244066Y0017726D02*
X0239707Y0017726D01*
X0238839Y0016728D02*
X0243916Y0016728D01*
X0244084Y0015729D02*
X0198600Y0015729D01*
X0198600Y0014731D02*
X0244658Y0014731D01*
X0246226Y0013732D02*
X0198600Y0013732D01*
X0198600Y0012734D02*
X0254290Y0012734D01*
X0253916Y0013732D02*
X0247774Y0013732D01*
X0249342Y0014731D02*
X0253916Y0014731D01*
X0254274Y0015729D02*
X0249916Y0015729D01*
X0250084Y0016728D02*
X0255116Y0016728D01*
X0255400Y0017726D02*
X0249934Y0017726D01*
X0249387Y0018725D02*
X0255400Y0018725D01*
X0255400Y0019723D02*
X0248600Y0019723D01*
X0248600Y0020722D02*
X0255400Y0020722D01*
X0255400Y0021720D02*
X0248600Y0021720D01*
X0248600Y0022719D02*
X0255400Y0022719D01*
X0255270Y0023717D02*
X0248600Y0023717D01*
X0248600Y0024716D02*
X0250926Y0024716D01*
X0249030Y0025714D02*
X0247798Y0025714D01*
X0248072Y0026713D02*
X0246800Y0026713D01*
X0246342Y0027711D02*
X0247658Y0027711D01*
X0247400Y0028710D02*
X0246600Y0028710D01*
X0246600Y0029708D02*
X0247400Y0029708D01*
X0247624Y0030707D02*
X0246376Y0030707D01*
X0245962Y0031705D02*
X0248038Y0031705D01*
X0248948Y0032704D02*
X0245052Y0032704D01*
X0243600Y0033702D02*
X0250400Y0033702D01*
X0252000Y0029250D02*
X0252000Y0046750D01*
X0263579Y0045684D02*
X0401400Y0045684D01*
X0401400Y0044686D02*
X0264640Y0044686D01*
X0265054Y0043687D02*
X0401400Y0043687D01*
X0401400Y0042689D02*
X0265084Y0042689D01*
X0240400Y0049679D02*
X0233600Y0049679D01*
X0233600Y0050677D02*
X0240400Y0050677D01*
X0240400Y0051676D02*
X0233600Y0051676D01*
X0233600Y0052674D02*
X0240400Y0052674D01*
X0240400Y0053673D02*
X0233600Y0053673D01*
X0233600Y0054671D02*
X0240400Y0054671D01*
X0240400Y0055670D02*
X0233600Y0055670D01*
X0233600Y0056668D02*
X0240400Y0056668D01*
X0240400Y0057667D02*
X0233600Y0057667D01*
X0234527Y0058665D02*
X0240400Y0058665D01*
X0240400Y0059664D02*
X0234992Y0059664D01*
X0235084Y0060662D02*
X0240400Y0060662D01*
X0240400Y0061661D02*
X0234858Y0061661D01*
X0234203Y0062659D02*
X0240400Y0062659D01*
X0240400Y0063658D02*
X0206100Y0063658D01*
X0206100Y0064656D02*
X0239732Y0064656D01*
X0239115Y0065655D02*
X0206100Y0065655D01*
X0206100Y0066653D02*
X0238916Y0066653D01*
X0239035Y0067652D02*
X0206100Y0067652D01*
X0206100Y0068650D02*
X0239538Y0068650D01*
X0242000Y0066750D02*
X0242000Y0029250D01*
X0247000Y0024250D01*
X0247000Y0016750D01*
X0257000Y0014250D02*
X0257000Y0024250D01*
X0252000Y0029250D01*
X0253074Y0024716D02*
X0254271Y0024716D01*
X0237000Y0024250D02*
X0237000Y0019250D01*
X0234271Y0020722D02*
X0229912Y0020722D01*
X0230084Y0021136D02*
X0230084Y0022363D01*
X0229615Y0023497D01*
X0228747Y0024365D01*
X0228600Y0024426D01*
X0228600Y0024913D01*
X0227663Y0025850D01*
X0226183Y0027329D01*
X0226600Y0028335D01*
X0226600Y0030165D01*
X0225900Y0031856D01*
X0224606Y0033150D01*
X0222915Y0033850D01*
X0221085Y0033850D01*
X0219394Y0033150D01*
X0218100Y0031856D01*
X0217400Y0030165D01*
X0217400Y0028335D01*
X0218100Y0026644D01*
X0219394Y0025350D01*
X0221085Y0024650D01*
X0222915Y0024650D01*
X0223921Y0025067D01*
X0224938Y0024050D01*
X0224385Y0023497D01*
X0223916Y0022363D01*
X0223916Y0021136D01*
X0224385Y0020003D01*
X0225253Y0019135D01*
X0226386Y0018666D01*
X0227613Y0018666D01*
X0228747Y0019135D01*
X0229615Y0020003D01*
X0230084Y0021136D01*
X0230084Y0021720D02*
X0235108Y0021720D01*
X0235400Y0022719D02*
X0229937Y0022719D01*
X0229395Y0023717D02*
X0235270Y0023717D01*
X0234271Y0024716D02*
X0233074Y0024716D01*
X0230926Y0024716D02*
X0228600Y0024716D01*
X0229030Y0025714D02*
X0227798Y0025714D01*
X0228072Y0026713D02*
X0226800Y0026713D01*
X0226342Y0027711D02*
X0227658Y0027711D01*
X0227400Y0028710D02*
X0226600Y0028710D01*
X0226600Y0029708D02*
X0227400Y0029708D01*
X0227624Y0030707D02*
X0226376Y0030707D01*
X0225962Y0031705D02*
X0228038Y0031705D01*
X0228948Y0032704D02*
X0225052Y0032704D01*
X0223271Y0033702D02*
X0230400Y0033702D01*
X0230400Y0034701D02*
X0213600Y0034701D01*
X0213600Y0035699D02*
X0230400Y0035699D01*
X0230400Y0036698D02*
X0213600Y0036698D01*
X0213600Y0037696D02*
X0230400Y0037696D01*
X0230400Y0038695D02*
X0213600Y0038695D01*
X0213600Y0039693D02*
X0230400Y0039693D01*
X0230400Y0040692D02*
X0213600Y0040692D01*
X0213600Y0041690D02*
X0230400Y0041690D01*
X0230400Y0042689D02*
X0213600Y0042689D01*
X0213600Y0043687D02*
X0230400Y0043687D01*
X0230400Y0044686D02*
X0213600Y0044686D01*
X0213600Y0045684D02*
X0230400Y0045684D01*
X0230400Y0046683D02*
X0213600Y0046683D01*
X0213600Y0047682D02*
X0230400Y0047682D01*
X0230400Y0048680D02*
X0213600Y0048680D01*
X0213600Y0049679D02*
X0230400Y0049679D01*
X0230400Y0050677D02*
X0213600Y0050677D01*
X0213600Y0051676D02*
X0230400Y0051676D01*
X0230400Y0052674D02*
X0213600Y0052674D01*
X0213600Y0053673D02*
X0230400Y0053673D01*
X0230400Y0054671D02*
X0213600Y0054671D01*
X0213600Y0055670D02*
X0230400Y0055670D01*
X0230400Y0056668D02*
X0213600Y0056668D01*
X0213600Y0057667D02*
X0230400Y0057667D01*
X0229473Y0058665D02*
X0214527Y0058665D01*
X0214615Y0058753D02*
X0215084Y0059886D01*
X0215084Y0061113D01*
X0214615Y0062247D01*
X0213747Y0063115D01*
X0212613Y0063584D01*
X0211386Y0063584D01*
X0210253Y0063115D01*
X0209385Y0062247D01*
X0208916Y0061113D01*
X0208916Y0059886D01*
X0209385Y0058753D01*
X0210253Y0057885D01*
X0210400Y0057824D01*
X0210400Y0033566D01*
X0209394Y0033150D01*
X0208100Y0031856D01*
X0207400Y0030165D01*
X0207400Y0028335D01*
X0208100Y0026644D01*
X0209394Y0025350D01*
X0211085Y0024650D01*
X0212915Y0024650D01*
X0214606Y0025350D01*
X0215900Y0026644D01*
X0216600Y0028335D01*
X0216600Y0030165D01*
X0215900Y0031856D01*
X0214606Y0033150D01*
X0213600Y0033566D01*
X0213600Y0057824D01*
X0213747Y0057885D01*
X0214615Y0058753D01*
X0214992Y0059664D02*
X0229008Y0059664D01*
X0228916Y0060662D02*
X0215084Y0060662D01*
X0214858Y0061661D02*
X0229142Y0061661D01*
X0229797Y0062659D02*
X0214203Y0062659D01*
X0212000Y0060500D02*
X0212000Y0029250D01*
X0216342Y0027711D02*
X0217658Y0027711D01*
X0217400Y0028710D02*
X0216600Y0028710D01*
X0216600Y0029708D02*
X0217400Y0029708D01*
X0217624Y0030707D02*
X0216376Y0030707D01*
X0215962Y0031705D02*
X0218038Y0031705D01*
X0218948Y0032704D02*
X0215052Y0032704D01*
X0213600Y0033702D02*
X0220729Y0033702D01*
X0210400Y0033702D02*
X0198715Y0033702D01*
X0197717Y0032704D02*
X0208948Y0032704D01*
X0208038Y0031705D02*
X0196718Y0031705D01*
X0196376Y0030707D02*
X0207624Y0030707D01*
X0207400Y0029708D02*
X0196600Y0029708D01*
X0196600Y0028710D02*
X0207400Y0028710D01*
X0207658Y0027711D02*
X0196342Y0027711D01*
X0196800Y0026713D02*
X0208072Y0026713D01*
X0209030Y0025714D02*
X0197798Y0025714D01*
X0198600Y0024716D02*
X0210926Y0024716D01*
X0213074Y0024716D02*
X0220926Y0024716D01*
X0219030Y0025714D02*
X0214970Y0025714D01*
X0215928Y0026713D02*
X0218072Y0026713D01*
X0222000Y0029250D02*
X0227000Y0024250D01*
X0227000Y0021750D01*
X0223916Y0021720D02*
X0198600Y0021720D01*
X0198600Y0020722D02*
X0224088Y0020722D01*
X0224665Y0019723D02*
X0198600Y0019723D01*
X0198600Y0018725D02*
X0226244Y0018725D01*
X0227756Y0018725D02*
X0233916Y0018725D01*
X0233916Y0019723D02*
X0229335Y0019723D01*
X0234293Y0017726D02*
X0198600Y0017726D01*
X0198600Y0016728D02*
X0235161Y0016728D01*
X0224063Y0022719D02*
X0198600Y0022719D01*
X0198600Y0023717D02*
X0224605Y0023717D01*
X0224271Y0024716D02*
X0223074Y0024716D01*
X0232000Y0029250D02*
X0237000Y0024250D01*
X0232000Y0029250D02*
X0232000Y0060500D01*
X0243600Y0060662D02*
X0270300Y0060662D01*
X0270300Y0061661D02*
X0243600Y0061661D01*
X0243600Y0062659D02*
X0270300Y0062659D01*
X0270300Y0063658D02*
X0243600Y0063658D01*
X0244268Y0064656D02*
X0270300Y0064656D01*
X0270300Y0065655D02*
X0244885Y0065655D01*
X0245084Y0066653D02*
X0270300Y0066653D01*
X0270300Y0067652D02*
X0244965Y0067652D01*
X0244462Y0068650D02*
X0270300Y0068650D01*
X0269351Y0059664D02*
X0243600Y0059664D01*
X0243600Y0058665D02*
X0268937Y0058665D01*
X0268916Y0057667D02*
X0243600Y0057667D01*
X0243600Y0056668D02*
X0269213Y0056668D01*
X0269969Y0055670D02*
X0243600Y0055670D01*
X0210400Y0055670D02*
X0206100Y0055670D01*
X0206100Y0056668D02*
X0210400Y0056668D01*
X0210400Y0057667D02*
X0206100Y0057667D01*
X0206100Y0058665D02*
X0209473Y0058665D01*
X0209008Y0059664D02*
X0206100Y0059664D01*
X0206100Y0060662D02*
X0208916Y0060662D01*
X0209142Y0061661D02*
X0206100Y0061661D01*
X0206100Y0062659D02*
X0209797Y0062659D01*
X0187800Y0062659D02*
X0186200Y0062659D01*
X0186200Y0061661D02*
X0187800Y0061661D01*
X0187800Y0060662D02*
X0186200Y0060662D01*
X0186200Y0059664D02*
X0187800Y0059664D01*
X0187800Y0058665D02*
X0186200Y0058665D01*
X0186200Y0057667D02*
X0187800Y0057667D01*
X0187800Y0056668D02*
X0186200Y0056668D01*
X0186200Y0055670D02*
X0187800Y0055670D01*
X0187800Y0054671D02*
X0186200Y0054671D01*
X0186200Y0053673D02*
X0187800Y0053673D01*
X0187800Y0052674D02*
X0186200Y0052674D01*
X0186200Y0051676D02*
X0187800Y0051676D01*
X0187800Y0050677D02*
X0186200Y0050677D01*
X0186200Y0049679D02*
X0187800Y0049679D01*
X0187800Y0048680D02*
X0186200Y0048680D01*
X0186680Y0047682D02*
X0187320Y0047682D01*
X0173227Y0042689D02*
X0002600Y0042689D01*
X0002600Y0043687D02*
X0171951Y0043687D01*
X0159500Y0048000D02*
X0159500Y0076750D01*
X0172000Y0089250D01*
X0175879Y0086623D02*
X0178121Y0086623D01*
X0179120Y0085625D02*
X0174880Y0085625D01*
X0167000Y0094250D02*
X0162000Y0089250D01*
X0163487Y0093613D02*
X0164100Y0093613D01*
X0157000Y0094250D02*
X0157000Y0101750D01*
X0147000Y0099250D02*
X0147000Y0094250D01*
X0142000Y0089250D01*
X0137400Y0089619D02*
X0136600Y0089619D01*
X0136600Y0088620D02*
X0137400Y0088620D01*
X0137695Y0087622D02*
X0136305Y0087622D01*
X0135879Y0086623D02*
X0138121Y0086623D01*
X0132000Y0089250D02*
X0132000Y0069250D01*
X0161100Y0069649D02*
X0187800Y0069649D01*
X0187800Y0070647D02*
X0161100Y0070647D01*
X0161100Y0071646D02*
X0187800Y0071646D01*
X0187800Y0072644D02*
X0161100Y0072644D01*
X0161100Y0073643D02*
X0187800Y0073643D01*
X0187800Y0074641D02*
X0161100Y0074641D01*
X0161100Y0075640D02*
X0187800Y0075640D01*
X0187800Y0076638D02*
X0161651Y0076638D01*
X0162650Y0077637D02*
X0187983Y0077637D01*
X0188981Y0078635D02*
X0163648Y0078635D01*
X0164647Y0079634D02*
X0189980Y0079634D01*
X0190978Y0080632D02*
X0165645Y0080632D01*
X0157000Y0094250D02*
X0152000Y0089250D01*
X0144100Y0093613D02*
X0143487Y0093613D01*
X0145099Y0094612D02*
X0139223Y0094612D01*
X0138600Y0093613D02*
X0140513Y0093613D01*
X0138859Y0092615D02*
X0137627Y0092615D01*
X0138001Y0091616D02*
X0136629Y0091616D01*
X0136413Y0090618D02*
X0137587Y0090618D01*
X0137000Y0094250D02*
X0132000Y0089250D01*
X0122000Y0089250D02*
X0122000Y0050500D01*
X0161100Y0063658D02*
X0176434Y0063658D01*
X0176848Y0064656D02*
X0161100Y0064656D01*
X0161100Y0065655D02*
X0177850Y0065655D01*
X0181150Y0065655D02*
X0181416Y0065655D01*
X0181639Y0066653D02*
X0161100Y0066653D01*
X0161100Y0067652D02*
X0182290Y0067652D01*
X0186710Y0067652D02*
X0187800Y0067652D01*
X0187800Y0068650D02*
X0161100Y0068650D01*
X0187361Y0066653D02*
X0187800Y0066653D01*
X0187800Y0065655D02*
X0187584Y0065655D01*
X0187489Y0064656D02*
X0187800Y0064656D01*
X0187800Y0063658D02*
X0187019Y0063658D01*
X0206100Y0054671D02*
X0210400Y0054671D01*
X0210400Y0053673D02*
X0206100Y0053673D01*
X0206100Y0052674D02*
X0210400Y0052674D01*
X0210400Y0051676D02*
X0206100Y0051676D01*
X0206100Y0050677D02*
X0210400Y0050677D01*
X0210400Y0049679D02*
X0206100Y0049679D01*
X0206100Y0048680D02*
X0210400Y0048680D01*
X0210400Y0047682D02*
X0206100Y0047682D01*
X0206100Y0046683D02*
X0210400Y0046683D01*
X0210400Y0045684D02*
X0206100Y0045684D01*
X0206100Y0044686D02*
X0210400Y0044686D01*
X0210400Y0043687D02*
X0206100Y0043687D01*
X0206100Y0042689D02*
X0210400Y0042689D01*
X0210400Y0041690D02*
X0206100Y0041690D01*
X0205705Y0040692D02*
X0210400Y0040692D01*
X0210400Y0039693D02*
X0204706Y0039693D01*
X0203708Y0038695D02*
X0210400Y0038695D01*
X0210400Y0037696D02*
X0202709Y0037696D01*
X0201711Y0036698D02*
X0210400Y0036698D01*
X0210400Y0035699D02*
X0200712Y0035699D01*
X0199714Y0034701D02*
X0210400Y0034701D01*
X0199182Y0038695D02*
X0002600Y0038695D01*
X0002600Y0039693D02*
X0200181Y0039693D01*
X0201179Y0040692D02*
X0002600Y0040692D01*
X0002600Y0041690D02*
X0202178Y0041690D01*
X0198184Y0037696D02*
X0002600Y0037696D01*
X0002600Y0036698D02*
X0197185Y0036698D01*
X0196187Y0035699D02*
X0002600Y0035699D01*
X0002600Y0034701D02*
X0195188Y0034701D01*
X0194190Y0033702D02*
X0193271Y0033702D01*
X0178948Y0032704D02*
X0175052Y0032704D01*
X0175962Y0031705D02*
X0178038Y0031705D01*
X0177624Y0030707D02*
X0176376Y0030707D01*
X0176600Y0029708D02*
X0177400Y0029708D01*
X0177400Y0028710D02*
X0176600Y0028710D01*
X0176342Y0027711D02*
X0177658Y0027711D01*
X0178072Y0026713D02*
X0175928Y0026713D01*
X0174970Y0025714D02*
X0179030Y0025714D01*
X0180926Y0024716D02*
X0173074Y0024716D01*
X0167000Y0024250D02*
X0167000Y0011750D01*
X0187000Y0009250D02*
X0187000Y0024250D01*
X0182000Y0029250D01*
X0183074Y0024716D02*
X0184271Y0024716D01*
X0167000Y0024250D02*
X0162000Y0029250D01*
X0199922Y0005744D02*
X0294078Y0005744D01*
X0294643Y0004746D02*
X0199357Y0004746D01*
X0293074Y0024716D02*
X0294271Y0024716D01*
X0297000Y0024250D02*
X0297000Y0006750D01*
X0297000Y0024250D02*
X0292000Y0029250D01*
X0296342Y0027711D02*
X0307658Y0027711D01*
X0307400Y0028710D02*
X0296600Y0028710D01*
X0296600Y0029708D02*
X0307400Y0029708D01*
X0307624Y0030707D02*
X0296376Y0030707D01*
X0295962Y0031705D02*
X0308038Y0031705D01*
X0308948Y0032704D02*
X0295052Y0032704D01*
X0296800Y0026713D02*
X0308072Y0026713D01*
X0309030Y0025714D02*
X0297798Y0025714D01*
X0214500Y0073000D02*
X0214500Y0074250D01*
X0222000Y0081750D01*
X0212814Y0075640D02*
X0206186Y0075640D01*
X0207159Y0074641D02*
X0211841Y0074641D01*
X0211428Y0073643D02*
X0207572Y0073643D01*
X0207584Y0072644D02*
X0211416Y0072644D01*
X0254880Y0085625D02*
X0259120Y0085625D01*
X0258121Y0086623D02*
X0255879Y0086623D01*
X0256305Y0087622D02*
X0257695Y0087622D01*
X0257400Y0088620D02*
X0256600Y0088620D01*
X0256600Y0089619D02*
X0257400Y0089619D01*
X0257587Y0090618D02*
X0256413Y0090618D01*
X0256629Y0091616D02*
X0258001Y0091616D01*
X0257627Y0092615D02*
X0258859Y0092615D01*
X0258600Y0093613D02*
X0260513Y0093613D01*
X0258600Y0094612D02*
X0265099Y0094612D01*
X0265400Y0095610D02*
X0258600Y0095610D01*
X0258600Y0096609D02*
X0265400Y0096609D01*
X0265400Y0097607D02*
X0258600Y0097607D01*
X0258600Y0098606D02*
X0265400Y0098606D01*
X0265400Y0099604D02*
X0259216Y0099604D01*
X0259863Y0100603D02*
X0265400Y0100603D01*
X0265335Y0101601D02*
X0260084Y0101601D01*
X0259986Y0102600D02*
X0264345Y0102600D01*
X0263932Y0103598D02*
X0259514Y0103598D01*
X0258187Y0104597D02*
X0263916Y0104597D01*
X0267000Y0104250D02*
X0267000Y0094250D01*
X0262000Y0089250D01*
X0266413Y0090618D02*
X0267587Y0090618D01*
X0267400Y0089619D02*
X0266600Y0089619D01*
X0266600Y0088620D02*
X0267400Y0088620D01*
X0267695Y0087622D02*
X0266305Y0087622D01*
X0265879Y0086623D02*
X0268121Y0086623D01*
X0269120Y0085625D02*
X0264880Y0085625D01*
X0257000Y0094250D02*
X0252000Y0089250D01*
X0253487Y0093613D02*
X0254100Y0093613D01*
X0257000Y0094250D02*
X0257000Y0101750D01*
X0235831Y0099604D02*
X0198600Y0099604D01*
X0198600Y0098606D02*
X0234494Y0098606D01*
X0234017Y0097607D02*
X0198600Y0097607D01*
X0198600Y0096609D02*
X0233916Y0096609D01*
X0263487Y0093613D02*
X0264100Y0093613D01*
X0266629Y0091616D02*
X0268001Y0091616D01*
X0267627Y0092615D02*
X0268859Y0092615D01*
X0292000Y0089250D02*
X0297000Y0094250D01*
X0297627Y0092615D02*
X0308859Y0092615D01*
X0308001Y0091616D02*
X0296629Y0091616D01*
X0296413Y0090618D02*
X0307587Y0090618D01*
X0307400Y0089619D02*
X0296600Y0089619D01*
X0296600Y0088620D02*
X0307400Y0088620D01*
X0307695Y0087622D02*
X0296305Y0087622D01*
X0295879Y0086623D02*
X0308121Y0086623D01*
X0309120Y0085625D02*
X0294880Y0085625D01*
X0314880Y0085625D02*
X0319120Y0085625D01*
X0318121Y0086623D02*
X0315879Y0086623D01*
X0316305Y0087622D02*
X0317695Y0087622D01*
X0317400Y0088620D02*
X0316600Y0088620D01*
X0316600Y0089619D02*
X0317400Y0089619D01*
X0317587Y0090618D02*
X0316413Y0090618D01*
X0315999Y0091616D02*
X0318001Y0091616D01*
X0318859Y0092615D02*
X0315141Y0092615D01*
X0325141Y0092615D02*
X0328859Y0092615D01*
X0328001Y0091616D02*
X0325999Y0091616D01*
X0326413Y0090618D02*
X0327587Y0090618D01*
X0327400Y0089619D02*
X0326600Y0089619D01*
X0326600Y0088620D02*
X0327400Y0088620D01*
X0327695Y0087622D02*
X0326305Y0087622D01*
X0325879Y0086623D02*
X0328121Y0086623D01*
X0329120Y0085625D02*
X0324880Y0085625D01*
X0334880Y0085625D02*
X0339120Y0085625D01*
X0338121Y0086623D02*
X0335879Y0086623D01*
X0336305Y0087622D02*
X0337695Y0087622D01*
X0337400Y0088620D02*
X0336600Y0088620D01*
X0336600Y0089619D02*
X0337400Y0089619D01*
X0337587Y0090618D02*
X0336413Y0090618D01*
X0335999Y0091616D02*
X0338001Y0091616D01*
X0338859Y0092615D02*
X0335141Y0092615D01*
X0345141Y0092615D02*
X0348859Y0092615D01*
X0348001Y0091616D02*
X0345999Y0091616D01*
X0346413Y0090618D02*
X0347587Y0090618D01*
X0347400Y0089619D02*
X0346600Y0089619D01*
X0346600Y0088620D02*
X0347400Y0088620D01*
X0347695Y0087622D02*
X0346305Y0087622D01*
X0345879Y0086623D02*
X0348121Y0086623D01*
X0349120Y0085625D02*
X0344880Y0085625D01*
X0354880Y0085625D02*
X0359120Y0085625D01*
X0358121Y0086623D02*
X0355879Y0086623D01*
X0356305Y0087622D02*
X0357695Y0087622D01*
X0357400Y0088620D02*
X0356600Y0088620D01*
X0356600Y0089619D02*
X0357400Y0089619D01*
X0357587Y0090618D02*
X0356413Y0090618D01*
X0355999Y0091616D02*
X0358001Y0091616D01*
X0358859Y0092615D02*
X0355141Y0092615D01*
X0365141Y0092615D02*
X0368859Y0092615D01*
X0368001Y0091616D02*
X0365999Y0091616D01*
X0366413Y0090618D02*
X0367587Y0090618D01*
X0367400Y0089619D02*
X0366600Y0089619D01*
X0366600Y0088620D02*
X0367400Y0088620D01*
X0367695Y0087622D02*
X0366305Y0087622D01*
X0365879Y0086623D02*
X0368121Y0086623D01*
X0369120Y0085625D02*
X0364880Y0085625D01*
X0374880Y0085625D02*
X0379120Y0085625D01*
X0378121Y0086623D02*
X0375879Y0086623D01*
X0376305Y0087622D02*
X0377695Y0087622D01*
X0377400Y0088620D02*
X0376600Y0088620D01*
X0376600Y0089619D02*
X0377400Y0089619D01*
X0377587Y0090618D02*
X0376413Y0090618D01*
X0375999Y0091616D02*
X0378001Y0091616D01*
X0378859Y0092615D02*
X0375141Y0092615D01*
X0385141Y0092615D02*
X0388859Y0092615D01*
X0388001Y0091616D02*
X0385999Y0091616D01*
X0386413Y0090618D02*
X0387587Y0090618D01*
X0387400Y0089619D02*
X0386600Y0089619D01*
X0386600Y0088620D02*
X0387400Y0088620D01*
X0387695Y0087622D02*
X0386305Y0087622D01*
X0385879Y0086623D02*
X0388121Y0086623D01*
X0389120Y0085625D02*
X0384880Y0085625D01*
X0397016Y0114582D02*
X0100181Y0114582D01*
X0099182Y0115580D02*
X0394868Y0115580D01*
X0197000Y0109250D02*
X0197000Y0094250D01*
X0192000Y0089250D01*
X0193487Y0093613D02*
X0194100Y0093613D01*
X0184100Y0093613D02*
X0183487Y0093613D01*
X0145400Y0095610D02*
X0139866Y0095610D01*
X0140084Y0096609D02*
X0145317Y0096609D01*
X0144342Y0097607D02*
X0139983Y0097607D01*
X0139506Y0098606D02*
X0143929Y0098606D01*
X0143916Y0099604D02*
X0138169Y0099604D01*
X0135831Y0099604D02*
X0103600Y0099604D01*
X0103600Y0098606D02*
X0134494Y0098606D01*
X0134017Y0097607D02*
X0103600Y0097607D01*
X0103600Y0096609D02*
X0133916Y0096609D01*
X0134134Y0095610D02*
X0103600Y0095610D01*
X0103600Y0094612D02*
X0134777Y0094612D01*
X0134100Y0093613D02*
X0133487Y0093613D01*
X0137000Y0094250D02*
X0137000Y0096750D01*
X0144222Y0100603D02*
X0103600Y0100603D01*
X0103600Y0101601D02*
X0144989Y0101601D01*
X0103600Y0110588D02*
X0194216Y0110588D01*
X0194974Y0111586D02*
X0103176Y0111586D01*
X0102000Y0110500D02*
X0102000Y0089250D01*
X0059500Y0109250D02*
X0053250Y0103000D01*
X0033250Y0103000D01*
X0027000Y0096750D01*
X0016600Y0093613D02*
X0013487Y0093613D01*
X0015141Y0092615D02*
X0015602Y0092615D01*
X0005750Y0093000D02*
X0022000Y0109250D01*
X0026800Y0109589D02*
X0027200Y0109589D01*
X0027200Y0108591D02*
X0026800Y0108591D01*
X0026800Y0107592D02*
X0027491Y0107592D01*
X0027905Y0106594D02*
X0026800Y0106594D01*
X0026800Y0105595D02*
X0028582Y0105595D01*
X0027584Y0104597D02*
X0026185Y0104597D01*
X0032000Y0106750D02*
X0032000Y0109250D01*
X0027359Y0110588D02*
X0026800Y0110588D01*
X0026800Y0111586D02*
X0027772Y0111586D01*
X0028547Y0112585D02*
X0026800Y0112585D01*
X0026505Y0113583D02*
X0029918Y0113583D01*
X0034082Y0113583D02*
X0039491Y0113583D01*
X0038264Y0112585D02*
X0035453Y0112585D01*
X0036228Y0111586D02*
X0037579Y0111586D01*
X0037177Y0110588D02*
X0036641Y0110588D01*
X0041516Y0111586D02*
X0042484Y0111586D01*
X0042484Y0112585D02*
X0041516Y0112585D01*
X0041516Y0113583D02*
X0042484Y0113583D01*
X0044509Y0113583D02*
X0049918Y0113583D01*
X0048547Y0112585D02*
X0045736Y0112585D01*
X0046421Y0111586D02*
X0047772Y0111586D01*
X0047359Y0110588D02*
X0046823Y0110588D01*
X0046958Y0108591D02*
X0047200Y0108591D01*
X0047491Y0107592D02*
X0046719Y0107592D01*
X0046250Y0106594D02*
X0047905Y0106594D01*
X0048867Y0105595D02*
X0045416Y0105595D01*
X0059500Y0109250D02*
X0062000Y0109250D01*
X0066228Y0111586D02*
X0094974Y0111586D01*
X0097652Y0112585D02*
X0065453Y0112585D01*
X0005750Y0093000D02*
X0005750Y0070500D01*
X0008614Y0071646D02*
X0010400Y0071646D01*
X0010400Y0072644D02*
X0007967Y0072644D01*
X0007350Y0073643D02*
X0010400Y0073643D01*
X0010400Y0074641D02*
X0007350Y0074641D01*
X0007350Y0075640D02*
X0010400Y0075640D01*
X0010400Y0076638D02*
X0007350Y0076638D01*
X0007350Y0077637D02*
X0010400Y0077637D01*
X0010400Y0078635D02*
X0007350Y0078635D01*
X0013600Y0074641D02*
X0020400Y0074641D01*
X0020400Y0073643D02*
X0013600Y0073643D01*
X0013600Y0072644D02*
X0020400Y0072644D01*
X0020400Y0071646D02*
X0013600Y0071646D01*
X0013600Y0070647D02*
X0020400Y0070647D01*
X0020400Y0069649D02*
X0013600Y0069649D01*
X0013600Y0068650D02*
X0020400Y0068650D01*
X0020400Y0067652D02*
X0013600Y0067652D01*
X0013600Y0066653D02*
X0020400Y0066653D01*
X0020833Y0065655D02*
X0013600Y0065655D01*
X0010400Y0067652D02*
X0006933Y0067652D01*
X0008262Y0068650D02*
X0010400Y0068650D01*
X0010400Y0069649D02*
X0008736Y0069649D01*
X0008834Y0070647D02*
X0010400Y0070647D01*
X0028758Y0071646D02*
X0030400Y0071646D01*
X0030400Y0072644D02*
X0029673Y0072644D01*
X0030084Y0073643D02*
X0030400Y0073643D01*
X0030400Y0074641D02*
X0030084Y0074641D01*
X0012000Y0089250D02*
X0012000Y0055500D01*
X0018250Y0049250D01*
X0083074Y0024716D02*
X0084271Y0024716D01*
X0045400Y0019723D02*
X0040084Y0019723D01*
X0040084Y0018725D02*
X0044613Y0018725D01*
X0044066Y0017726D02*
X0039707Y0017726D01*
X0038839Y0016728D02*
X0043916Y0016728D01*
D15*
X0094500Y0039250D02*
X0094500Y0074250D01*
D16*
X0179500Y0063000D02*
X0179500Y0045500D01*
X0184500Y0045500D02*
X0184500Y0065500D01*
X0189500Y0076750D02*
X0189500Y0045500D01*
X0272000Y0058000D02*
X0272000Y0089250D01*
X0192000Y0079250D02*
X0189500Y0076750D01*
M02*
