G75*
%MOIN*%
%OFA0B0*%
%FSLAX25Y25*%
%IPPOS*%
%LPD*%
%AMOC8*
5,1,8,0,0,1.08239X$1,22.5*
%
%ADD10R,0.05118X0.05906*%
%ADD11R,0.04600X0.06300*%
%ADD12R,0.03937X0.03150*%
%ADD13R,0.05906X0.05118*%
%ADD14R,0.02500X0.09000*%
%ADD15C,0.06600*%
%ADD16R,0.07000X0.07000*%
%ADD17C,0.07000*%
%ADD18C,0.01600*%
%ADD19C,0.03569*%
%ADD20C,0.01000*%
%ADD21C,0.01200*%
D10*
X0040760Y0039250D03*
X0048240Y0039250D03*
X0048240Y0049250D03*
X0040760Y0049250D03*
X0040760Y0059250D03*
X0048240Y0059250D03*
X0058260Y0066750D03*
X0065740Y0066750D03*
X0065740Y0074250D03*
X0058260Y0074250D03*
D11*
X0032500Y0059250D03*
X0026500Y0059250D03*
X0026500Y0049250D03*
X0032500Y0049250D03*
X0032500Y0039250D03*
X0026500Y0039250D03*
D12*
X0054063Y0049250D03*
X0061937Y0049250D03*
D13*
X0102000Y0074510D03*
X0102000Y0081990D03*
D14*
X0169500Y0079250D03*
X0174500Y0079250D03*
X0179500Y0079250D03*
X0184500Y0079250D03*
X0189500Y0079250D03*
X0194500Y0079250D03*
X0199500Y0079250D03*
X0204500Y0079250D03*
X0209500Y0079250D03*
X0214500Y0079250D03*
X0219500Y0079250D03*
X0224500Y0079250D03*
X0229500Y0079250D03*
X0234500Y0079250D03*
X0234500Y0039250D03*
X0229500Y0039250D03*
X0224500Y0039250D03*
X0219500Y0039250D03*
X0214500Y0039250D03*
X0209500Y0039250D03*
X0204500Y0039250D03*
X0199500Y0039250D03*
X0194500Y0039250D03*
X0189500Y0039250D03*
X0184500Y0039250D03*
X0179500Y0039250D03*
X0174500Y0039250D03*
X0169500Y0039250D03*
D15*
X0172000Y0029250D03*
X0162000Y0029250D03*
X0152000Y0029250D03*
X0142000Y0029250D03*
X0132000Y0029250D03*
X0122000Y0029250D03*
X0112000Y0029250D03*
X0092000Y0029250D03*
X0082000Y0029250D03*
X0072000Y0029250D03*
X0062000Y0029250D03*
X0052000Y0029250D03*
X0042000Y0029250D03*
X0032000Y0029250D03*
X0022000Y0029250D03*
X0012000Y0029250D03*
X0182000Y0029250D03*
X0192000Y0029250D03*
X0212000Y0029250D03*
X0222000Y0029250D03*
X0232000Y0029250D03*
X0242000Y0029250D03*
X0252000Y0029250D03*
X0262000Y0029250D03*
X0272000Y0029250D03*
X0282000Y0029250D03*
X0292000Y0029250D03*
X0312000Y0029250D03*
X0322000Y0029250D03*
X0332000Y0029250D03*
X0342000Y0029250D03*
X0352000Y0029250D03*
X0362000Y0029250D03*
X0372000Y0029250D03*
X0382000Y0029250D03*
X0392000Y0029250D03*
X0392000Y0089250D03*
X0382000Y0089250D03*
X0372000Y0089250D03*
X0362000Y0089250D03*
X0352000Y0089250D03*
X0342000Y0089250D03*
X0332000Y0089250D03*
X0322000Y0089250D03*
X0312000Y0089250D03*
X0292000Y0089250D03*
X0282000Y0089250D03*
X0272000Y0089250D03*
X0262000Y0089250D03*
X0252000Y0089250D03*
X0242000Y0089250D03*
X0232000Y0089250D03*
X0222000Y0089250D03*
X0212000Y0089250D03*
X0192000Y0089250D03*
X0182000Y0089250D03*
X0172000Y0089250D03*
X0162000Y0089250D03*
X0152000Y0089250D03*
X0142000Y0089250D03*
X0132000Y0089250D03*
X0122000Y0089250D03*
X0112000Y0089250D03*
X0092000Y0089250D03*
X0082000Y0089250D03*
X0072000Y0089250D03*
X0062000Y0089250D03*
X0052000Y0089250D03*
X0042000Y0089250D03*
X0032000Y0089250D03*
X0022000Y0089250D03*
X0012000Y0089250D03*
D16*
X0022000Y0109250D03*
D17*
X0032000Y0109250D03*
X0042000Y0109250D03*
X0052000Y0109250D03*
X0062000Y0109250D03*
D18*
X0042000Y0109250D02*
X0042000Y0106750D01*
X0037000Y0101750D01*
X0015750Y0101750D01*
X0005750Y0091750D01*
X0005750Y0085500D01*
X0008250Y0083000D01*
X0085750Y0083000D01*
X0094500Y0074250D01*
X0094760Y0074510D01*
X0102000Y0074510D01*
X0102000Y0081990D02*
X0102000Y0089250D01*
X0102000Y0081990D02*
X0166760Y0081990D01*
X0169500Y0079250D01*
X0169500Y0039250D02*
X0094500Y0039250D01*
D19*
X0047000Y0016750D03*
X0037000Y0019250D03*
X0027000Y0021750D03*
X0057000Y0014250D03*
X0067000Y0011750D03*
X0087000Y0009250D03*
X0097000Y0006750D03*
X0137000Y0019250D03*
X0127000Y0021750D03*
X0147000Y0016750D03*
X0157000Y0014250D03*
X0167000Y0011750D03*
X0187000Y0009250D03*
X0197000Y0006750D03*
X0237000Y0019250D03*
X0227000Y0021750D03*
X0247000Y0016750D03*
X0257000Y0014250D03*
X0267000Y0011750D03*
X0287000Y0009250D03*
X0297000Y0006750D03*
X0262000Y0043000D03*
X0252000Y0046750D03*
X0272000Y0058000D03*
X0242000Y0066750D03*
X0232000Y0060500D03*
X0212000Y0060500D03*
X0184500Y0065500D03*
X0179500Y0063000D03*
X0174500Y0060500D03*
X0204500Y0073000D03*
X0214500Y0073000D03*
X0237000Y0096750D03*
X0247000Y0099250D03*
X0257000Y0101750D03*
X0267000Y0104250D03*
X0287000Y0106750D03*
X0297000Y0109250D03*
X0197000Y0109250D03*
X0187000Y0106750D03*
X0167000Y0104250D03*
X0157000Y0101750D03*
X0147000Y0099250D03*
X0137000Y0096750D03*
X0102000Y0089250D03*
X0057000Y0101750D03*
X0067000Y0104250D03*
X0087000Y0106750D03*
X0097000Y0109250D03*
X0047000Y0099250D03*
X0037000Y0096750D03*
X0017000Y0079250D03*
X0027000Y0074250D03*
X0005750Y0070500D03*
X0032000Y0066750D03*
X0064500Y0056750D03*
X0072000Y0053000D03*
X0094500Y0039250D03*
X0122000Y0050500D03*
X0159500Y0048000D03*
X0174500Y0045500D03*
X0179500Y0045500D03*
X0184500Y0045500D03*
X0189500Y0045500D03*
X0112000Y0065500D03*
X0132000Y0069250D03*
X0094500Y0074250D03*
X0018250Y0049250D03*
D20*
X0026500Y0049250D01*
X0032500Y0049250D02*
X0040760Y0049250D01*
X0048240Y0049250D02*
X0048240Y0039250D01*
X0040760Y0039250D02*
X0032500Y0039250D01*
X0026500Y0039250D02*
X0022000Y0039250D01*
X0012000Y0029250D01*
X0017000Y0024250D01*
X0024500Y0024250D01*
X0027000Y0026750D01*
X0029500Y0024250D01*
X0034500Y0024250D01*
X0037000Y0026750D01*
X0039500Y0024250D01*
X0044500Y0024250D01*
X0047000Y0026750D01*
X0049500Y0024250D01*
X0054500Y0024250D01*
X0057000Y0026750D01*
X0059500Y0024250D01*
X0064500Y0024250D01*
X0067000Y0026750D01*
X0069500Y0024250D01*
X0084500Y0024250D01*
X0087000Y0026750D01*
X0089500Y0024250D01*
X0094500Y0024250D01*
X0097000Y0026750D01*
X0099500Y0024250D01*
X0107000Y0024250D01*
X0112000Y0029250D01*
X0117000Y0024250D01*
X0124500Y0024250D01*
X0127000Y0026750D01*
X0129500Y0024250D01*
X0134500Y0024250D01*
X0137000Y0026750D01*
X0139500Y0024250D01*
X0144500Y0024250D01*
X0147000Y0026750D01*
X0149500Y0024250D01*
X0154500Y0024250D01*
X0157000Y0026750D01*
X0159500Y0024250D01*
X0164500Y0024250D01*
X0167000Y0026750D01*
X0169500Y0024250D01*
X0184500Y0024250D01*
X0187000Y0026750D01*
X0189500Y0024250D01*
X0194500Y0024250D01*
X0197000Y0026750D01*
X0199500Y0024250D01*
X0207000Y0024250D01*
X0212000Y0029250D01*
X0217000Y0024250D01*
X0224500Y0024250D01*
X0227000Y0026750D01*
X0229500Y0024250D01*
X0234500Y0024250D01*
X0237000Y0026750D01*
X0239500Y0024250D01*
X0244500Y0024250D01*
X0247000Y0026750D01*
X0249500Y0024250D01*
X0254500Y0024250D01*
X0257000Y0026750D01*
X0259500Y0024250D01*
X0264500Y0024250D01*
X0267000Y0026750D01*
X0269500Y0024250D01*
X0284500Y0024250D01*
X0287000Y0026750D01*
X0289500Y0024250D01*
X0294500Y0024250D01*
X0297000Y0026750D01*
X0299500Y0024250D01*
X0307000Y0024250D01*
X0312000Y0029250D01*
X0314500Y0021750D02*
X0322000Y0029250D01*
X0322000Y0019250D02*
X0332000Y0029250D01*
X0342000Y0029250D02*
X0329500Y0016750D01*
X0299500Y0016750D01*
X0297000Y0019250D01*
X0294500Y0016750D01*
X0289500Y0016750D01*
X0287000Y0019250D01*
X0284500Y0016750D01*
X0269500Y0016750D01*
X0267000Y0019250D01*
X0264500Y0016750D01*
X0259500Y0016750D01*
X0257000Y0019250D01*
X0254500Y0016750D01*
X0247000Y0016750D01*
X0239500Y0016750D01*
X0237000Y0014250D01*
X0234500Y0016750D01*
X0229500Y0016750D01*
X0227000Y0014250D01*
X0224500Y0016750D01*
X0199500Y0016750D01*
X0197000Y0019250D01*
X0194500Y0016750D01*
X0189500Y0016750D01*
X0187000Y0019250D01*
X0184500Y0016750D01*
X0169500Y0016750D01*
X0167000Y0019250D01*
X0164500Y0016750D01*
X0159500Y0016750D01*
X0157000Y0019250D01*
X0154500Y0016750D01*
X0147000Y0016750D01*
X0139500Y0016750D01*
X0137000Y0014250D01*
X0134500Y0016750D01*
X0129500Y0016750D01*
X0127000Y0014250D01*
X0124500Y0016750D01*
X0099500Y0016750D01*
X0097000Y0019250D01*
X0094500Y0016750D01*
X0089500Y0016750D01*
X0087000Y0019250D01*
X0084500Y0016750D01*
X0069500Y0016750D01*
X0067000Y0019250D01*
X0064500Y0016750D01*
X0059500Y0016750D01*
X0057000Y0019250D01*
X0054500Y0016750D01*
X0047000Y0016750D01*
X0044500Y0019250D02*
X0037000Y0019250D01*
X0034500Y0021750D02*
X0037000Y0024250D01*
X0039500Y0021750D01*
X0044500Y0021750D01*
X0047000Y0024250D01*
X0049500Y0021750D01*
X0054500Y0021750D01*
X0057000Y0024250D01*
X0059500Y0021750D01*
X0064500Y0021750D01*
X0067000Y0024250D01*
X0069500Y0021750D01*
X0084500Y0021750D01*
X0087000Y0024250D01*
X0089500Y0021750D01*
X0094500Y0021750D01*
X0097000Y0024250D01*
X0099500Y0021750D01*
X0127000Y0021750D01*
X0134500Y0021750D01*
X0137000Y0024250D01*
X0139500Y0021750D01*
X0144500Y0021750D01*
X0147000Y0024250D01*
X0149500Y0021750D01*
X0154500Y0021750D01*
X0157000Y0024250D01*
X0159500Y0021750D01*
X0164500Y0021750D01*
X0167000Y0024250D01*
X0169500Y0021750D01*
X0184500Y0021750D01*
X0187000Y0024250D01*
X0189500Y0021750D01*
X0194500Y0021750D01*
X0197000Y0024250D01*
X0199500Y0021750D01*
X0227000Y0021750D01*
X0234500Y0021750D01*
X0237000Y0024250D01*
X0239500Y0021750D01*
X0244500Y0021750D01*
X0247000Y0024250D01*
X0249500Y0021750D01*
X0254500Y0021750D01*
X0257000Y0024250D01*
X0259500Y0021750D01*
X0264500Y0021750D01*
X0267000Y0024250D01*
X0269500Y0021750D01*
X0284500Y0021750D01*
X0287000Y0024250D01*
X0289500Y0021750D01*
X0294500Y0021750D01*
X0297000Y0024250D01*
X0299500Y0021750D01*
X0314500Y0021750D01*
X0322000Y0019250D02*
X0299500Y0019250D01*
X0297000Y0021750D01*
X0294500Y0019250D01*
X0289500Y0019250D01*
X0287000Y0021750D01*
X0284500Y0019250D01*
X0269500Y0019250D01*
X0267000Y0021750D01*
X0264500Y0019250D01*
X0259500Y0019250D01*
X0257000Y0021750D01*
X0254500Y0019250D01*
X0249500Y0019250D01*
X0247000Y0021750D01*
X0244500Y0019250D01*
X0237000Y0019250D01*
X0229500Y0019250D01*
X0227000Y0016750D01*
X0224500Y0019250D01*
X0199500Y0019250D01*
X0197000Y0021750D01*
X0194500Y0019250D01*
X0189500Y0019250D01*
X0187000Y0021750D01*
X0184500Y0019250D01*
X0169500Y0019250D01*
X0167000Y0021750D01*
X0164500Y0019250D01*
X0159500Y0019250D01*
X0157000Y0021750D01*
X0154500Y0019250D01*
X0149500Y0019250D01*
X0147000Y0021750D01*
X0144500Y0019250D01*
X0137000Y0019250D01*
X0129500Y0019250D01*
X0127000Y0016750D01*
X0124500Y0019250D01*
X0099500Y0019250D01*
X0097000Y0021750D01*
X0094500Y0019250D01*
X0089500Y0019250D01*
X0087000Y0021750D01*
X0084500Y0019250D01*
X0069500Y0019250D01*
X0067000Y0021750D01*
X0064500Y0019250D01*
X0059500Y0019250D01*
X0057000Y0021750D01*
X0054500Y0019250D01*
X0049500Y0019250D01*
X0047000Y0021750D01*
X0044500Y0019250D01*
X0034500Y0021750D02*
X0027000Y0021750D01*
X0057000Y0014250D02*
X0064500Y0014250D01*
X0067000Y0016750D01*
X0069500Y0014250D01*
X0084500Y0014250D01*
X0087000Y0016750D01*
X0089500Y0014250D01*
X0094500Y0014250D01*
X0097000Y0016750D01*
X0099500Y0014250D01*
X0124500Y0014250D01*
X0127000Y0011750D01*
X0129500Y0014250D01*
X0134500Y0014250D01*
X0137000Y0011750D01*
X0139500Y0014250D01*
X0144500Y0014250D01*
X0147000Y0011750D01*
X0149500Y0014250D01*
X0157000Y0014250D01*
X0164500Y0014250D01*
X0167000Y0016750D01*
X0169500Y0014250D01*
X0184500Y0014250D01*
X0187000Y0016750D01*
X0189500Y0014250D01*
X0194500Y0014250D01*
X0197000Y0016750D01*
X0199500Y0014250D01*
X0224500Y0014250D01*
X0227000Y0011750D01*
X0229500Y0014250D01*
X0234500Y0014250D01*
X0237000Y0011750D01*
X0239500Y0014250D01*
X0244500Y0014250D01*
X0247000Y0011750D01*
X0249500Y0014250D01*
X0257000Y0014250D01*
X0264500Y0014250D01*
X0267000Y0016750D01*
X0269500Y0014250D01*
X0284500Y0014250D01*
X0287000Y0016750D01*
X0289500Y0014250D01*
X0294500Y0014250D01*
X0297000Y0016750D01*
X0299500Y0014250D01*
X0337000Y0014250D01*
X0352000Y0029250D01*
X0362000Y0029250D02*
X0344500Y0011750D01*
X0299500Y0011750D01*
X0297000Y0014250D01*
X0294500Y0011750D01*
X0289500Y0011750D01*
X0287000Y0014250D01*
X0284500Y0011750D01*
X0267000Y0011750D01*
X0259500Y0011750D01*
X0257000Y0009250D01*
X0254500Y0011750D01*
X0249500Y0011750D01*
X0247000Y0009250D01*
X0244500Y0011750D01*
X0239500Y0011750D01*
X0237000Y0009250D01*
X0234500Y0011750D01*
X0229500Y0011750D01*
X0227000Y0009250D01*
X0224500Y0011750D01*
X0199500Y0011750D01*
X0197000Y0014250D01*
X0194500Y0011750D01*
X0189500Y0011750D01*
X0187000Y0014250D01*
X0184500Y0011750D01*
X0167000Y0011750D01*
X0159500Y0011750D01*
X0157000Y0009250D01*
X0154500Y0011750D01*
X0149500Y0011750D01*
X0147000Y0009250D01*
X0144500Y0011750D01*
X0139500Y0011750D01*
X0137000Y0009250D01*
X0134500Y0011750D01*
X0129500Y0011750D01*
X0127000Y0009250D01*
X0124500Y0011750D01*
X0099500Y0011750D01*
X0097000Y0014250D01*
X0094500Y0011750D01*
X0089500Y0011750D01*
X0087000Y0014250D01*
X0084500Y0011750D01*
X0067000Y0011750D01*
X0087000Y0009250D02*
X0094500Y0009250D01*
X0097000Y0011750D01*
X0099500Y0009250D01*
X0124500Y0009250D01*
X0127000Y0006750D01*
X0129500Y0009250D01*
X0134500Y0009250D01*
X0137000Y0006750D01*
X0139500Y0009250D01*
X0144500Y0009250D01*
X0147000Y0006750D01*
X0149500Y0009250D01*
X0154500Y0009250D01*
X0157000Y0006750D01*
X0159500Y0009250D01*
X0164500Y0009250D01*
X0167000Y0006750D01*
X0169500Y0009250D01*
X0187000Y0009250D01*
X0194500Y0009250D01*
X0197000Y0011750D01*
X0199500Y0009250D01*
X0224500Y0009250D01*
X0227000Y0006750D01*
X0229500Y0009250D01*
X0234500Y0009250D01*
X0237000Y0006750D01*
X0239500Y0009250D01*
X0244500Y0009250D01*
X0247000Y0006750D01*
X0249500Y0009250D01*
X0254500Y0009250D01*
X0257000Y0006750D01*
X0259500Y0009250D01*
X0264500Y0009250D01*
X0267000Y0006750D01*
X0269500Y0009250D01*
X0287000Y0009250D01*
X0294500Y0009250D01*
X0297000Y0011750D01*
X0299500Y0009250D01*
X0362000Y0009250D01*
X0382000Y0029250D01*
X0392000Y0029250D02*
X0369500Y0006750D01*
X0297000Y0006750D01*
X0289500Y0006750D01*
X0287000Y0004250D01*
X0284500Y0006750D01*
X0269500Y0006750D01*
X0267000Y0004250D01*
X0264500Y0006750D01*
X0259500Y0006750D01*
X0257000Y0004250D01*
X0254500Y0006750D01*
X0249500Y0006750D01*
X0247000Y0004250D01*
X0244500Y0006750D01*
X0239500Y0006750D01*
X0237000Y0004250D01*
X0234500Y0006750D01*
X0229500Y0006750D01*
X0227000Y0004250D01*
X0224500Y0006750D01*
X0197000Y0006750D01*
X0189500Y0006750D01*
X0187000Y0004250D01*
X0184500Y0006750D01*
X0169500Y0006750D01*
X0167000Y0004250D01*
X0164500Y0006750D01*
X0159500Y0006750D01*
X0157000Y0004250D01*
X0154500Y0006750D01*
X0149500Y0006750D01*
X0147000Y0004250D01*
X0144500Y0006750D01*
X0139500Y0006750D01*
X0137000Y0004250D01*
X0134500Y0006750D01*
X0129500Y0006750D01*
X0127000Y0004250D01*
X0124500Y0006750D01*
X0097000Y0006750D01*
X0174500Y0039250D02*
X0174500Y0045500D01*
X0173250Y0046750D01*
X0167000Y0046750D01*
X0163250Y0043000D01*
X0068187Y0043000D01*
X0061937Y0049250D01*
X0054063Y0049250D02*
X0048240Y0049250D01*
X0048240Y0059250D01*
X0040760Y0059250D02*
X0032500Y0059250D01*
X0027500Y0059250D02*
X0026500Y0059250D01*
X0025750Y0060000D01*
X0025750Y0064250D01*
X0028250Y0066750D01*
X0032000Y0066750D01*
X0045750Y0070500D02*
X0055750Y0060500D01*
X0060750Y0060500D01*
X0065740Y0065490D01*
X0065740Y0066750D01*
X0065750Y0066740D01*
X0065740Y0066750D02*
X0069500Y0066750D01*
X0072000Y0064250D01*
X0104500Y0064250D01*
X0113250Y0073000D01*
X0163250Y0073000D01*
X0165750Y0070500D01*
X0174500Y0070500D01*
X0179500Y0075500D01*
X0179500Y0079250D01*
X0174500Y0079250D02*
X0174500Y0074250D01*
X0173250Y0073000D01*
X0167000Y0073000D01*
X0164500Y0075500D01*
X0112000Y0075500D01*
X0105750Y0069250D01*
X0074500Y0069250D01*
X0069500Y0074250D01*
X0065740Y0074250D01*
X0065750Y0074260D01*
X0065750Y0078000D01*
X0064500Y0079250D01*
X0017000Y0079250D01*
X0027000Y0074250D02*
X0058260Y0074250D01*
X0058260Y0071750D01*
X0057010Y0073000D01*
X0058260Y0071750D02*
X0058260Y0066750D01*
X0045750Y0070500D02*
X0005750Y0070500D01*
X0064500Y0056750D02*
X0195750Y0056750D01*
X0209500Y0043000D01*
X0204500Y0044250D02*
X0194500Y0054250D01*
X0073250Y0054250D01*
X0072000Y0053000D01*
X0112000Y0065500D02*
X0177000Y0065500D01*
X0180750Y0069250D01*
X0185750Y0069250D01*
X0189500Y0073000D01*
X0189500Y0079250D01*
X0184500Y0079250D02*
X0184500Y0074250D01*
X0182000Y0071750D01*
X0179500Y0071750D01*
X0175750Y0068000D01*
X0133250Y0068000D01*
X0132000Y0069250D01*
X0174500Y0060500D02*
X0175750Y0059250D01*
X0197000Y0059250D01*
X0204500Y0051750D01*
X0332000Y0051750D01*
X0334500Y0051750D01*
X0372000Y0089250D01*
X0382000Y0089250D02*
X0364500Y0106750D01*
X0299500Y0106750D01*
X0297000Y0104250D01*
X0294500Y0106750D01*
X0287000Y0106750D01*
X0269500Y0106750D01*
X0267000Y0109250D01*
X0264500Y0106750D01*
X0259500Y0106750D01*
X0257000Y0109250D01*
X0254500Y0106750D01*
X0249500Y0106750D01*
X0247000Y0109250D01*
X0244500Y0106750D01*
X0239500Y0106750D01*
X0237000Y0109250D01*
X0234500Y0106750D01*
X0199500Y0106750D01*
X0197000Y0104250D01*
X0194500Y0106750D01*
X0187000Y0106750D01*
X0169500Y0106750D01*
X0167000Y0109250D01*
X0164500Y0106750D01*
X0159500Y0106750D01*
X0157000Y0109250D01*
X0154500Y0106750D01*
X0149500Y0106750D01*
X0147000Y0109250D01*
X0144500Y0106750D01*
X0139500Y0106750D01*
X0137000Y0109250D01*
X0134500Y0106750D01*
X0099500Y0106750D01*
X0097000Y0104250D01*
X0094500Y0106750D01*
X0087000Y0106750D01*
X0084500Y0104250D02*
X0087000Y0101750D01*
X0089500Y0104250D01*
X0094500Y0104250D01*
X0097000Y0101750D01*
X0099500Y0104250D01*
X0134500Y0104250D01*
X0137000Y0106750D01*
X0139500Y0104250D01*
X0144500Y0104250D01*
X0147000Y0106750D01*
X0149500Y0104250D01*
X0154500Y0104250D01*
X0157000Y0106750D01*
X0159500Y0104250D01*
X0167000Y0104250D01*
X0184500Y0104250D01*
X0187000Y0101750D01*
X0189500Y0104250D01*
X0194500Y0104250D01*
X0197000Y0101750D01*
X0199500Y0104250D01*
X0234500Y0104250D01*
X0237000Y0106750D01*
X0239500Y0104250D01*
X0244500Y0104250D01*
X0247000Y0106750D01*
X0249500Y0104250D01*
X0254500Y0104250D01*
X0257000Y0106750D01*
X0259500Y0104250D01*
X0267000Y0104250D01*
X0284500Y0104250D01*
X0287000Y0101750D01*
X0289500Y0104250D01*
X0294500Y0104250D01*
X0297000Y0101750D01*
X0299500Y0104250D01*
X0347000Y0104250D01*
X0362000Y0089250D01*
X0352000Y0089250D02*
X0339500Y0101750D01*
X0299500Y0101750D01*
X0297000Y0099250D01*
X0294500Y0101750D01*
X0289500Y0101750D01*
X0287000Y0099250D01*
X0284500Y0101750D01*
X0269500Y0101750D01*
X0267000Y0099250D01*
X0264500Y0101750D01*
X0257000Y0101750D01*
X0249500Y0101750D01*
X0247000Y0104250D01*
X0244500Y0101750D01*
X0239500Y0101750D01*
X0237000Y0104250D01*
X0234500Y0101750D01*
X0199500Y0101750D01*
X0197000Y0099250D01*
X0194500Y0101750D01*
X0189500Y0101750D01*
X0187000Y0099250D01*
X0184500Y0101750D01*
X0169500Y0101750D01*
X0167000Y0099250D01*
X0164500Y0101750D01*
X0157000Y0101750D01*
X0149500Y0101750D01*
X0147000Y0104250D01*
X0144500Y0101750D01*
X0139500Y0101750D01*
X0137000Y0104250D01*
X0134500Y0101750D01*
X0099500Y0101750D01*
X0097000Y0099250D01*
X0094500Y0101750D01*
X0089500Y0101750D01*
X0087000Y0099250D01*
X0084500Y0101750D01*
X0069500Y0101750D01*
X0067000Y0099250D01*
X0064500Y0101750D01*
X0057000Y0101750D01*
X0054500Y0099250D02*
X0057000Y0096750D01*
X0059500Y0099250D01*
X0064500Y0099250D01*
X0067000Y0096750D01*
X0069500Y0099250D01*
X0084500Y0099250D01*
X0087000Y0096750D01*
X0089500Y0099250D01*
X0094500Y0099250D01*
X0097000Y0096750D01*
X0099500Y0099250D01*
X0134500Y0099250D01*
X0137000Y0101750D01*
X0139500Y0099250D01*
X0147000Y0099250D01*
X0154500Y0099250D01*
X0157000Y0096750D01*
X0159500Y0099250D01*
X0164500Y0099250D01*
X0167000Y0096750D01*
X0169500Y0099250D01*
X0184500Y0099250D01*
X0187000Y0096750D01*
X0189500Y0099250D01*
X0194500Y0099250D01*
X0197000Y0096750D01*
X0199500Y0099250D01*
X0234500Y0099250D01*
X0237000Y0101750D01*
X0239500Y0099250D01*
X0247000Y0099250D01*
X0254500Y0099250D01*
X0257000Y0096750D01*
X0259500Y0099250D01*
X0264500Y0099250D01*
X0267000Y0096750D01*
X0269500Y0099250D01*
X0284500Y0099250D01*
X0287000Y0096750D01*
X0289500Y0099250D01*
X0294500Y0099250D01*
X0297000Y0096750D01*
X0299500Y0099250D01*
X0332000Y0099250D01*
X0342000Y0089250D01*
X0332000Y0089250D02*
X0324500Y0096750D01*
X0299500Y0096750D01*
X0297000Y0094250D01*
X0294500Y0096750D01*
X0289500Y0096750D01*
X0287000Y0094250D01*
X0284500Y0096750D01*
X0269500Y0096750D01*
X0267000Y0094250D01*
X0264500Y0096750D01*
X0259500Y0096750D01*
X0257000Y0094250D01*
X0254500Y0096750D01*
X0249500Y0096750D01*
X0247000Y0094250D01*
X0244500Y0096750D01*
X0237000Y0096750D01*
X0199500Y0096750D01*
X0197000Y0094250D01*
X0194500Y0096750D01*
X0189500Y0096750D01*
X0187000Y0094250D01*
X0184500Y0096750D01*
X0169500Y0096750D01*
X0167000Y0094250D01*
X0164500Y0096750D01*
X0159500Y0096750D01*
X0157000Y0094250D01*
X0154500Y0096750D01*
X0149500Y0096750D01*
X0147000Y0094250D01*
X0144500Y0096750D01*
X0137000Y0096750D01*
X0099500Y0096750D01*
X0097000Y0094250D01*
X0094500Y0096750D01*
X0089500Y0096750D01*
X0087000Y0094250D01*
X0084500Y0096750D01*
X0069500Y0096750D01*
X0067000Y0094250D01*
X0064500Y0096750D01*
X0059500Y0096750D01*
X0057000Y0094250D01*
X0054500Y0096750D01*
X0049500Y0096750D01*
X0047000Y0094250D01*
X0044500Y0096750D01*
X0037000Y0096750D01*
X0034500Y0094250D02*
X0037000Y0091750D01*
X0039500Y0094250D01*
X0044500Y0094250D01*
X0047000Y0091750D01*
X0049500Y0094250D01*
X0054500Y0094250D01*
X0057000Y0091750D01*
X0059500Y0094250D01*
X0064500Y0094250D01*
X0067000Y0091750D01*
X0069500Y0094250D01*
X0084500Y0094250D01*
X0087000Y0091750D01*
X0089500Y0094250D01*
X0094500Y0094250D01*
X0097000Y0091750D01*
X0099500Y0094250D01*
X0107000Y0094250D01*
X0112000Y0089250D01*
X0117000Y0094250D01*
X0134500Y0094250D01*
X0137000Y0091750D01*
X0139500Y0094250D01*
X0144500Y0094250D01*
X0147000Y0091750D01*
X0149500Y0094250D01*
X0154500Y0094250D01*
X0157000Y0091750D01*
X0159500Y0094250D01*
X0164500Y0094250D01*
X0167000Y0091750D01*
X0169500Y0094250D01*
X0184500Y0094250D01*
X0187000Y0091750D01*
X0189500Y0094250D01*
X0194500Y0094250D01*
X0197000Y0091750D01*
X0199500Y0094250D01*
X0207000Y0094250D01*
X0212000Y0089250D01*
X0217000Y0094250D01*
X0234500Y0094250D01*
X0237000Y0091750D01*
X0239500Y0094250D01*
X0244500Y0094250D01*
X0247000Y0091750D01*
X0249500Y0094250D01*
X0254500Y0094250D01*
X0257000Y0091750D01*
X0259500Y0094250D01*
X0264500Y0094250D01*
X0267000Y0091750D01*
X0269500Y0094250D01*
X0284500Y0094250D01*
X0287000Y0091750D01*
X0289500Y0094250D01*
X0294500Y0094250D01*
X0297000Y0091750D01*
X0299500Y0094250D01*
X0307000Y0094250D01*
X0312000Y0089250D01*
X0322000Y0089250D02*
X0287000Y0054250D01*
X0205750Y0054250D01*
X0198250Y0061750D01*
X0180750Y0061750D01*
X0184500Y0065500D02*
X0185750Y0064250D01*
X0199500Y0064250D01*
X0207000Y0056750D01*
X0270750Y0056750D01*
X0272000Y0058000D01*
X0244500Y0046750D02*
X0242000Y0049250D01*
X0228250Y0049250D01*
X0224500Y0045500D01*
X0224500Y0039250D01*
X0219500Y0039250D02*
X0219500Y0031750D01*
X0222000Y0029250D01*
X0229500Y0039250D02*
X0229500Y0043000D01*
X0232000Y0045500D01*
X0238250Y0046750D02*
X0242000Y0043000D01*
X0262000Y0043000D01*
X0252000Y0046750D02*
X0244500Y0046750D01*
X0234500Y0039250D02*
X0272000Y0039250D01*
X0282000Y0029250D01*
X0199500Y0045500D02*
X0193250Y0051750D01*
X0123250Y0051750D01*
X0122000Y0050500D01*
X0159500Y0048000D02*
X0160750Y0049250D01*
X0192000Y0049250D01*
X0194500Y0046750D01*
X0194500Y0039250D01*
X0212000Y0060500D02*
X0205750Y0066750D01*
X0197000Y0066750D01*
X0194500Y0069250D01*
X0194500Y0079250D01*
X0199500Y0079250D02*
X0199500Y0070500D01*
X0200750Y0069250D01*
X0209500Y0069250D01*
X0218250Y0060500D01*
X0232000Y0060500D01*
X0240750Y0068000D02*
X0242000Y0066750D01*
X0240750Y0068000D02*
X0227000Y0068000D01*
X0219500Y0075500D01*
X0219500Y0079250D01*
X0214500Y0079250D02*
X0214500Y0073000D01*
X0224500Y0074250D02*
X0228250Y0070500D01*
X0263250Y0070500D01*
X0282000Y0089250D01*
X0262000Y0089250D02*
X0245750Y0073000D01*
X0232000Y0073000D01*
X0229500Y0075500D01*
X0229500Y0079250D01*
X0234500Y0079250D02*
X0242000Y0079250D01*
X0252000Y0089250D01*
X0209500Y0084250D02*
X0209500Y0079250D01*
X0204500Y0079250D02*
X0204500Y0073000D01*
X0209500Y0084250D02*
X0205750Y0088000D01*
X0193250Y0088000D01*
X0192000Y0089250D01*
X0189500Y0109250D02*
X0197000Y0109250D01*
X0234500Y0109250D01*
X0237000Y0111750D01*
X0239500Y0109250D01*
X0244500Y0109250D01*
X0247000Y0111750D01*
X0249500Y0109250D01*
X0254500Y0109250D01*
X0257000Y0111750D01*
X0259500Y0109250D01*
X0264500Y0109250D01*
X0267000Y0111750D01*
X0269500Y0109250D01*
X0284500Y0109250D01*
X0287000Y0111750D01*
X0289500Y0109250D01*
X0297000Y0109250D01*
X0372000Y0109250D01*
X0392000Y0089250D01*
X0189500Y0109250D02*
X0187000Y0111750D01*
X0184500Y0109250D01*
X0169500Y0109250D01*
X0167000Y0111750D01*
X0164500Y0109250D01*
X0159500Y0109250D01*
X0157000Y0111750D01*
X0154500Y0109250D01*
X0149500Y0109250D01*
X0147000Y0111750D01*
X0144500Y0109250D01*
X0139500Y0109250D01*
X0137000Y0111750D01*
X0134500Y0109250D01*
X0097000Y0109250D01*
X0084500Y0104250D02*
X0067000Y0104250D01*
X0054500Y0099250D02*
X0047000Y0099250D01*
X0034500Y0094250D02*
X0017000Y0094250D01*
X0012000Y0089250D01*
D21*
X0179500Y0063000D02*
X0180750Y0061750D01*
X0224500Y0074250D02*
X0224500Y0079250D01*
X0233250Y0046750D02*
X0238250Y0046750D01*
X0233250Y0046750D02*
X0232000Y0045500D01*
X0209500Y0043000D02*
X0209500Y0039250D01*
X0204500Y0039250D02*
X0204500Y0044250D01*
X0199500Y0045500D02*
X0199500Y0039250D01*
X0189500Y0039250D02*
X0189500Y0045500D01*
X0184500Y0045500D02*
X0184500Y0039250D01*
X0179500Y0039250D02*
X0179500Y0045500D01*
M02*
