G75*
%MOIN*%
%OFA0B0*%
%FSLAX25Y25*%
%IPPOS*%
%LPD*%
%AMOC8*
5,1,8,0,0,1.08239X$1,22.5*
%
%ADD10C,0.08674*%
%ADD11R,0.05918X0.06706*%
%ADD12R,0.05400X0.07100*%
%ADD13R,0.00600X0.07200*%
%ADD14R,0.04737X0.03950*%
%ADD15R,0.06706X0.05918*%
%ADD16R,0.03300X0.09800*%
%ADD17C,0.07400*%
%ADD18R,0.07800X0.07800*%
%ADD19C,0.07800*%
D10*
X0009500Y0009250D03*
X0009500Y0109250D03*
X0394500Y0109250D03*
X0394500Y0009250D03*
D11*
X0065740Y0066750D03*
X0058260Y0066750D03*
X0058260Y0074250D03*
X0065740Y0074250D03*
X0048240Y0059250D03*
X0040760Y0059250D03*
X0040760Y0049250D03*
X0048240Y0049250D03*
X0048240Y0039250D03*
X0040760Y0039250D03*
D12*
X0032500Y0039250D03*
X0026500Y0039250D03*
X0026500Y0049250D03*
X0032500Y0049250D03*
X0032500Y0059250D03*
X0026500Y0059250D03*
D13*
X0029500Y0059250D03*
X0029500Y0049250D03*
X0029500Y0039250D03*
D14*
X0054063Y0049250D03*
X0061937Y0049250D03*
D15*
X0102000Y0074510D03*
X0102000Y0081990D03*
D16*
X0169500Y0079250D03*
X0174500Y0079250D03*
X0179500Y0079250D03*
X0184500Y0079250D03*
X0189500Y0079250D03*
X0194500Y0079250D03*
X0199500Y0079250D03*
X0204500Y0079250D03*
X0209500Y0079250D03*
X0214500Y0079250D03*
X0219500Y0079250D03*
X0224500Y0079250D03*
X0229500Y0079250D03*
X0234500Y0079250D03*
X0234500Y0039250D03*
X0229500Y0039250D03*
X0224500Y0039250D03*
X0219500Y0039250D03*
X0214500Y0039250D03*
X0209500Y0039250D03*
X0204500Y0039250D03*
X0199500Y0039250D03*
X0194500Y0039250D03*
X0189500Y0039250D03*
X0184500Y0039250D03*
X0179500Y0039250D03*
X0174500Y0039250D03*
X0169500Y0039250D03*
D17*
X0172000Y0029250D03*
X0162000Y0029250D03*
X0152000Y0029250D03*
X0142000Y0029250D03*
X0132000Y0029250D03*
X0122000Y0029250D03*
X0112000Y0029250D03*
X0092000Y0029250D03*
X0082000Y0029250D03*
X0072000Y0029250D03*
X0062000Y0029250D03*
X0052000Y0029250D03*
X0042000Y0029250D03*
X0032000Y0029250D03*
X0022000Y0029250D03*
X0012000Y0029250D03*
X0182000Y0029250D03*
X0192000Y0029250D03*
X0212000Y0029250D03*
X0222000Y0029250D03*
X0232000Y0029250D03*
X0242000Y0029250D03*
X0252000Y0029250D03*
X0262000Y0029250D03*
X0272000Y0029250D03*
X0282000Y0029250D03*
X0292000Y0029250D03*
X0312000Y0029250D03*
X0322000Y0029250D03*
X0332000Y0029250D03*
X0342000Y0029250D03*
X0352000Y0029250D03*
X0362000Y0029250D03*
X0372000Y0029250D03*
X0382000Y0029250D03*
X0392000Y0029250D03*
X0392000Y0089250D03*
X0382000Y0089250D03*
X0372000Y0089250D03*
X0362000Y0089250D03*
X0352000Y0089250D03*
X0342000Y0089250D03*
X0332000Y0089250D03*
X0322000Y0089250D03*
X0312000Y0089250D03*
X0292000Y0089250D03*
X0282000Y0089250D03*
X0272000Y0089250D03*
X0262000Y0089250D03*
X0252000Y0089250D03*
X0242000Y0089250D03*
X0232000Y0089250D03*
X0222000Y0089250D03*
X0212000Y0089250D03*
X0192000Y0089250D03*
X0182000Y0089250D03*
X0172000Y0089250D03*
X0162000Y0089250D03*
X0152000Y0089250D03*
X0142000Y0089250D03*
X0132000Y0089250D03*
X0122000Y0089250D03*
X0112000Y0089250D03*
X0092000Y0089250D03*
X0082000Y0089250D03*
X0072000Y0089250D03*
X0062000Y0089250D03*
X0052000Y0089250D03*
X0042000Y0089250D03*
X0032000Y0089250D03*
X0022000Y0089250D03*
X0012000Y0089250D03*
D18*
X0022000Y0109250D03*
D19*
X0032000Y0109250D03*
X0042000Y0109250D03*
X0052000Y0109250D03*
X0062000Y0109250D03*
M02*
