G75*
%MOIN*%
%OFA0B0*%
%FSLAX25Y25*%
%IPPOS*%
%LPD*%
%AMOC8*
5,1,8,0,0,1.08239X$1,22.5*
%
%ADD10C,0.08674*%
%ADD11C,0.07400*%
%ADD12R,0.07800X0.07800*%
%ADD13C,0.07800*%
D10*
X0009500Y0009250D03*
X0009500Y0109250D03*
X0394500Y0109250D03*
X0394500Y0009250D03*
D11*
X0392000Y0029250D03*
X0382000Y0029250D03*
X0372000Y0029250D03*
X0362000Y0029250D03*
X0352000Y0029250D03*
X0342000Y0029250D03*
X0332000Y0029250D03*
X0322000Y0029250D03*
X0312000Y0029250D03*
X0292000Y0029250D03*
X0282000Y0029250D03*
X0272000Y0029250D03*
X0262000Y0029250D03*
X0252000Y0029250D03*
X0242000Y0029250D03*
X0232000Y0029250D03*
X0222000Y0029250D03*
X0212000Y0029250D03*
X0192000Y0029250D03*
X0182000Y0029250D03*
X0172000Y0029250D03*
X0162000Y0029250D03*
X0152000Y0029250D03*
X0142000Y0029250D03*
X0132000Y0029250D03*
X0122000Y0029250D03*
X0112000Y0029250D03*
X0092000Y0029250D03*
X0082000Y0029250D03*
X0072000Y0029250D03*
X0062000Y0029250D03*
X0052000Y0029250D03*
X0042000Y0029250D03*
X0032000Y0029250D03*
X0022000Y0029250D03*
X0012000Y0029250D03*
X0012000Y0089250D03*
X0022000Y0089250D03*
X0032000Y0089250D03*
X0042000Y0089250D03*
X0052000Y0089250D03*
X0062000Y0089250D03*
X0072000Y0089250D03*
X0082000Y0089250D03*
X0092000Y0089250D03*
X0112000Y0089250D03*
X0122000Y0089250D03*
X0132000Y0089250D03*
X0142000Y0089250D03*
X0152000Y0089250D03*
X0162000Y0089250D03*
X0172000Y0089250D03*
X0182000Y0089250D03*
X0192000Y0089250D03*
X0212000Y0089250D03*
X0222000Y0089250D03*
X0232000Y0089250D03*
X0242000Y0089250D03*
X0252000Y0089250D03*
X0262000Y0089250D03*
X0272000Y0089250D03*
X0282000Y0089250D03*
X0292000Y0089250D03*
X0312000Y0089250D03*
X0322000Y0089250D03*
X0332000Y0089250D03*
X0342000Y0089250D03*
X0352000Y0089250D03*
X0362000Y0089250D03*
X0372000Y0089250D03*
X0382000Y0089250D03*
X0392000Y0089250D03*
D12*
X0022000Y0109250D03*
D13*
X0032000Y0109250D03*
X0042000Y0109250D03*
X0052000Y0109250D03*
X0062000Y0109250D03*
M02*
