G75*
%MOIN*%
%OFA0B0*%
%FSLAX25Y25*%
%IPPOS*%
%LPD*%
%AMOC8*
5,1,8,0,0,1.08239X$1,22.5*
%
%ADD10C,0.00500*%
%ADD11C,0.00800*%
%ADD12C,0.01200*%
%ADD13C,0.00300*%
%ADD14C,0.03200*%
D10*
X0019415Y0036500D02*
X0018247Y0037668D01*
X0019415Y0038835D01*
X0021750Y0038835D01*
X0021166Y0040183D02*
X0018831Y0040183D01*
X0018247Y0040767D01*
X0018247Y0041935D01*
X0018831Y0042518D01*
X0021166Y0040183D01*
X0021750Y0040767D01*
X0021750Y0041935D01*
X0021166Y0042518D01*
X0018831Y0042518D01*
X0019999Y0038835D02*
X0019999Y0036500D01*
X0019415Y0036500D02*
X0021750Y0036500D01*
X0021750Y0046500D02*
X0019415Y0046500D01*
X0018247Y0047668D01*
X0019415Y0048835D01*
X0021750Y0048835D01*
X0021750Y0050183D02*
X0021750Y0052518D01*
X0021750Y0051351D02*
X0018247Y0051351D01*
X0019415Y0050183D01*
X0019999Y0048835D02*
X0019999Y0046500D01*
X0019999Y0056500D02*
X0019999Y0058835D01*
X0019415Y0058835D02*
X0021750Y0058835D01*
X0021750Y0060183D02*
X0019415Y0062518D01*
X0018831Y0062518D01*
X0018247Y0061935D01*
X0018247Y0060767D01*
X0018831Y0060183D01*
X0019415Y0058835D02*
X0018247Y0057668D01*
X0019415Y0056500D01*
X0021750Y0056500D01*
X0021750Y0060183D02*
X0021750Y0062518D01*
X0054654Y0051809D02*
X0061346Y0051809D01*
X0061346Y0046691D01*
X0054654Y0046691D01*
X0054654Y0051809D01*
X0056425Y0051612D02*
X0056819Y0051612D01*
X0056819Y0046888D01*
X0056425Y0046888D02*
X0056425Y0051612D01*
X0060997Y0092245D02*
X0063332Y0092245D01*
X0064500Y0093413D01*
X0063332Y0094580D01*
X0060997Y0094580D01*
X0062165Y0095928D02*
X0062165Y0096512D01*
X0064500Y0096512D01*
X0064500Y0095928D02*
X0064500Y0097096D01*
X0060997Y0096512D02*
X0060413Y0096512D01*
X0054500Y0095868D02*
X0053332Y0097036D01*
X0050997Y0097036D01*
X0053332Y0094701D02*
X0054500Y0095868D01*
X0053332Y0094701D02*
X0050997Y0094701D01*
X0044500Y0095284D02*
X0044500Y0096452D01*
X0043916Y0097036D01*
X0042749Y0097036D01*
X0042749Y0095868D01*
X0043916Y0094701D02*
X0044500Y0095284D01*
X0043916Y0094701D02*
X0041581Y0094701D01*
X0040997Y0095284D01*
X0040997Y0096452D01*
X0041581Y0097036D01*
X0040997Y0098384D02*
X0044500Y0100719D01*
X0040997Y0100719D01*
X0040997Y0098384D02*
X0044500Y0098384D01*
X0050997Y0098968D02*
X0050997Y0100135D01*
X0051581Y0100719D01*
X0050997Y0098968D02*
X0051581Y0098384D01*
X0053916Y0098384D01*
X0054500Y0098968D01*
X0054500Y0100135D01*
X0053916Y0100719D01*
X0053916Y0102067D02*
X0051581Y0102067D01*
X0050997Y0102651D01*
X0050997Y0103818D01*
X0051581Y0104402D01*
X0053916Y0104402D02*
X0054500Y0103818D01*
X0054500Y0102651D01*
X0053916Y0102067D01*
X0060997Y0100135D02*
X0060997Y0098968D01*
X0061581Y0098384D01*
X0060997Y0100135D02*
X0061581Y0100719D01*
X0062165Y0100719D01*
X0064500Y0098384D01*
X0064500Y0100719D01*
X0063916Y0102067D02*
X0064500Y0102651D01*
X0064500Y0104402D01*
X0062165Y0104402D02*
X0062165Y0102651D01*
X0062749Y0102067D01*
X0063916Y0102067D01*
X0044500Y0102067D02*
X0044500Y0103818D01*
X0043916Y0104402D01*
X0041581Y0104402D01*
X0040997Y0103818D01*
X0040997Y0102067D01*
X0044500Y0102067D01*
X0034500Y0102067D02*
X0032165Y0102067D01*
X0030997Y0103235D01*
X0032165Y0104402D01*
X0034500Y0104402D01*
X0032749Y0104402D02*
X0032749Y0102067D01*
X0033916Y0100719D02*
X0031581Y0100719D01*
X0030997Y0100135D01*
X0030997Y0098384D01*
X0034500Y0098384D01*
X0034500Y0100135D01*
X0033916Y0100719D01*
X0024500Y0100135D02*
X0024500Y0098968D01*
X0023916Y0098384D01*
X0021581Y0098384D01*
X0020997Y0098968D01*
X0020997Y0100135D01*
X0021581Y0100719D01*
X0023916Y0100719D02*
X0024500Y0100135D01*
X0024500Y0102067D02*
X0020997Y0102067D01*
X0024500Y0102067D02*
X0024500Y0104402D01*
X0023916Y0097036D02*
X0024500Y0096452D01*
X0024500Y0095284D01*
X0023916Y0094701D01*
X0022749Y0095284D02*
X0022165Y0094701D01*
X0021581Y0094701D01*
X0020997Y0095284D01*
X0020997Y0096452D01*
X0021581Y0097036D01*
X0022749Y0096452D02*
X0023332Y0097036D01*
X0023916Y0097036D01*
X0022749Y0096452D02*
X0022749Y0095284D01*
X0030997Y0095284D02*
X0031581Y0094701D01*
X0032165Y0094701D01*
X0032749Y0095284D01*
X0032749Y0096452D01*
X0033332Y0097036D01*
X0033916Y0097036D01*
X0034500Y0096452D01*
X0034500Y0095284D01*
X0033916Y0094701D01*
X0030997Y0095284D02*
X0030997Y0096452D01*
X0031581Y0097036D01*
D11*
X0035000Y0063250D02*
X0024000Y0063250D01*
X0023940Y0063248D01*
X0023879Y0063243D01*
X0023820Y0063234D01*
X0023761Y0063221D01*
X0023702Y0063205D01*
X0023645Y0063185D01*
X0023590Y0063162D01*
X0023535Y0063135D01*
X0023483Y0063106D01*
X0023432Y0063073D01*
X0023383Y0063037D01*
X0023337Y0062999D01*
X0023293Y0062957D01*
X0023251Y0062913D01*
X0023213Y0062867D01*
X0023177Y0062818D01*
X0023144Y0062767D01*
X0023115Y0062715D01*
X0023088Y0062660D01*
X0023065Y0062605D01*
X0023045Y0062548D01*
X0023029Y0062489D01*
X0023016Y0062430D01*
X0023007Y0062371D01*
X0023002Y0062310D01*
X0023000Y0062250D01*
X0023000Y0056250D01*
X0023002Y0056190D01*
X0023007Y0056129D01*
X0023016Y0056070D01*
X0023029Y0056011D01*
X0023045Y0055952D01*
X0023065Y0055895D01*
X0023088Y0055840D01*
X0023115Y0055785D01*
X0023144Y0055733D01*
X0023177Y0055682D01*
X0023213Y0055633D01*
X0023251Y0055587D01*
X0023293Y0055543D01*
X0023337Y0055501D01*
X0023383Y0055463D01*
X0023432Y0055427D01*
X0023483Y0055394D01*
X0023535Y0055365D01*
X0023590Y0055338D01*
X0023645Y0055315D01*
X0023702Y0055295D01*
X0023761Y0055279D01*
X0023820Y0055266D01*
X0023879Y0055257D01*
X0023940Y0055252D01*
X0024000Y0055250D01*
X0035000Y0055250D01*
X0035060Y0055252D01*
X0035121Y0055257D01*
X0035180Y0055266D01*
X0035239Y0055279D01*
X0035298Y0055295D01*
X0035355Y0055315D01*
X0035410Y0055338D01*
X0035465Y0055365D01*
X0035517Y0055394D01*
X0035568Y0055427D01*
X0035617Y0055463D01*
X0035663Y0055501D01*
X0035707Y0055543D01*
X0035749Y0055587D01*
X0035787Y0055633D01*
X0035823Y0055682D01*
X0035856Y0055733D01*
X0035885Y0055785D01*
X0035912Y0055840D01*
X0035935Y0055895D01*
X0035955Y0055952D01*
X0035971Y0056011D01*
X0035984Y0056070D01*
X0035993Y0056129D01*
X0035998Y0056190D01*
X0036000Y0056250D01*
X0036000Y0062250D01*
X0035998Y0062310D01*
X0035993Y0062371D01*
X0035984Y0062430D01*
X0035971Y0062489D01*
X0035955Y0062548D01*
X0035935Y0062605D01*
X0035912Y0062660D01*
X0035885Y0062715D01*
X0035856Y0062767D01*
X0035823Y0062818D01*
X0035787Y0062867D01*
X0035749Y0062913D01*
X0035707Y0062957D01*
X0035663Y0062999D01*
X0035617Y0063037D01*
X0035568Y0063073D01*
X0035517Y0063106D01*
X0035465Y0063135D01*
X0035410Y0063162D01*
X0035355Y0063185D01*
X0035298Y0063205D01*
X0035239Y0063221D01*
X0035180Y0063234D01*
X0035121Y0063243D01*
X0035060Y0063248D01*
X0035000Y0063250D01*
X0035000Y0053250D02*
X0024000Y0053250D01*
X0023940Y0053248D01*
X0023879Y0053243D01*
X0023820Y0053234D01*
X0023761Y0053221D01*
X0023702Y0053205D01*
X0023645Y0053185D01*
X0023590Y0053162D01*
X0023535Y0053135D01*
X0023483Y0053106D01*
X0023432Y0053073D01*
X0023383Y0053037D01*
X0023337Y0052999D01*
X0023293Y0052957D01*
X0023251Y0052913D01*
X0023213Y0052867D01*
X0023177Y0052818D01*
X0023144Y0052767D01*
X0023115Y0052715D01*
X0023088Y0052660D01*
X0023065Y0052605D01*
X0023045Y0052548D01*
X0023029Y0052489D01*
X0023016Y0052430D01*
X0023007Y0052371D01*
X0023002Y0052310D01*
X0023000Y0052250D01*
X0023000Y0046250D01*
X0023002Y0046190D01*
X0023007Y0046129D01*
X0023016Y0046070D01*
X0023029Y0046011D01*
X0023045Y0045952D01*
X0023065Y0045895D01*
X0023088Y0045840D01*
X0023115Y0045785D01*
X0023144Y0045733D01*
X0023177Y0045682D01*
X0023213Y0045633D01*
X0023251Y0045587D01*
X0023293Y0045543D01*
X0023337Y0045501D01*
X0023383Y0045463D01*
X0023432Y0045427D01*
X0023483Y0045394D01*
X0023535Y0045365D01*
X0023590Y0045338D01*
X0023645Y0045315D01*
X0023702Y0045295D01*
X0023761Y0045279D01*
X0023820Y0045266D01*
X0023879Y0045257D01*
X0023940Y0045252D01*
X0024000Y0045250D01*
X0035000Y0045250D01*
X0035060Y0045252D01*
X0035121Y0045257D01*
X0035180Y0045266D01*
X0035239Y0045279D01*
X0035298Y0045295D01*
X0035355Y0045315D01*
X0035410Y0045338D01*
X0035465Y0045365D01*
X0035517Y0045394D01*
X0035568Y0045427D01*
X0035617Y0045463D01*
X0035663Y0045501D01*
X0035707Y0045543D01*
X0035749Y0045587D01*
X0035787Y0045633D01*
X0035823Y0045682D01*
X0035856Y0045733D01*
X0035885Y0045785D01*
X0035912Y0045840D01*
X0035935Y0045895D01*
X0035955Y0045952D01*
X0035971Y0046011D01*
X0035984Y0046070D01*
X0035993Y0046129D01*
X0035998Y0046190D01*
X0036000Y0046250D01*
X0036000Y0052250D01*
X0035998Y0052310D01*
X0035993Y0052371D01*
X0035984Y0052430D01*
X0035971Y0052489D01*
X0035955Y0052548D01*
X0035935Y0052605D01*
X0035912Y0052660D01*
X0035885Y0052715D01*
X0035856Y0052767D01*
X0035823Y0052818D01*
X0035787Y0052867D01*
X0035749Y0052913D01*
X0035707Y0052957D01*
X0035663Y0052999D01*
X0035617Y0053037D01*
X0035568Y0053073D01*
X0035517Y0053106D01*
X0035465Y0053135D01*
X0035410Y0053162D01*
X0035355Y0053185D01*
X0035298Y0053205D01*
X0035239Y0053221D01*
X0035180Y0053234D01*
X0035121Y0053243D01*
X0035060Y0053248D01*
X0035000Y0053250D01*
X0035000Y0043250D02*
X0024000Y0043250D01*
X0023940Y0043248D01*
X0023879Y0043243D01*
X0023820Y0043234D01*
X0023761Y0043221D01*
X0023702Y0043205D01*
X0023645Y0043185D01*
X0023590Y0043162D01*
X0023535Y0043135D01*
X0023483Y0043106D01*
X0023432Y0043073D01*
X0023383Y0043037D01*
X0023337Y0042999D01*
X0023293Y0042957D01*
X0023251Y0042913D01*
X0023213Y0042867D01*
X0023177Y0042818D01*
X0023144Y0042767D01*
X0023115Y0042715D01*
X0023088Y0042660D01*
X0023065Y0042605D01*
X0023045Y0042548D01*
X0023029Y0042489D01*
X0023016Y0042430D01*
X0023007Y0042371D01*
X0023002Y0042310D01*
X0023000Y0042250D01*
X0023000Y0036250D01*
X0023002Y0036190D01*
X0023007Y0036129D01*
X0023016Y0036070D01*
X0023029Y0036011D01*
X0023045Y0035952D01*
X0023065Y0035895D01*
X0023088Y0035840D01*
X0023115Y0035785D01*
X0023144Y0035733D01*
X0023177Y0035682D01*
X0023213Y0035633D01*
X0023251Y0035587D01*
X0023293Y0035543D01*
X0023337Y0035501D01*
X0023383Y0035463D01*
X0023432Y0035427D01*
X0023483Y0035394D01*
X0023535Y0035365D01*
X0023590Y0035338D01*
X0023645Y0035315D01*
X0023702Y0035295D01*
X0023761Y0035279D01*
X0023820Y0035266D01*
X0023879Y0035257D01*
X0023940Y0035252D01*
X0024000Y0035250D01*
X0035000Y0035250D01*
X0035060Y0035252D01*
X0035121Y0035257D01*
X0035180Y0035266D01*
X0035239Y0035279D01*
X0035298Y0035295D01*
X0035355Y0035315D01*
X0035410Y0035338D01*
X0035465Y0035365D01*
X0035517Y0035394D01*
X0035568Y0035427D01*
X0035617Y0035463D01*
X0035663Y0035501D01*
X0035707Y0035543D01*
X0035749Y0035587D01*
X0035787Y0035633D01*
X0035823Y0035682D01*
X0035856Y0035733D01*
X0035885Y0035785D01*
X0035912Y0035840D01*
X0035935Y0035895D01*
X0035955Y0035952D01*
X0035971Y0036011D01*
X0035984Y0036070D01*
X0035993Y0036129D01*
X0035998Y0036190D01*
X0036000Y0036250D01*
X0036000Y0042250D01*
X0035998Y0042310D01*
X0035993Y0042371D01*
X0035984Y0042430D01*
X0035971Y0042489D01*
X0035955Y0042548D01*
X0035935Y0042605D01*
X0035912Y0042660D01*
X0035885Y0042715D01*
X0035856Y0042767D01*
X0035823Y0042818D01*
X0035787Y0042867D01*
X0035749Y0042913D01*
X0035707Y0042957D01*
X0035663Y0042999D01*
X0035617Y0043037D01*
X0035568Y0043073D01*
X0035517Y0043106D01*
X0035465Y0043135D01*
X0035410Y0043162D01*
X0035355Y0043185D01*
X0035298Y0043205D01*
X0035239Y0043221D01*
X0035180Y0043234D01*
X0035121Y0043243D01*
X0035060Y0043248D01*
X0035000Y0043250D01*
X0166400Y0044250D02*
X0237600Y0044250D01*
X0237600Y0074250D01*
X0166400Y0074250D01*
X0166400Y0044250D01*
X0249351Y0052150D02*
X0249351Y0056954D01*
X0251753Y0059356D01*
X0254155Y0056954D01*
X0254155Y0052150D01*
X0256717Y0052150D02*
X0259119Y0052150D01*
X0257918Y0052150D02*
X0257918Y0059356D01*
X0256717Y0059356D01*
X0261628Y0056954D02*
X0265231Y0056954D01*
X0266432Y0055753D01*
X0266432Y0053351D01*
X0265231Y0052150D01*
X0261628Y0052150D01*
X0268994Y0052150D02*
X0268994Y0059356D01*
X0270195Y0056954D02*
X0272597Y0056954D01*
X0273798Y0055753D01*
X0273798Y0052150D01*
X0276361Y0053351D02*
X0277562Y0054552D01*
X0281165Y0054552D01*
X0281165Y0055753D02*
X0281165Y0052150D01*
X0277562Y0052150D01*
X0276361Y0053351D01*
X0279964Y0056954D02*
X0281165Y0055753D01*
X0279964Y0056954D02*
X0277562Y0056954D01*
X0283727Y0056954D02*
X0287330Y0056954D01*
X0288531Y0055753D01*
X0288531Y0052150D01*
X0291093Y0053351D02*
X0292294Y0052150D01*
X0295897Y0052150D01*
X0295897Y0056954D01*
X0298460Y0056954D02*
X0299661Y0056954D01*
X0300862Y0055753D01*
X0302063Y0056954D01*
X0303264Y0055753D01*
X0303264Y0052150D01*
X0300862Y0052150D02*
X0300862Y0055753D01*
X0298460Y0056954D02*
X0298460Y0052150D01*
X0291093Y0053351D02*
X0291093Y0056954D01*
X0283727Y0056954D02*
X0283727Y0052150D01*
X0270195Y0056954D02*
X0268994Y0055753D01*
X0261628Y0056954D02*
X0261628Y0049748D01*
X0254155Y0055753D02*
X0249351Y0055753D01*
X0285515Y0064650D02*
X0285515Y0071856D01*
X0283113Y0071856D02*
X0287917Y0071856D01*
X0290479Y0068253D02*
X0291680Y0069454D01*
X0294082Y0069454D01*
X0295283Y0068253D01*
X0295283Y0067052D01*
X0290479Y0067052D01*
X0290479Y0065851D02*
X0290479Y0068253D01*
X0290479Y0065851D02*
X0291680Y0064650D01*
X0294082Y0064650D01*
X0297846Y0065851D02*
X0299047Y0064650D01*
X0302650Y0064650D01*
X0305212Y0064650D02*
X0305212Y0071856D01*
X0306413Y0069454D02*
X0308815Y0069454D01*
X0310016Y0068253D01*
X0310016Y0064650D01*
X0312578Y0064650D02*
X0312578Y0069454D01*
X0316181Y0069454D01*
X0317382Y0068253D01*
X0317382Y0064650D01*
X0319945Y0065851D02*
X0321146Y0064650D01*
X0323548Y0064650D01*
X0324749Y0065851D01*
X0324749Y0068253D01*
X0323548Y0069454D01*
X0321146Y0069454D01*
X0319945Y0068253D01*
X0319945Y0065851D01*
X0327311Y0064650D02*
X0330914Y0064650D01*
X0332115Y0065851D01*
X0332115Y0068253D01*
X0330914Y0069454D01*
X0327311Y0069454D01*
X0327311Y0071856D02*
X0327311Y0064650D01*
X0334677Y0064650D02*
X0337079Y0064650D01*
X0335878Y0064650D02*
X0335878Y0071856D01*
X0334677Y0071856D01*
X0339588Y0068253D02*
X0340789Y0069454D01*
X0343191Y0069454D01*
X0344392Y0068253D01*
X0344392Y0065851D01*
X0343191Y0064650D01*
X0340789Y0064650D01*
X0339588Y0065851D01*
X0339588Y0068253D01*
X0346954Y0068253D02*
X0346954Y0065851D01*
X0348155Y0064650D01*
X0351758Y0064650D01*
X0351758Y0063449D02*
X0351758Y0069454D01*
X0348155Y0069454D01*
X0346954Y0068253D01*
X0354321Y0069454D02*
X0354321Y0065851D01*
X0355522Y0064650D01*
X0359125Y0064650D01*
X0359125Y0063449D02*
X0357924Y0062248D01*
X0356723Y0062248D01*
X0359125Y0063449D02*
X0359125Y0069454D01*
X0351758Y0063449D02*
X0350557Y0062248D01*
X0349356Y0062248D01*
X0343778Y0058155D02*
X0342577Y0059356D01*
X0338974Y0059356D01*
X0338974Y0052150D01*
X0342577Y0052150D01*
X0343778Y0053351D01*
X0343778Y0054552D01*
X0342577Y0055753D01*
X0338974Y0055753D01*
X0342577Y0055753D02*
X0343778Y0056954D01*
X0343778Y0058155D01*
X0347541Y0056954D02*
X0349943Y0056954D01*
X0351144Y0055753D01*
X0351144Y0052150D01*
X0347541Y0052150D01*
X0346340Y0053351D01*
X0347541Y0054552D01*
X0351144Y0054552D01*
X0353707Y0053351D02*
X0354908Y0052150D01*
X0358511Y0052150D01*
X0361073Y0052150D02*
X0361073Y0059356D01*
X0358511Y0056954D02*
X0354908Y0056954D01*
X0353707Y0055753D01*
X0353707Y0053351D01*
X0361073Y0054552D02*
X0364676Y0056954D01*
X0367212Y0056954D02*
X0370815Y0056954D01*
X0372016Y0055753D01*
X0372016Y0053351D01*
X0370815Y0052150D01*
X0367212Y0052150D01*
X0364676Y0052150D02*
X0361073Y0054552D01*
X0367212Y0056954D02*
X0367212Y0049748D01*
X0374578Y0053351D02*
X0375779Y0052150D01*
X0379382Y0052150D01*
X0379382Y0055753D01*
X0378181Y0056954D01*
X0375779Y0056954D01*
X0381944Y0055753D02*
X0381944Y0053351D01*
X0383145Y0052150D01*
X0386748Y0052150D01*
X0389310Y0052150D02*
X0389310Y0059356D01*
X0386748Y0056954D02*
X0383145Y0056954D01*
X0381944Y0055753D01*
X0379382Y0054552D02*
X0375779Y0054552D01*
X0374578Y0053351D01*
X0389310Y0054552D02*
X0392913Y0056954D01*
X0389310Y0054552D02*
X0392913Y0052150D01*
X0329046Y0052150D02*
X0325443Y0052150D01*
X0324242Y0053351D01*
X0324242Y0055753D01*
X0325443Y0056954D01*
X0329046Y0056954D01*
X0320532Y0056954D02*
X0320532Y0052150D01*
X0319331Y0052150D02*
X0321733Y0052150D01*
X0315594Y0056954D02*
X0313192Y0054552D01*
X0310630Y0054552D02*
X0310630Y0055753D01*
X0309429Y0056954D01*
X0307027Y0056954D01*
X0305826Y0055753D01*
X0305826Y0053351D01*
X0307027Y0052150D01*
X0309429Y0052150D01*
X0313192Y0052150D02*
X0313192Y0056954D01*
X0315594Y0056954D02*
X0316795Y0056954D01*
X0319331Y0056954D02*
X0320532Y0056954D01*
X0320532Y0059356D02*
X0320532Y0060557D01*
X0310630Y0054552D02*
X0305826Y0054552D01*
X0297846Y0065851D02*
X0297846Y0068253D01*
X0299047Y0069454D01*
X0302650Y0069454D01*
X0305212Y0068253D02*
X0306413Y0069454D01*
D12*
X0104000Y0078250D02*
X0100000Y0078250D01*
X0062000Y0076250D02*
X0062000Y0072250D01*
X0062000Y0068750D02*
X0062000Y0064750D01*
X0044500Y0061250D02*
X0044500Y0057250D01*
X0044500Y0051250D02*
X0044500Y0047250D01*
X0044500Y0041250D02*
X0044500Y0037250D01*
D13*
X0040284Y0036353D02*
X0040284Y0032650D01*
X0040284Y0033884D02*
X0042135Y0033884D01*
X0042752Y0034502D01*
X0042752Y0035736D01*
X0042135Y0036353D01*
X0040284Y0036353D01*
X0043967Y0034502D02*
X0046436Y0034502D01*
X0045818Y0036353D02*
X0043967Y0034502D01*
X0042752Y0032650D02*
X0041518Y0033884D01*
X0045818Y0032650D02*
X0045818Y0036353D01*
X0045818Y0042650D02*
X0044584Y0042650D01*
X0043967Y0043267D01*
X0042752Y0042650D02*
X0041518Y0043884D01*
X0042135Y0043884D02*
X0040284Y0043884D01*
X0042135Y0043884D02*
X0042752Y0044502D01*
X0042752Y0045736D01*
X0042135Y0046353D01*
X0040284Y0046353D01*
X0040284Y0042650D01*
X0045201Y0044502D02*
X0045818Y0044502D01*
X0046436Y0043884D01*
X0046436Y0043267D01*
X0045818Y0042650D01*
X0045818Y0044502D02*
X0046436Y0045119D01*
X0046436Y0045736D01*
X0045818Y0046353D01*
X0044584Y0046353D01*
X0043967Y0045736D01*
X0055370Y0045560D02*
X0055370Y0041857D01*
X0057222Y0041857D01*
X0057839Y0042474D01*
X0057839Y0044943D01*
X0057222Y0045560D01*
X0055370Y0045560D01*
X0059053Y0044325D02*
X0060288Y0045560D01*
X0060288Y0041857D01*
X0061522Y0041857D02*
X0059053Y0041857D01*
X0046436Y0053267D02*
X0045818Y0052650D01*
X0044584Y0052650D01*
X0043967Y0053267D01*
X0043967Y0054502D02*
X0045201Y0055119D01*
X0045818Y0055119D01*
X0046436Y0054502D01*
X0046436Y0053267D01*
X0043967Y0054502D02*
X0043967Y0056353D01*
X0046436Y0056353D01*
X0042752Y0055736D02*
X0042752Y0054502D01*
X0042135Y0053884D01*
X0040284Y0053884D01*
X0040284Y0052650D02*
X0040284Y0056353D01*
X0042135Y0056353D01*
X0042752Y0055736D01*
X0041518Y0053884D02*
X0042752Y0052650D01*
X0059150Y0059650D02*
X0059150Y0063353D01*
X0061002Y0063353D01*
X0061619Y0062736D01*
X0061619Y0061502D01*
X0061002Y0060884D01*
X0059150Y0060884D01*
X0060384Y0060884D02*
X0061619Y0059650D01*
X0062833Y0059650D02*
X0065302Y0059650D01*
X0064068Y0059650D02*
X0064068Y0063353D01*
X0062833Y0062119D01*
X0105592Y0075588D02*
X0106209Y0074971D01*
X0108678Y0074971D01*
X0109295Y0075588D01*
X0109295Y0076822D01*
X0108678Y0077439D01*
X0109295Y0078654D02*
X0109295Y0081123D01*
X0109295Y0079888D02*
X0105592Y0079888D01*
X0106826Y0078654D01*
X0106209Y0077439D02*
X0105592Y0076822D01*
X0105592Y0075588D01*
X0065302Y0077150D02*
X0062833Y0077150D01*
X0065302Y0079619D01*
X0065302Y0080236D01*
X0064685Y0080853D01*
X0063450Y0080853D01*
X0062833Y0080236D01*
X0061619Y0080236D02*
X0061619Y0079002D01*
X0061002Y0078384D01*
X0059150Y0078384D01*
X0059150Y0077150D02*
X0059150Y0080853D01*
X0061002Y0080853D01*
X0061619Y0080236D01*
X0060384Y0078384D02*
X0061619Y0077150D01*
X0172150Y0067302D02*
X0172150Y0064884D01*
X0172634Y0064400D01*
X0173601Y0064400D01*
X0174085Y0064884D01*
X0174085Y0067302D01*
X0175097Y0066819D02*
X0175580Y0067302D01*
X0176548Y0067302D01*
X0177031Y0066819D01*
X0177031Y0066335D01*
X0175097Y0064400D01*
X0177031Y0064400D01*
D14*
X0171000Y0050250D02*
X0171002Y0050313D01*
X0171008Y0050375D01*
X0171018Y0050437D01*
X0171031Y0050499D01*
X0171049Y0050559D01*
X0171070Y0050618D01*
X0171095Y0050676D01*
X0171124Y0050732D01*
X0171156Y0050786D01*
X0171191Y0050838D01*
X0171229Y0050887D01*
X0171271Y0050935D01*
X0171315Y0050979D01*
X0171363Y0051021D01*
X0171412Y0051059D01*
X0171464Y0051094D01*
X0171518Y0051126D01*
X0171574Y0051155D01*
X0171632Y0051180D01*
X0171691Y0051201D01*
X0171751Y0051219D01*
X0171813Y0051232D01*
X0171875Y0051242D01*
X0171937Y0051248D01*
X0172000Y0051250D01*
X0172063Y0051248D01*
X0172125Y0051242D01*
X0172187Y0051232D01*
X0172249Y0051219D01*
X0172309Y0051201D01*
X0172368Y0051180D01*
X0172426Y0051155D01*
X0172482Y0051126D01*
X0172536Y0051094D01*
X0172588Y0051059D01*
X0172637Y0051021D01*
X0172685Y0050979D01*
X0172729Y0050935D01*
X0172771Y0050887D01*
X0172809Y0050838D01*
X0172844Y0050786D01*
X0172876Y0050732D01*
X0172905Y0050676D01*
X0172930Y0050618D01*
X0172951Y0050559D01*
X0172969Y0050499D01*
X0172982Y0050437D01*
X0172992Y0050375D01*
X0172998Y0050313D01*
X0173000Y0050250D01*
X0172998Y0050187D01*
X0172992Y0050125D01*
X0172982Y0050063D01*
X0172969Y0050001D01*
X0172951Y0049941D01*
X0172930Y0049882D01*
X0172905Y0049824D01*
X0172876Y0049768D01*
X0172844Y0049714D01*
X0172809Y0049662D01*
X0172771Y0049613D01*
X0172729Y0049565D01*
X0172685Y0049521D01*
X0172637Y0049479D01*
X0172588Y0049441D01*
X0172536Y0049406D01*
X0172482Y0049374D01*
X0172426Y0049345D01*
X0172368Y0049320D01*
X0172309Y0049299D01*
X0172249Y0049281D01*
X0172187Y0049268D01*
X0172125Y0049258D01*
X0172063Y0049252D01*
X0172000Y0049250D01*
X0171937Y0049252D01*
X0171875Y0049258D01*
X0171813Y0049268D01*
X0171751Y0049281D01*
X0171691Y0049299D01*
X0171632Y0049320D01*
X0171574Y0049345D01*
X0171518Y0049374D01*
X0171464Y0049406D01*
X0171412Y0049441D01*
X0171363Y0049479D01*
X0171315Y0049521D01*
X0171271Y0049565D01*
X0171229Y0049613D01*
X0171191Y0049662D01*
X0171156Y0049714D01*
X0171124Y0049768D01*
X0171095Y0049824D01*
X0171070Y0049882D01*
X0171049Y0049941D01*
X0171031Y0050001D01*
X0171018Y0050063D01*
X0171008Y0050125D01*
X0171002Y0050187D01*
X0171000Y0050250D01*
M02*
