%
M48
M72
T01C0.0197
T02C0.0315
T03C0.0394
T04C0.0787
%
T01
X4700Y1675
X3700Y1925
X2700Y2175
X5700Y1425
X6700Y1175
X8700Y925
X9700Y675
X13700Y1925
X12700Y2175
X14700Y1675
X15700Y1425
X16700Y1175
X18700Y925
X19700Y675
X23700Y1925
X22700Y2175
X24700Y1675
X25700Y1425
X26700Y1175
X28700Y925
X29700Y675
X26200Y4300
X25200Y4675
X27200Y5800
X24200Y6675
X23200Y6050
X21200Y6050
X18450Y6550
X17950Y6300
X17450Y6050
X20450Y7300
X21450Y7300
X23700Y9675
X24700Y9925
X25700Y10175
X26700Y10425
X28700Y10675
X29700Y10925
X19700Y10925
X18700Y10675
X16700Y10425
X15700Y10175
X14700Y9925
X13700Y9675
X10200Y8925
X5700Y10175
X6700Y10425
X8700Y10675
X9700Y10925
X4700Y9925
X3700Y9675
X1700Y7925
X2700Y7425
X575Y7050
X3200Y6675
X6450Y5675
X7200Y5300
X9450Y3925
X12200Y5050
X15950Y4800
X17450Y4550
X17950Y4550
X18450Y4550
X18950Y4550
X11200Y6550
X13200Y6925
X9450Y7425
X1825Y4925
T02
X2200Y2925
X3200Y2925
X4200Y2925
X5200Y2925
X6200Y2925
X7200Y2925
X8200Y2925
X9200Y2925
X11200Y2925
X12200Y2925
X13200Y2925
X14200Y2925
X15200Y2925
X16200Y2925
X17200Y2925
X18200Y2925
X19200Y2925
X21200Y2925
X22200Y2925
X23200Y2925
X24200Y2925
X25200Y2925
X26200Y2925
X27200Y2925
X28200Y2925
X29200Y2925
X31200Y2925
X32200Y2925
X33200Y2925
X34200Y2925
X35200Y2925
X36200Y2925
X37200Y2925
X38200Y2925
X39200Y2925
X39200Y8925
X38200Y8925
X37200Y8925
X36200Y8925
X35200Y8925
X34200Y8925
X33200Y8925
X32200Y8925
X31200Y8925
X29200Y8925
X28200Y8925
X27200Y8925
X26200Y8925
X25200Y8925
X24200Y8925
X23200Y8925
X22200Y8925
X21200Y8925
X19200Y8925
X18200Y8925
X17200Y8925
X16200Y8925
X15200Y8925
X14200Y8925
X13200Y8925
X12200Y8925
X11200Y8925
X9200Y8925
X8200Y8925
X7200Y8925
X6200Y8925
X5200Y8925
X4200Y8925
X3200Y8925
X2200Y8925
X1200Y8925
X1200Y2925
T03
X2200Y10925
X3200Y10925
X4200Y10925
X5200Y10925
X6200Y10925
T04
X950Y925
X950Y10925
X39450Y10925
X39450Y925
M30
