G75*
%MOIN*%
%OFA0B0*%
%FSLAX25Y25*%
%IPPOS*%
%LPD*%
%AMOC8*
5,1,8,0,0,1.08239X$1,22.5*
%
%ADD10C,0.00500*%
%ADD11C,0.03150*%
%ADD12C,0.00600*%
D10*
X0002000Y0017124D02*
X0102000Y0017124D01*
X0102000Y0101376D01*
X0002000Y0101376D01*
X0002000Y0017124D01*
X0102000Y0017124D02*
X0202000Y0017124D01*
X0302000Y0017124D01*
X0402000Y0017124D01*
X0402000Y0101376D01*
X0302000Y0101376D01*
X0302000Y0017124D01*
X0302000Y0101376D01*
X0202000Y0101376D01*
X0202000Y0017124D01*
X0202000Y0101376D01*
X0102000Y0101376D01*
X0102000Y0017124D01*
X0027933Y0103000D02*
X0026182Y0103000D01*
X0025598Y0103584D01*
X0025598Y0105919D01*
X0026182Y0106503D01*
X0027933Y0106503D01*
X0027933Y0103000D01*
X0035598Y0104751D02*
X0037933Y0104751D01*
X0045598Y0104751D02*
X0047933Y0104751D01*
X0046765Y0105919D02*
X0046765Y0103584D01*
X0055598Y0104751D02*
X0057933Y0104751D01*
X0056765Y0105919D02*
X0056765Y0103584D01*
X0017933Y0103584D02*
X0017349Y0103000D01*
X0016182Y0103000D01*
X0015598Y0103584D01*
X0017933Y0103584D02*
X0017933Y0105919D01*
X0017349Y0106503D01*
X0016182Y0106503D01*
X0015598Y0105919D01*
D11*
X0090780Y0022242D02*
X0090782Y0022311D01*
X0090788Y0022379D01*
X0090798Y0022447D01*
X0090812Y0022514D01*
X0090830Y0022581D01*
X0090851Y0022646D01*
X0090877Y0022710D01*
X0090906Y0022772D01*
X0090938Y0022832D01*
X0090974Y0022891D01*
X0091014Y0022947D01*
X0091056Y0023001D01*
X0091102Y0023052D01*
X0091151Y0023101D01*
X0091202Y0023147D01*
X0091256Y0023189D01*
X0091312Y0023229D01*
X0091370Y0023265D01*
X0091431Y0023297D01*
X0091493Y0023326D01*
X0091557Y0023352D01*
X0091622Y0023373D01*
X0091689Y0023391D01*
X0091756Y0023405D01*
X0091824Y0023415D01*
X0091892Y0023421D01*
X0091961Y0023423D01*
X0092030Y0023421D01*
X0092098Y0023415D01*
X0092166Y0023405D01*
X0092233Y0023391D01*
X0092300Y0023373D01*
X0092365Y0023352D01*
X0092429Y0023326D01*
X0092491Y0023297D01*
X0092551Y0023265D01*
X0092610Y0023229D01*
X0092666Y0023189D01*
X0092720Y0023147D01*
X0092771Y0023101D01*
X0092820Y0023052D01*
X0092866Y0023001D01*
X0092908Y0022947D01*
X0092948Y0022891D01*
X0092984Y0022832D01*
X0093016Y0022772D01*
X0093045Y0022710D01*
X0093071Y0022646D01*
X0093092Y0022581D01*
X0093110Y0022514D01*
X0093124Y0022447D01*
X0093134Y0022379D01*
X0093140Y0022311D01*
X0093142Y0022242D01*
X0093140Y0022173D01*
X0093134Y0022105D01*
X0093124Y0022037D01*
X0093110Y0021970D01*
X0093092Y0021903D01*
X0093071Y0021838D01*
X0093045Y0021774D01*
X0093016Y0021712D01*
X0092984Y0021651D01*
X0092948Y0021593D01*
X0092908Y0021537D01*
X0092866Y0021483D01*
X0092820Y0021432D01*
X0092771Y0021383D01*
X0092720Y0021337D01*
X0092666Y0021295D01*
X0092610Y0021255D01*
X0092552Y0021219D01*
X0092491Y0021187D01*
X0092429Y0021158D01*
X0092365Y0021132D01*
X0092300Y0021111D01*
X0092233Y0021093D01*
X0092166Y0021079D01*
X0092098Y0021069D01*
X0092030Y0021063D01*
X0091961Y0021061D01*
X0091892Y0021063D01*
X0091824Y0021069D01*
X0091756Y0021079D01*
X0091689Y0021093D01*
X0091622Y0021111D01*
X0091557Y0021132D01*
X0091493Y0021158D01*
X0091431Y0021187D01*
X0091370Y0021219D01*
X0091312Y0021255D01*
X0091256Y0021295D01*
X0091202Y0021337D01*
X0091151Y0021383D01*
X0091102Y0021432D01*
X0091056Y0021483D01*
X0091014Y0021537D01*
X0090974Y0021593D01*
X0090938Y0021651D01*
X0090906Y0021712D01*
X0090877Y0021774D01*
X0090851Y0021838D01*
X0090830Y0021903D01*
X0090812Y0021970D01*
X0090798Y0022037D01*
X0090788Y0022105D01*
X0090782Y0022173D01*
X0090780Y0022242D01*
X0190780Y0022242D02*
X0190782Y0022311D01*
X0190788Y0022379D01*
X0190798Y0022447D01*
X0190812Y0022514D01*
X0190830Y0022581D01*
X0190851Y0022646D01*
X0190877Y0022710D01*
X0190906Y0022772D01*
X0190938Y0022832D01*
X0190974Y0022891D01*
X0191014Y0022947D01*
X0191056Y0023001D01*
X0191102Y0023052D01*
X0191151Y0023101D01*
X0191202Y0023147D01*
X0191256Y0023189D01*
X0191312Y0023229D01*
X0191370Y0023265D01*
X0191431Y0023297D01*
X0191493Y0023326D01*
X0191557Y0023352D01*
X0191622Y0023373D01*
X0191689Y0023391D01*
X0191756Y0023405D01*
X0191824Y0023415D01*
X0191892Y0023421D01*
X0191961Y0023423D01*
X0192030Y0023421D01*
X0192098Y0023415D01*
X0192166Y0023405D01*
X0192233Y0023391D01*
X0192300Y0023373D01*
X0192365Y0023352D01*
X0192429Y0023326D01*
X0192491Y0023297D01*
X0192551Y0023265D01*
X0192610Y0023229D01*
X0192666Y0023189D01*
X0192720Y0023147D01*
X0192771Y0023101D01*
X0192820Y0023052D01*
X0192866Y0023001D01*
X0192908Y0022947D01*
X0192948Y0022891D01*
X0192984Y0022832D01*
X0193016Y0022772D01*
X0193045Y0022710D01*
X0193071Y0022646D01*
X0193092Y0022581D01*
X0193110Y0022514D01*
X0193124Y0022447D01*
X0193134Y0022379D01*
X0193140Y0022311D01*
X0193142Y0022242D01*
X0193140Y0022173D01*
X0193134Y0022105D01*
X0193124Y0022037D01*
X0193110Y0021970D01*
X0193092Y0021903D01*
X0193071Y0021838D01*
X0193045Y0021774D01*
X0193016Y0021712D01*
X0192984Y0021651D01*
X0192948Y0021593D01*
X0192908Y0021537D01*
X0192866Y0021483D01*
X0192820Y0021432D01*
X0192771Y0021383D01*
X0192720Y0021337D01*
X0192666Y0021295D01*
X0192610Y0021255D01*
X0192552Y0021219D01*
X0192491Y0021187D01*
X0192429Y0021158D01*
X0192365Y0021132D01*
X0192300Y0021111D01*
X0192233Y0021093D01*
X0192166Y0021079D01*
X0192098Y0021069D01*
X0192030Y0021063D01*
X0191961Y0021061D01*
X0191892Y0021063D01*
X0191824Y0021069D01*
X0191756Y0021079D01*
X0191689Y0021093D01*
X0191622Y0021111D01*
X0191557Y0021132D01*
X0191493Y0021158D01*
X0191431Y0021187D01*
X0191370Y0021219D01*
X0191312Y0021255D01*
X0191256Y0021295D01*
X0191202Y0021337D01*
X0191151Y0021383D01*
X0191102Y0021432D01*
X0191056Y0021483D01*
X0191014Y0021537D01*
X0190974Y0021593D01*
X0190938Y0021651D01*
X0190906Y0021712D01*
X0190877Y0021774D01*
X0190851Y0021838D01*
X0190830Y0021903D01*
X0190812Y0021970D01*
X0190798Y0022037D01*
X0190788Y0022105D01*
X0190782Y0022173D01*
X0190780Y0022242D01*
X0290780Y0022242D02*
X0290782Y0022311D01*
X0290788Y0022379D01*
X0290798Y0022447D01*
X0290812Y0022514D01*
X0290830Y0022581D01*
X0290851Y0022646D01*
X0290877Y0022710D01*
X0290906Y0022772D01*
X0290938Y0022832D01*
X0290974Y0022891D01*
X0291014Y0022947D01*
X0291056Y0023001D01*
X0291102Y0023052D01*
X0291151Y0023101D01*
X0291202Y0023147D01*
X0291256Y0023189D01*
X0291312Y0023229D01*
X0291370Y0023265D01*
X0291431Y0023297D01*
X0291493Y0023326D01*
X0291557Y0023352D01*
X0291622Y0023373D01*
X0291689Y0023391D01*
X0291756Y0023405D01*
X0291824Y0023415D01*
X0291892Y0023421D01*
X0291961Y0023423D01*
X0292030Y0023421D01*
X0292098Y0023415D01*
X0292166Y0023405D01*
X0292233Y0023391D01*
X0292300Y0023373D01*
X0292365Y0023352D01*
X0292429Y0023326D01*
X0292491Y0023297D01*
X0292551Y0023265D01*
X0292610Y0023229D01*
X0292666Y0023189D01*
X0292720Y0023147D01*
X0292771Y0023101D01*
X0292820Y0023052D01*
X0292866Y0023001D01*
X0292908Y0022947D01*
X0292948Y0022891D01*
X0292984Y0022832D01*
X0293016Y0022772D01*
X0293045Y0022710D01*
X0293071Y0022646D01*
X0293092Y0022581D01*
X0293110Y0022514D01*
X0293124Y0022447D01*
X0293134Y0022379D01*
X0293140Y0022311D01*
X0293142Y0022242D01*
X0293140Y0022173D01*
X0293134Y0022105D01*
X0293124Y0022037D01*
X0293110Y0021970D01*
X0293092Y0021903D01*
X0293071Y0021838D01*
X0293045Y0021774D01*
X0293016Y0021712D01*
X0292984Y0021651D01*
X0292948Y0021593D01*
X0292908Y0021537D01*
X0292866Y0021483D01*
X0292820Y0021432D01*
X0292771Y0021383D01*
X0292720Y0021337D01*
X0292666Y0021295D01*
X0292610Y0021255D01*
X0292552Y0021219D01*
X0292491Y0021187D01*
X0292429Y0021158D01*
X0292365Y0021132D01*
X0292300Y0021111D01*
X0292233Y0021093D01*
X0292166Y0021079D01*
X0292098Y0021069D01*
X0292030Y0021063D01*
X0291961Y0021061D01*
X0291892Y0021063D01*
X0291824Y0021069D01*
X0291756Y0021079D01*
X0291689Y0021093D01*
X0291622Y0021111D01*
X0291557Y0021132D01*
X0291493Y0021158D01*
X0291431Y0021187D01*
X0291370Y0021219D01*
X0291312Y0021255D01*
X0291256Y0021295D01*
X0291202Y0021337D01*
X0291151Y0021383D01*
X0291102Y0021432D01*
X0291056Y0021483D01*
X0291014Y0021537D01*
X0290974Y0021593D01*
X0290938Y0021651D01*
X0290906Y0021712D01*
X0290877Y0021774D01*
X0290851Y0021838D01*
X0290830Y0021903D01*
X0290812Y0021970D01*
X0290798Y0022037D01*
X0290788Y0022105D01*
X0290782Y0022173D01*
X0290780Y0022242D01*
X0390780Y0022242D02*
X0390782Y0022311D01*
X0390788Y0022379D01*
X0390798Y0022447D01*
X0390812Y0022514D01*
X0390830Y0022581D01*
X0390851Y0022646D01*
X0390877Y0022710D01*
X0390906Y0022772D01*
X0390938Y0022832D01*
X0390974Y0022891D01*
X0391014Y0022947D01*
X0391056Y0023001D01*
X0391102Y0023052D01*
X0391151Y0023101D01*
X0391202Y0023147D01*
X0391256Y0023189D01*
X0391312Y0023229D01*
X0391370Y0023265D01*
X0391431Y0023297D01*
X0391493Y0023326D01*
X0391557Y0023352D01*
X0391622Y0023373D01*
X0391689Y0023391D01*
X0391756Y0023405D01*
X0391824Y0023415D01*
X0391892Y0023421D01*
X0391961Y0023423D01*
X0392030Y0023421D01*
X0392098Y0023415D01*
X0392166Y0023405D01*
X0392233Y0023391D01*
X0392300Y0023373D01*
X0392365Y0023352D01*
X0392429Y0023326D01*
X0392491Y0023297D01*
X0392551Y0023265D01*
X0392610Y0023229D01*
X0392666Y0023189D01*
X0392720Y0023147D01*
X0392771Y0023101D01*
X0392820Y0023052D01*
X0392866Y0023001D01*
X0392908Y0022947D01*
X0392948Y0022891D01*
X0392984Y0022832D01*
X0393016Y0022772D01*
X0393045Y0022710D01*
X0393071Y0022646D01*
X0393092Y0022581D01*
X0393110Y0022514D01*
X0393124Y0022447D01*
X0393134Y0022379D01*
X0393140Y0022311D01*
X0393142Y0022242D01*
X0393140Y0022173D01*
X0393134Y0022105D01*
X0393124Y0022037D01*
X0393110Y0021970D01*
X0393092Y0021903D01*
X0393071Y0021838D01*
X0393045Y0021774D01*
X0393016Y0021712D01*
X0392984Y0021651D01*
X0392948Y0021593D01*
X0392908Y0021537D01*
X0392866Y0021483D01*
X0392820Y0021432D01*
X0392771Y0021383D01*
X0392720Y0021337D01*
X0392666Y0021295D01*
X0392610Y0021255D01*
X0392552Y0021219D01*
X0392491Y0021187D01*
X0392429Y0021158D01*
X0392365Y0021132D01*
X0392300Y0021111D01*
X0392233Y0021093D01*
X0392166Y0021079D01*
X0392098Y0021069D01*
X0392030Y0021063D01*
X0391961Y0021061D01*
X0391892Y0021063D01*
X0391824Y0021069D01*
X0391756Y0021079D01*
X0391689Y0021093D01*
X0391622Y0021111D01*
X0391557Y0021132D01*
X0391493Y0021158D01*
X0391431Y0021187D01*
X0391370Y0021219D01*
X0391312Y0021255D01*
X0391256Y0021295D01*
X0391202Y0021337D01*
X0391151Y0021383D01*
X0391102Y0021432D01*
X0391056Y0021483D01*
X0391014Y0021537D01*
X0390974Y0021593D01*
X0390938Y0021651D01*
X0390906Y0021712D01*
X0390877Y0021774D01*
X0390851Y0021838D01*
X0390830Y0021903D01*
X0390812Y0021970D01*
X0390798Y0022037D01*
X0390788Y0022105D01*
X0390782Y0022173D01*
X0390780Y0022242D01*
D12*
X0390823Y0095357D02*
X0389088Y0095357D01*
X0389956Y0095357D02*
X0389956Y0097959D01*
X0390823Y0097092D01*
X0392035Y0097526D02*
X0392035Y0095791D01*
X0392468Y0095357D01*
X0393770Y0095357D01*
X0393770Y0097959D01*
X0392468Y0097959D01*
X0392035Y0097526D01*
X0394981Y0097959D02*
X0396716Y0097959D01*
X0396716Y0095357D01*
X0394981Y0095357D01*
X0395849Y0096658D02*
X0396716Y0096658D01*
X0397928Y0095357D02*
X0399663Y0095357D01*
X0399663Y0097959D01*
X0299663Y0097959D02*
X0299663Y0095357D01*
X0297928Y0095357D01*
X0296716Y0095357D02*
X0294981Y0095357D01*
X0293770Y0095357D02*
X0292468Y0095357D01*
X0292035Y0095791D01*
X0292035Y0097526D01*
X0292468Y0097959D01*
X0293770Y0097959D01*
X0293770Y0095357D01*
X0295849Y0096658D02*
X0296716Y0096658D01*
X0296716Y0097959D02*
X0296716Y0095357D01*
X0290823Y0095357D02*
X0289088Y0097092D01*
X0289088Y0097526D01*
X0289522Y0097959D01*
X0290389Y0097959D01*
X0290823Y0097526D01*
X0294981Y0097959D02*
X0296716Y0097959D01*
X0290823Y0095357D02*
X0289088Y0095357D01*
X0199663Y0095357D02*
X0197928Y0095357D01*
X0196716Y0095357D02*
X0194981Y0095357D01*
X0193770Y0095357D02*
X0192468Y0095357D01*
X0192035Y0095791D01*
X0192035Y0097526D01*
X0192468Y0097959D01*
X0193770Y0097959D01*
X0193770Y0095357D01*
X0195849Y0096658D02*
X0196716Y0096658D01*
X0196716Y0097959D02*
X0196716Y0095357D01*
X0199663Y0095357D02*
X0199663Y0097959D01*
X0196716Y0097959D02*
X0194981Y0097959D01*
X0190823Y0097526D02*
X0190389Y0097959D01*
X0189522Y0097959D01*
X0189088Y0097526D01*
X0189088Y0097092D01*
X0189522Y0096658D01*
X0189088Y0096224D01*
X0189088Y0095791D01*
X0189522Y0095357D01*
X0190389Y0095357D01*
X0190823Y0095791D01*
X0189956Y0096658D02*
X0189522Y0096658D01*
X0099663Y0095357D02*
X0097928Y0095357D01*
X0096716Y0095357D02*
X0094981Y0095357D01*
X0093770Y0095357D02*
X0092468Y0095357D01*
X0092035Y0095791D01*
X0092035Y0097526D01*
X0092468Y0097959D01*
X0093770Y0097959D01*
X0093770Y0095357D01*
X0095849Y0096658D02*
X0096716Y0096658D01*
X0096716Y0097959D02*
X0096716Y0095357D01*
X0099663Y0095357D02*
X0099663Y0097959D01*
X0096716Y0097959D02*
X0094981Y0097959D01*
X0090823Y0096658D02*
X0089088Y0096658D01*
X0089522Y0095357D02*
X0089522Y0097959D01*
X0090823Y0096658D01*
M02*
